M48
; DRILL file {KiCad 9.0.1} date 2026-03-16T11:56:51-0400
; FORMAT={-:-/ absolute / metric / decimal}
; #@! TF.CreationDate,2026-03-16T11:56:51-04:00
; #@! TF.GenerationSoftware,Kicad,Pcbnew,9.0.1
; #@! TF.FileFunction,Plated,1,2,PTH
FMAT,2
METRIC
; #@! TA.AperFunction,Plated,PTH,ViaDrill
T1C0.300
; #@! TA.AperFunction,Plated,PTH,ComponentDrill
T2C1.000
; #@! TA.AperFunction,Plated,PTH,ComponentDrill
T3C2.200
%
G90
G05
T1
X127.5Y-77.25
X127.5Y-82.25
X130.75Y-104.25
X131.25Y-90.5
X131.25Y-95.25
X131.25Y-100.25
X132.75Y-77.25
X132.75Y-82.25
X133.25Y-88.25
X133.25Y-93.25
X133.25Y-98.0
X133.25Y-103.0
X135.25Y-86.25
X135.25Y-90.5
X136.0Y-95.25
X136.0Y-98.5
X136.5Y-82.25
X137.5Y-77.25
X139.5Y-87.65
X143.75Y-87.75
X144.0Y-102.0
X144.0Y-103.75
X144.75Y-77.25
X149.5Y-91.25
X149.5Y-96.0
X150.25Y-77.25
X152.5Y-93.5
X152.5Y-98.5
X155.25Y-90.75
X155.25Y-96.0
X156.25Y-77.25
X157.25Y-93.5
X157.25Y-104.5
X157.5Y-98.5
X159.75Y-90.75
X159.75Y-96.0
X162.25Y-98.5
X162.5Y-105.0
X163.0Y-90.75
X163.0Y-93.5
X163.5Y-77.25
X164.5Y-101.0
X167.25Y-105.0
X167.5Y-79.25
X167.5Y-81.25
X167.5Y-83.75
X167.5Y-91.5
X167.5Y-97.5
X167.5Y-100.75
T2
X128.9Y-85.11
X128.9Y-87.65
X128.9Y-90.19
X128.9Y-92.73
X128.9Y-95.27
X128.9Y-97.81
X128.9Y-100.35
X128.9Y-102.89
X131.44Y-85.11
X133.98Y-85.11
X141.6Y-85.11
X141.6Y-87.65
X141.6Y-90.19
X141.6Y-92.73
X141.6Y-95.27
X141.6Y-97.81
X141.6Y-100.35
X141.6Y-102.89
X145.74Y-87.542
X145.74Y-90.082
X145.74Y-92.623
X145.74Y-95.162
X145.74Y-97.703
X145.74Y-100.242
X145.74Y-102.782
X148.28Y-87.542
X148.28Y-102.782
X150.82Y-87.542
X150.82Y-102.782
X153.36Y-87.542
X153.36Y-102.782
X155.9Y-87.542
X155.9Y-102.782
X158.44Y-87.542
X158.44Y-102.782
X158.985Y-78.475
X158.985Y-81.015
X160.98Y-87.542
X160.98Y-102.782
X161.525Y-78.475
X161.525Y-81.015
X163.52Y-87.542
X163.52Y-102.782
X165.75Y-78.67
X165.75Y-81.21
X165.75Y-83.75
X166.06Y-87.542
X166.06Y-102.782
T3
X130.0Y-79.5
X154.75Y-79.5
M30
