%TF.GenerationSoftware,KiCad,Pcbnew,9.0.1*%
%TF.CreationDate,2026-03-08T22:52:59-04:00*%
%TF.ProjectId,RPiLinearServo,5250694c-696e-4656-9172-536572766f2e,rev?*%
%TF.SameCoordinates,Original*%
%TF.FileFunction,Legend,Bot*%
%TF.FilePolarity,Positive*%
%FSLAX46Y46*%
G04 Gerber Fmt 4.6, Leading zero omitted, Abs format (unit mm)*
G04 Created by KiCad (PCBNEW 9.0.1) date 2026-03-08 22:52:59*
%MOMM*%
%LPD*%
G01*
G04 APERTURE LIST*
%ADD10C,0.100000*%
%ADD11C,0.160000*%
%ADD12C,0.150000*%
%ADD13C,0.120000*%
%ADD14C,0.010000*%
G04 APERTURE END LIST*
D10*
X158000000Y-98125000D02*
X158000000Y-95375000D01*
X158375000Y-95375000D02*
X161125000Y-95375000D01*
X154875000Y-95375000D02*
X157625000Y-95375000D01*
X158000000Y-95375000D02*
X158000000Y-92625000D01*
D11*
X160378572Y-90389730D02*
X160250001Y-90432587D01*
X160250001Y-90432587D02*
X160035715Y-90432587D01*
X160035715Y-90432587D02*
X159950001Y-90389730D01*
X159950001Y-90389730D02*
X159907143Y-90346872D01*
X159907143Y-90346872D02*
X159864286Y-90261158D01*
X159864286Y-90261158D02*
X159864286Y-90175444D01*
X159864286Y-90175444D02*
X159907143Y-90089730D01*
X159907143Y-90089730D02*
X159950001Y-90046872D01*
X159950001Y-90046872D02*
X160035715Y-90004015D01*
X160035715Y-90004015D02*
X160207143Y-89961158D01*
X160207143Y-89961158D02*
X160292858Y-89918301D01*
X160292858Y-89918301D02*
X160335715Y-89875444D01*
X160335715Y-89875444D02*
X160378572Y-89789730D01*
X160378572Y-89789730D02*
X160378572Y-89704015D01*
X160378572Y-89704015D02*
X160335715Y-89618301D01*
X160335715Y-89618301D02*
X160292858Y-89575444D01*
X160292858Y-89575444D02*
X160207143Y-89532587D01*
X160207143Y-89532587D02*
X159992858Y-89532587D01*
X159992858Y-89532587D02*
X159864286Y-89575444D01*
X159607143Y-89832587D02*
X159264286Y-89832587D01*
X159478572Y-89532587D02*
X159478572Y-90304015D01*
X159478572Y-90304015D02*
X159435715Y-90389730D01*
X159435715Y-90389730D02*
X159350000Y-90432587D01*
X159350000Y-90432587D02*
X159264286Y-90432587D01*
X158621429Y-90389730D02*
X158707143Y-90432587D01*
X158707143Y-90432587D02*
X158878572Y-90432587D01*
X158878572Y-90432587D02*
X158964286Y-90389730D01*
X158964286Y-90389730D02*
X159007143Y-90304015D01*
X159007143Y-90304015D02*
X159007143Y-89961158D01*
X159007143Y-89961158D02*
X158964286Y-89875444D01*
X158964286Y-89875444D02*
X158878572Y-89832587D01*
X158878572Y-89832587D02*
X158707143Y-89832587D01*
X158707143Y-89832587D02*
X158621429Y-89875444D01*
X158621429Y-89875444D02*
X158578572Y-89961158D01*
X158578572Y-89961158D02*
X158578572Y-90046872D01*
X158578572Y-90046872D02*
X159007143Y-90132587D01*
X158192857Y-89832587D02*
X158192857Y-90732587D01*
X158192857Y-89875444D02*
X158107143Y-89832587D01*
X158107143Y-89832587D02*
X157935714Y-89832587D01*
X157935714Y-89832587D02*
X157850000Y-89875444D01*
X157850000Y-89875444D02*
X157807143Y-89918301D01*
X157807143Y-89918301D02*
X157764285Y-90004015D01*
X157764285Y-90004015D02*
X157764285Y-90261158D01*
X157764285Y-90261158D02*
X157807143Y-90346872D01*
X157807143Y-90346872D02*
X157850000Y-90389730D01*
X157850000Y-90389730D02*
X157935714Y-90432587D01*
X157935714Y-90432587D02*
X158107143Y-90432587D01*
X158107143Y-90432587D02*
X158192857Y-90389730D01*
X157378571Y-89832587D02*
X157378571Y-90732587D01*
X157378571Y-89875444D02*
X157292857Y-89832587D01*
X157292857Y-89832587D02*
X157121428Y-89832587D01*
X157121428Y-89832587D02*
X157035714Y-89875444D01*
X157035714Y-89875444D02*
X156992857Y-89918301D01*
X156992857Y-89918301D02*
X156949999Y-90004015D01*
X156949999Y-90004015D02*
X156949999Y-90261158D01*
X156949999Y-90261158D02*
X156992857Y-90346872D01*
X156992857Y-90346872D02*
X157035714Y-90389730D01*
X157035714Y-90389730D02*
X157121428Y-90432587D01*
X157121428Y-90432587D02*
X157292857Y-90432587D01*
X157292857Y-90432587D02*
X157378571Y-90389730D01*
X156221428Y-90389730D02*
X156307142Y-90432587D01*
X156307142Y-90432587D02*
X156478571Y-90432587D01*
X156478571Y-90432587D02*
X156564285Y-90389730D01*
X156564285Y-90389730D02*
X156607142Y-90304015D01*
X156607142Y-90304015D02*
X156607142Y-89961158D01*
X156607142Y-89961158D02*
X156564285Y-89875444D01*
X156564285Y-89875444D02*
X156478571Y-89832587D01*
X156478571Y-89832587D02*
X156307142Y-89832587D01*
X156307142Y-89832587D02*
X156221428Y-89875444D01*
X156221428Y-89875444D02*
X156178571Y-89961158D01*
X156178571Y-89961158D02*
X156178571Y-90046872D01*
X156178571Y-90046872D02*
X156607142Y-90132587D01*
X155792856Y-90432587D02*
X155792856Y-89832587D01*
X155792856Y-90004015D02*
X155749999Y-89918301D01*
X155749999Y-89918301D02*
X155707142Y-89875444D01*
X155707142Y-89875444D02*
X155621427Y-89832587D01*
X155621427Y-89832587D02*
X155535713Y-89832587D01*
X159928571Y-91881537D02*
X159928571Y-90981537D01*
X159928571Y-90981537D02*
X159585714Y-90981537D01*
X159585714Y-90981537D02*
X159499999Y-91024394D01*
X159499999Y-91024394D02*
X159457142Y-91067251D01*
X159457142Y-91067251D02*
X159414285Y-91152965D01*
X159414285Y-91152965D02*
X159414285Y-91281537D01*
X159414285Y-91281537D02*
X159457142Y-91367251D01*
X159457142Y-91367251D02*
X159499999Y-91410108D01*
X159499999Y-91410108D02*
X159585714Y-91452965D01*
X159585714Y-91452965D02*
X159928571Y-91452965D01*
X159028571Y-91881537D02*
X159028571Y-91281537D01*
X159028571Y-90981537D02*
X159071428Y-91024394D01*
X159071428Y-91024394D02*
X159028571Y-91067251D01*
X159028571Y-91067251D02*
X158985714Y-91024394D01*
X158985714Y-91024394D02*
X159028571Y-90981537D01*
X159028571Y-90981537D02*
X159028571Y-91067251D01*
X158600000Y-91281537D02*
X158600000Y-91881537D01*
X158600000Y-91367251D02*
X158557143Y-91324394D01*
X158557143Y-91324394D02*
X158471428Y-91281537D01*
X158471428Y-91281537D02*
X158342857Y-91281537D01*
X158342857Y-91281537D02*
X158257143Y-91324394D01*
X158257143Y-91324394D02*
X158214286Y-91410108D01*
X158214286Y-91410108D02*
X158214286Y-91881537D01*
X157657142Y-91881537D02*
X157742857Y-91838680D01*
X157742857Y-91838680D02*
X157785714Y-91795822D01*
X157785714Y-91795822D02*
X157828571Y-91710108D01*
X157828571Y-91710108D02*
X157828571Y-91452965D01*
X157828571Y-91452965D02*
X157785714Y-91367251D01*
X157785714Y-91367251D02*
X157742857Y-91324394D01*
X157742857Y-91324394D02*
X157657142Y-91281537D01*
X157657142Y-91281537D02*
X157528571Y-91281537D01*
X157528571Y-91281537D02*
X157442857Y-91324394D01*
X157442857Y-91324394D02*
X157400000Y-91367251D01*
X157400000Y-91367251D02*
X157357142Y-91452965D01*
X157357142Y-91452965D02*
X157357142Y-91710108D01*
X157357142Y-91710108D02*
X157400000Y-91795822D01*
X157400000Y-91795822D02*
X157442857Y-91838680D01*
X157442857Y-91838680D02*
X157528571Y-91881537D01*
X157528571Y-91881537D02*
X157657142Y-91881537D01*
X156585714Y-91281537D02*
X156585714Y-91881537D01*
X156971428Y-91281537D02*
X156971428Y-91752965D01*
X156971428Y-91752965D02*
X156928571Y-91838680D01*
X156928571Y-91838680D02*
X156842856Y-91881537D01*
X156842856Y-91881537D02*
X156714285Y-91881537D01*
X156714285Y-91881537D02*
X156628571Y-91838680D01*
X156628571Y-91838680D02*
X156585714Y-91795822D01*
X156285713Y-91281537D02*
X155942856Y-91281537D01*
X156157142Y-90981537D02*
X156157142Y-91752965D01*
X156157142Y-91752965D02*
X156114285Y-91838680D01*
X156114285Y-91838680D02*
X156028570Y-91881537D01*
X156028570Y-91881537D02*
X155942856Y-91881537D01*
D10*
X161071115Y-94747419D02*
X161071115Y-93747419D01*
X161071115Y-93747419D02*
X160737782Y-94461704D01*
X160737782Y-94461704D02*
X160404449Y-93747419D01*
X160404449Y-93747419D02*
X160404449Y-94747419D01*
X159975877Y-93842657D02*
X159928258Y-93795038D01*
X159928258Y-93795038D02*
X159833020Y-93747419D01*
X159833020Y-93747419D02*
X159594925Y-93747419D01*
X159594925Y-93747419D02*
X159499687Y-93795038D01*
X159499687Y-93795038D02*
X159452068Y-93842657D01*
X159452068Y-93842657D02*
X159404449Y-93937895D01*
X159404449Y-93937895D02*
X159404449Y-94033133D01*
X159404449Y-94033133D02*
X159452068Y-94175990D01*
X159452068Y-94175990D02*
X160023496Y-94747419D01*
X160023496Y-94747419D02*
X159404449Y-94747419D01*
X158642544Y-94223609D02*
X158499687Y-94271228D01*
X158499687Y-94271228D02*
X158452068Y-94318847D01*
X158452068Y-94318847D02*
X158404449Y-94414085D01*
X158404449Y-94414085D02*
X158404449Y-94556942D01*
X158404449Y-94556942D02*
X158452068Y-94652180D01*
X158452068Y-94652180D02*
X158499687Y-94699800D01*
X158499687Y-94699800D02*
X158594925Y-94747419D01*
X158594925Y-94747419D02*
X158975877Y-94747419D01*
X158975877Y-94747419D02*
X158975877Y-93747419D01*
X158975877Y-93747419D02*
X158642544Y-93747419D01*
X158642544Y-93747419D02*
X158547306Y-93795038D01*
X158547306Y-93795038D02*
X158499687Y-93842657D01*
X158499687Y-93842657D02*
X158452068Y-93937895D01*
X158452068Y-93937895D02*
X158452068Y-94033133D01*
X158452068Y-94033133D02*
X158499687Y-94128371D01*
X158499687Y-94128371D02*
X158547306Y-94175990D01*
X158547306Y-94175990D02*
X158642544Y-94223609D01*
X158642544Y-94223609D02*
X158975877Y-94223609D01*
X157446115Y-96997419D02*
X157446115Y-95997419D01*
X157446115Y-95997419D02*
X157112782Y-96711704D01*
X157112782Y-96711704D02*
X156779449Y-95997419D01*
X156779449Y-95997419D02*
X156779449Y-96997419D01*
X155779449Y-96997419D02*
X156350877Y-96997419D01*
X156065163Y-96997419D02*
X156065163Y-95997419D01*
X156065163Y-95997419D02*
X156160401Y-96140276D01*
X156160401Y-96140276D02*
X156255639Y-96235514D01*
X156255639Y-96235514D02*
X156350877Y-96283133D01*
X155398496Y-96711704D02*
X154922306Y-96711704D01*
X155493734Y-96997419D02*
X155160401Y-95997419D01*
X155160401Y-95997419D02*
X154827068Y-96997419D01*
X166493734Y-105396895D02*
X166493734Y-104596895D01*
X166150877Y-105396895D02*
X166150877Y-104977847D01*
X166150877Y-104977847D02*
X166188972Y-104901657D01*
X166188972Y-104901657D02*
X166265163Y-104863561D01*
X166265163Y-104863561D02*
X166379449Y-104863561D01*
X166379449Y-104863561D02*
X166455639Y-104901657D01*
X166455639Y-104901657D02*
X166493734Y-104939752D01*
X165884210Y-104863561D02*
X165579448Y-104863561D01*
X165769924Y-104596895D02*
X165769924Y-105282609D01*
X165769924Y-105282609D02*
X165731829Y-105358800D01*
X165731829Y-105358800D02*
X165655639Y-105396895D01*
X165655639Y-105396895D02*
X165579448Y-105396895D01*
X165427067Y-104863561D02*
X165122305Y-104863561D01*
X165312781Y-104596895D02*
X165312781Y-105282609D01*
X165312781Y-105282609D02*
X165274686Y-105358800D01*
X165274686Y-105358800D02*
X165198496Y-105396895D01*
X165198496Y-105396895D02*
X165122305Y-105396895D01*
X164855638Y-104863561D02*
X164855638Y-105663561D01*
X164855638Y-104901657D02*
X164779448Y-104863561D01*
X164779448Y-104863561D02*
X164627067Y-104863561D01*
X164627067Y-104863561D02*
X164550876Y-104901657D01*
X164550876Y-104901657D02*
X164512781Y-104939752D01*
X164512781Y-104939752D02*
X164474686Y-105015942D01*
X164474686Y-105015942D02*
X164474686Y-105244514D01*
X164474686Y-105244514D02*
X164512781Y-105320704D01*
X164512781Y-105320704D02*
X164550876Y-105358800D01*
X164550876Y-105358800D02*
X164627067Y-105396895D01*
X164627067Y-105396895D02*
X164779448Y-105396895D01*
X164779448Y-105396895D02*
X164855638Y-105358800D01*
X164169924Y-105358800D02*
X164093733Y-105396895D01*
X164093733Y-105396895D02*
X163941352Y-105396895D01*
X163941352Y-105396895D02*
X163865162Y-105358800D01*
X163865162Y-105358800D02*
X163827066Y-105282609D01*
X163827066Y-105282609D02*
X163827066Y-105244514D01*
X163827066Y-105244514D02*
X163865162Y-105168323D01*
X163865162Y-105168323D02*
X163941352Y-105130228D01*
X163941352Y-105130228D02*
X164055638Y-105130228D01*
X164055638Y-105130228D02*
X164131828Y-105092133D01*
X164131828Y-105092133D02*
X164169924Y-105015942D01*
X164169924Y-105015942D02*
X164169924Y-104977847D01*
X164169924Y-104977847D02*
X164131828Y-104901657D01*
X164131828Y-104901657D02*
X164055638Y-104863561D01*
X164055638Y-104863561D02*
X163941352Y-104863561D01*
X163941352Y-104863561D02*
X163865162Y-104901657D01*
X163484209Y-105320704D02*
X163446114Y-105358800D01*
X163446114Y-105358800D02*
X163484209Y-105396895D01*
X163484209Y-105396895D02*
X163522305Y-105358800D01*
X163522305Y-105358800D02*
X163484209Y-105320704D01*
X163484209Y-105320704D02*
X163484209Y-105396895D01*
X163484209Y-104901657D02*
X163446114Y-104939752D01*
X163446114Y-104939752D02*
X163484209Y-104977847D01*
X163484209Y-104977847D02*
X163522305Y-104939752D01*
X163522305Y-104939752D02*
X163484209Y-104901657D01*
X163484209Y-104901657D02*
X163484209Y-104977847D01*
X162531829Y-104558800D02*
X163217543Y-105587371D01*
X161693734Y-104558800D02*
X162379448Y-105587371D01*
X161084210Y-104863561D02*
X161084210Y-105511180D01*
X161084210Y-105511180D02*
X161122305Y-105587371D01*
X161122305Y-105587371D02*
X161160401Y-105625466D01*
X161160401Y-105625466D02*
X161236591Y-105663561D01*
X161236591Y-105663561D02*
X161350877Y-105663561D01*
X161350877Y-105663561D02*
X161427067Y-105625466D01*
X161084210Y-105358800D02*
X161160401Y-105396895D01*
X161160401Y-105396895D02*
X161312782Y-105396895D01*
X161312782Y-105396895D02*
X161388972Y-105358800D01*
X161388972Y-105358800D02*
X161427067Y-105320704D01*
X161427067Y-105320704D02*
X161465163Y-105244514D01*
X161465163Y-105244514D02*
X161465163Y-105015942D01*
X161465163Y-105015942D02*
X161427067Y-104939752D01*
X161427067Y-104939752D02*
X161388972Y-104901657D01*
X161388972Y-104901657D02*
X161312782Y-104863561D01*
X161312782Y-104863561D02*
X161160401Y-104863561D01*
X161160401Y-104863561D02*
X161084210Y-104901657D01*
X160703257Y-105396895D02*
X160703257Y-104863561D01*
X160703257Y-104596895D02*
X160741353Y-104634990D01*
X160741353Y-104634990D02*
X160703257Y-104673085D01*
X160703257Y-104673085D02*
X160665162Y-104634990D01*
X160665162Y-104634990D02*
X160703257Y-104596895D01*
X160703257Y-104596895D02*
X160703257Y-104673085D01*
X160436591Y-104863561D02*
X160131829Y-104863561D01*
X160322305Y-104596895D02*
X160322305Y-105282609D01*
X160322305Y-105282609D02*
X160284210Y-105358800D01*
X160284210Y-105358800D02*
X160208020Y-105396895D01*
X160208020Y-105396895D02*
X160131829Y-105396895D01*
X159865162Y-105396895D02*
X159865162Y-104596895D01*
X159522305Y-105396895D02*
X159522305Y-104977847D01*
X159522305Y-104977847D02*
X159560400Y-104901657D01*
X159560400Y-104901657D02*
X159636591Y-104863561D01*
X159636591Y-104863561D02*
X159750877Y-104863561D01*
X159750877Y-104863561D02*
X159827067Y-104901657D01*
X159827067Y-104901657D02*
X159865162Y-104939752D01*
X158798495Y-104863561D02*
X158798495Y-105396895D01*
X159141352Y-104863561D02*
X159141352Y-105282609D01*
X159141352Y-105282609D02*
X159103257Y-105358800D01*
X159103257Y-105358800D02*
X159027067Y-105396895D01*
X159027067Y-105396895D02*
X158912781Y-105396895D01*
X158912781Y-105396895D02*
X158836590Y-105358800D01*
X158836590Y-105358800D02*
X158798495Y-105320704D01*
X158417542Y-105396895D02*
X158417542Y-104596895D01*
X158417542Y-104901657D02*
X158341352Y-104863561D01*
X158341352Y-104863561D02*
X158188971Y-104863561D01*
X158188971Y-104863561D02*
X158112780Y-104901657D01*
X158112780Y-104901657D02*
X158074685Y-104939752D01*
X158074685Y-104939752D02*
X158036590Y-105015942D01*
X158036590Y-105015942D02*
X158036590Y-105244514D01*
X158036590Y-105244514D02*
X158074685Y-105320704D01*
X158074685Y-105320704D02*
X158112780Y-105358800D01*
X158112780Y-105358800D02*
X158188971Y-105396895D01*
X158188971Y-105396895D02*
X158341352Y-105396895D01*
X158341352Y-105396895D02*
X158417542Y-105358800D01*
X157693732Y-105320704D02*
X157655637Y-105358800D01*
X157655637Y-105358800D02*
X157693732Y-105396895D01*
X157693732Y-105396895D02*
X157731828Y-105358800D01*
X157731828Y-105358800D02*
X157693732Y-105320704D01*
X157693732Y-105320704D02*
X157693732Y-105396895D01*
X156969923Y-105358800D02*
X157046114Y-105396895D01*
X157046114Y-105396895D02*
X157198495Y-105396895D01*
X157198495Y-105396895D02*
X157274685Y-105358800D01*
X157274685Y-105358800D02*
X157312780Y-105320704D01*
X157312780Y-105320704D02*
X157350876Y-105244514D01*
X157350876Y-105244514D02*
X157350876Y-105015942D01*
X157350876Y-105015942D02*
X157312780Y-104939752D01*
X157312780Y-104939752D02*
X157274685Y-104901657D01*
X157274685Y-104901657D02*
X157198495Y-104863561D01*
X157198495Y-104863561D02*
X157046114Y-104863561D01*
X157046114Y-104863561D02*
X156969923Y-104901657D01*
X156512781Y-105396895D02*
X156588971Y-105358800D01*
X156588971Y-105358800D02*
X156627066Y-105320704D01*
X156627066Y-105320704D02*
X156665162Y-105244514D01*
X156665162Y-105244514D02*
X156665162Y-105015942D01*
X156665162Y-105015942D02*
X156627066Y-104939752D01*
X156627066Y-104939752D02*
X156588971Y-104901657D01*
X156588971Y-104901657D02*
X156512781Y-104863561D01*
X156512781Y-104863561D02*
X156398495Y-104863561D01*
X156398495Y-104863561D02*
X156322304Y-104901657D01*
X156322304Y-104901657D02*
X156284209Y-104939752D01*
X156284209Y-104939752D02*
X156246114Y-105015942D01*
X156246114Y-105015942D02*
X156246114Y-105244514D01*
X156246114Y-105244514D02*
X156284209Y-105320704D01*
X156284209Y-105320704D02*
X156322304Y-105358800D01*
X156322304Y-105358800D02*
X156398495Y-105396895D01*
X156398495Y-105396895D02*
X156512781Y-105396895D01*
X155903256Y-105396895D02*
X155903256Y-104863561D01*
X155903256Y-104939752D02*
X155865161Y-104901657D01*
X155865161Y-104901657D02*
X155788971Y-104863561D01*
X155788971Y-104863561D02*
X155674685Y-104863561D01*
X155674685Y-104863561D02*
X155598494Y-104901657D01*
X155598494Y-104901657D02*
X155560399Y-104977847D01*
X155560399Y-104977847D02*
X155560399Y-105396895D01*
X155560399Y-104977847D02*
X155522304Y-104901657D01*
X155522304Y-104901657D02*
X155446113Y-104863561D01*
X155446113Y-104863561D02*
X155331828Y-104863561D01*
X155331828Y-104863561D02*
X155255637Y-104901657D01*
X155255637Y-104901657D02*
X155217542Y-104977847D01*
X155217542Y-104977847D02*
X155217542Y-105396895D01*
X154265161Y-104558800D02*
X154950875Y-105587371D01*
X154074685Y-104863561D02*
X153884209Y-105396895D01*
X153884209Y-105396895D02*
X153693732Y-104863561D01*
X153427066Y-105358800D02*
X153350875Y-105396895D01*
X153350875Y-105396895D02*
X153198494Y-105396895D01*
X153198494Y-105396895D02*
X153122304Y-105358800D01*
X153122304Y-105358800D02*
X153084208Y-105282609D01*
X153084208Y-105282609D02*
X153084208Y-105244514D01*
X153084208Y-105244514D02*
X153122304Y-105168323D01*
X153122304Y-105168323D02*
X153198494Y-105130228D01*
X153198494Y-105130228D02*
X153312780Y-105130228D01*
X153312780Y-105130228D02*
X153388970Y-105092133D01*
X153388970Y-105092133D02*
X153427066Y-105015942D01*
X153427066Y-105015942D02*
X153427066Y-104977847D01*
X153427066Y-104977847D02*
X153388970Y-104901657D01*
X153388970Y-104901657D02*
X153312780Y-104863561D01*
X153312780Y-104863561D02*
X153198494Y-104863561D01*
X153198494Y-104863561D02*
X153122304Y-104901657D01*
X152741351Y-105396895D02*
X152741351Y-104863561D01*
X152741351Y-104596895D02*
X152779447Y-104634990D01*
X152779447Y-104634990D02*
X152741351Y-104673085D01*
X152741351Y-104673085D02*
X152703256Y-104634990D01*
X152703256Y-104634990D02*
X152741351Y-104596895D01*
X152741351Y-104596895D02*
X152741351Y-104673085D01*
X151979447Y-104596895D02*
X152360399Y-104596895D01*
X152360399Y-104596895D02*
X152398495Y-104977847D01*
X152398495Y-104977847D02*
X152360399Y-104939752D01*
X152360399Y-104939752D02*
X152284209Y-104901657D01*
X152284209Y-104901657D02*
X152093733Y-104901657D01*
X152093733Y-104901657D02*
X152017542Y-104939752D01*
X152017542Y-104939752D02*
X151979447Y-104977847D01*
X151979447Y-104977847D02*
X151941352Y-105054038D01*
X151941352Y-105054038D02*
X151941352Y-105244514D01*
X151941352Y-105244514D02*
X151979447Y-105320704D01*
X151979447Y-105320704D02*
X152017542Y-105358800D01*
X152017542Y-105358800D02*
X152093733Y-105396895D01*
X152093733Y-105396895D02*
X152284209Y-105396895D01*
X152284209Y-105396895D02*
X152360399Y-105358800D01*
X152360399Y-105358800D02*
X152398495Y-105320704D01*
X151446113Y-104596895D02*
X151369923Y-104596895D01*
X151369923Y-104596895D02*
X151293732Y-104634990D01*
X151293732Y-104634990D02*
X151255637Y-104673085D01*
X151255637Y-104673085D02*
X151217542Y-104749276D01*
X151217542Y-104749276D02*
X151179447Y-104901657D01*
X151179447Y-104901657D02*
X151179447Y-105092133D01*
X151179447Y-105092133D02*
X151217542Y-105244514D01*
X151217542Y-105244514D02*
X151255637Y-105320704D01*
X151255637Y-105320704D02*
X151293732Y-105358800D01*
X151293732Y-105358800D02*
X151369923Y-105396895D01*
X151369923Y-105396895D02*
X151446113Y-105396895D01*
X151446113Y-105396895D02*
X151522304Y-105358800D01*
X151522304Y-105358800D02*
X151560399Y-105320704D01*
X151560399Y-105320704D02*
X151598494Y-105244514D01*
X151598494Y-105244514D02*
X151636590Y-105092133D01*
X151636590Y-105092133D02*
X151636590Y-104901657D01*
X151636590Y-104901657D02*
X151598494Y-104749276D01*
X151598494Y-104749276D02*
X151560399Y-104673085D01*
X151560399Y-104673085D02*
X151522304Y-104634990D01*
X151522304Y-104634990D02*
X151446113Y-104596895D01*
X150684208Y-104596895D02*
X150608018Y-104596895D01*
X150608018Y-104596895D02*
X150531827Y-104634990D01*
X150531827Y-104634990D02*
X150493732Y-104673085D01*
X150493732Y-104673085D02*
X150455637Y-104749276D01*
X150455637Y-104749276D02*
X150417542Y-104901657D01*
X150417542Y-104901657D02*
X150417542Y-105092133D01*
X150417542Y-105092133D02*
X150455637Y-105244514D01*
X150455637Y-105244514D02*
X150493732Y-105320704D01*
X150493732Y-105320704D02*
X150531827Y-105358800D01*
X150531827Y-105358800D02*
X150608018Y-105396895D01*
X150608018Y-105396895D02*
X150684208Y-105396895D01*
X150684208Y-105396895D02*
X150760399Y-105358800D01*
X150760399Y-105358800D02*
X150798494Y-105320704D01*
X150798494Y-105320704D02*
X150836589Y-105244514D01*
X150836589Y-105244514D02*
X150874685Y-105092133D01*
X150874685Y-105092133D02*
X150874685Y-104901657D01*
X150874685Y-104901657D02*
X150836589Y-104749276D01*
X150836589Y-104749276D02*
X150798494Y-104673085D01*
X150798494Y-104673085D02*
X150760399Y-104634990D01*
X150760399Y-104634990D02*
X150684208Y-104596895D01*
X149731827Y-104863561D02*
X149731827Y-105396895D01*
X149922303Y-104558800D02*
X150112780Y-105130228D01*
X150112780Y-105130228D02*
X149617541Y-105130228D01*
X148741351Y-104558800D02*
X149427065Y-105587371D01*
X148017541Y-105396895D02*
X148284208Y-105015942D01*
X148474684Y-105396895D02*
X148474684Y-104596895D01*
X148474684Y-104596895D02*
X148169922Y-104596895D01*
X148169922Y-104596895D02*
X148093732Y-104634990D01*
X148093732Y-104634990D02*
X148055637Y-104673085D01*
X148055637Y-104673085D02*
X148017541Y-104749276D01*
X148017541Y-104749276D02*
X148017541Y-104863561D01*
X148017541Y-104863561D02*
X148055637Y-104939752D01*
X148055637Y-104939752D02*
X148093732Y-104977847D01*
X148093732Y-104977847D02*
X148169922Y-105015942D01*
X148169922Y-105015942D02*
X148474684Y-105015942D01*
X147674684Y-105396895D02*
X147674684Y-104596895D01*
X147674684Y-104596895D02*
X147369922Y-104596895D01*
X147369922Y-104596895D02*
X147293732Y-104634990D01*
X147293732Y-104634990D02*
X147255637Y-104673085D01*
X147255637Y-104673085D02*
X147217541Y-104749276D01*
X147217541Y-104749276D02*
X147217541Y-104863561D01*
X147217541Y-104863561D02*
X147255637Y-104939752D01*
X147255637Y-104939752D02*
X147293732Y-104977847D01*
X147293732Y-104977847D02*
X147369922Y-105015942D01*
X147369922Y-105015942D02*
X147674684Y-105015942D01*
X146874684Y-105396895D02*
X146874684Y-104863561D01*
X146874684Y-104596895D02*
X146912780Y-104634990D01*
X146912780Y-104634990D02*
X146874684Y-104673085D01*
X146874684Y-104673085D02*
X146836589Y-104634990D01*
X146836589Y-104634990D02*
X146874684Y-104596895D01*
X146874684Y-104596895D02*
X146874684Y-104673085D01*
X146112780Y-105396895D02*
X146493732Y-105396895D01*
X146493732Y-105396895D02*
X146493732Y-104596895D01*
X145846113Y-105396895D02*
X145846113Y-104863561D01*
X145846113Y-104596895D02*
X145884209Y-104634990D01*
X145884209Y-104634990D02*
X145846113Y-104673085D01*
X145846113Y-104673085D02*
X145808018Y-104634990D01*
X145808018Y-104634990D02*
X145846113Y-104596895D01*
X145846113Y-104596895D02*
X145846113Y-104673085D01*
X145465161Y-104863561D02*
X145465161Y-105396895D01*
X145465161Y-104939752D02*
X145427066Y-104901657D01*
X145427066Y-104901657D02*
X145350876Y-104863561D01*
X145350876Y-104863561D02*
X145236590Y-104863561D01*
X145236590Y-104863561D02*
X145160399Y-104901657D01*
X145160399Y-104901657D02*
X145122304Y-104977847D01*
X145122304Y-104977847D02*
X145122304Y-105396895D01*
X144436589Y-105358800D02*
X144512780Y-105396895D01*
X144512780Y-105396895D02*
X144665161Y-105396895D01*
X144665161Y-105396895D02*
X144741351Y-105358800D01*
X144741351Y-105358800D02*
X144779447Y-105282609D01*
X144779447Y-105282609D02*
X144779447Y-104977847D01*
X144779447Y-104977847D02*
X144741351Y-104901657D01*
X144741351Y-104901657D02*
X144665161Y-104863561D01*
X144665161Y-104863561D02*
X144512780Y-104863561D01*
X144512780Y-104863561D02*
X144436589Y-104901657D01*
X144436589Y-104901657D02*
X144398494Y-104977847D01*
X144398494Y-104977847D02*
X144398494Y-105054038D01*
X144398494Y-105054038D02*
X144779447Y-105130228D01*
X143712780Y-105396895D02*
X143712780Y-104977847D01*
X143712780Y-104977847D02*
X143750875Y-104901657D01*
X143750875Y-104901657D02*
X143827066Y-104863561D01*
X143827066Y-104863561D02*
X143979447Y-104863561D01*
X143979447Y-104863561D02*
X144055637Y-104901657D01*
X143712780Y-105358800D02*
X143788971Y-105396895D01*
X143788971Y-105396895D02*
X143979447Y-105396895D01*
X143979447Y-105396895D02*
X144055637Y-105358800D01*
X144055637Y-105358800D02*
X144093733Y-105282609D01*
X144093733Y-105282609D02*
X144093733Y-105206419D01*
X144093733Y-105206419D02*
X144055637Y-105130228D01*
X144055637Y-105130228D02*
X143979447Y-105092133D01*
X143979447Y-105092133D02*
X143788971Y-105092133D01*
X143788971Y-105092133D02*
X143712780Y-105054038D01*
X143331827Y-105396895D02*
X143331827Y-104863561D01*
X143331827Y-105015942D02*
X143293732Y-104939752D01*
X143293732Y-104939752D02*
X143255637Y-104901657D01*
X143255637Y-104901657D02*
X143179446Y-104863561D01*
X143179446Y-104863561D02*
X143103256Y-104863561D01*
X142874685Y-105358800D02*
X142760399Y-105396895D01*
X142760399Y-105396895D02*
X142569923Y-105396895D01*
X142569923Y-105396895D02*
X142493732Y-105358800D01*
X142493732Y-105358800D02*
X142455637Y-105320704D01*
X142455637Y-105320704D02*
X142417542Y-105244514D01*
X142417542Y-105244514D02*
X142417542Y-105168323D01*
X142417542Y-105168323D02*
X142455637Y-105092133D01*
X142455637Y-105092133D02*
X142493732Y-105054038D01*
X142493732Y-105054038D02*
X142569923Y-105015942D01*
X142569923Y-105015942D02*
X142722304Y-104977847D01*
X142722304Y-104977847D02*
X142798494Y-104939752D01*
X142798494Y-104939752D02*
X142836589Y-104901657D01*
X142836589Y-104901657D02*
X142874685Y-104825466D01*
X142874685Y-104825466D02*
X142874685Y-104749276D01*
X142874685Y-104749276D02*
X142836589Y-104673085D01*
X142836589Y-104673085D02*
X142798494Y-104634990D01*
X142798494Y-104634990D02*
X142722304Y-104596895D01*
X142722304Y-104596895D02*
X142531827Y-104596895D01*
X142531827Y-104596895D02*
X142417542Y-104634990D01*
X141769922Y-105358800D02*
X141846113Y-105396895D01*
X141846113Y-105396895D02*
X141998494Y-105396895D01*
X141998494Y-105396895D02*
X142074684Y-105358800D01*
X142074684Y-105358800D02*
X142112780Y-105282609D01*
X142112780Y-105282609D02*
X142112780Y-104977847D01*
X142112780Y-104977847D02*
X142074684Y-104901657D01*
X142074684Y-104901657D02*
X141998494Y-104863561D01*
X141998494Y-104863561D02*
X141846113Y-104863561D01*
X141846113Y-104863561D02*
X141769922Y-104901657D01*
X141769922Y-104901657D02*
X141731827Y-104977847D01*
X141731827Y-104977847D02*
X141731827Y-105054038D01*
X141731827Y-105054038D02*
X142112780Y-105130228D01*
X141388970Y-105396895D02*
X141388970Y-104863561D01*
X141388970Y-105015942D02*
X141350875Y-104939752D01*
X141350875Y-104939752D02*
X141312780Y-104901657D01*
X141312780Y-104901657D02*
X141236589Y-104863561D01*
X141236589Y-104863561D02*
X141160399Y-104863561D01*
X140969923Y-104863561D02*
X140779447Y-105396895D01*
X140779447Y-105396895D02*
X140588970Y-104863561D01*
X140169923Y-105396895D02*
X140246113Y-105358800D01*
X140246113Y-105358800D02*
X140284208Y-105320704D01*
X140284208Y-105320704D02*
X140322304Y-105244514D01*
X140322304Y-105244514D02*
X140322304Y-105015942D01*
X140322304Y-105015942D02*
X140284208Y-104939752D01*
X140284208Y-104939752D02*
X140246113Y-104901657D01*
X140246113Y-104901657D02*
X140169923Y-104863561D01*
X140169923Y-104863561D02*
X140055637Y-104863561D01*
X140055637Y-104863561D02*
X139979446Y-104901657D01*
X139979446Y-104901657D02*
X139941351Y-104939752D01*
X139941351Y-104939752D02*
X139903256Y-105015942D01*
X139903256Y-105015942D02*
X139903256Y-105244514D01*
X139903256Y-105244514D02*
X139941351Y-105320704D01*
X139941351Y-105320704D02*
X139979446Y-105358800D01*
X139979446Y-105358800D02*
X140055637Y-105396895D01*
X140055637Y-105396895D02*
X140169923Y-105396895D01*
X161071115Y-96997419D02*
X161071115Y-95997419D01*
X161071115Y-95997419D02*
X160737782Y-96711704D01*
X160737782Y-96711704D02*
X160404449Y-95997419D01*
X160404449Y-95997419D02*
X160404449Y-96997419D01*
X159975877Y-96092657D02*
X159928258Y-96045038D01*
X159928258Y-96045038D02*
X159833020Y-95997419D01*
X159833020Y-95997419D02*
X159594925Y-95997419D01*
X159594925Y-95997419D02*
X159499687Y-96045038D01*
X159499687Y-96045038D02*
X159452068Y-96092657D01*
X159452068Y-96092657D02*
X159404449Y-96187895D01*
X159404449Y-96187895D02*
X159404449Y-96283133D01*
X159404449Y-96283133D02*
X159452068Y-96425990D01*
X159452068Y-96425990D02*
X160023496Y-96997419D01*
X160023496Y-96997419D02*
X159404449Y-96997419D01*
X159023496Y-96711704D02*
X158547306Y-96711704D01*
X159118734Y-96997419D02*
X158785401Y-95997419D01*
X158785401Y-95997419D02*
X158452068Y-96997419D01*
X157446115Y-94747419D02*
X157446115Y-93747419D01*
X157446115Y-93747419D02*
X157112782Y-94461704D01*
X157112782Y-94461704D02*
X156779449Y-93747419D01*
X156779449Y-93747419D02*
X156779449Y-94747419D01*
X155779449Y-94747419D02*
X156350877Y-94747419D01*
X156065163Y-94747419D02*
X156065163Y-93747419D01*
X156065163Y-93747419D02*
X156160401Y-93890276D01*
X156160401Y-93890276D02*
X156255639Y-93985514D01*
X156255639Y-93985514D02*
X156350877Y-94033133D01*
X155017544Y-94223609D02*
X154874687Y-94271228D01*
X154874687Y-94271228D02*
X154827068Y-94318847D01*
X154827068Y-94318847D02*
X154779449Y-94414085D01*
X154779449Y-94414085D02*
X154779449Y-94556942D01*
X154779449Y-94556942D02*
X154827068Y-94652180D01*
X154827068Y-94652180D02*
X154874687Y-94699800D01*
X154874687Y-94699800D02*
X154969925Y-94747419D01*
X154969925Y-94747419D02*
X155350877Y-94747419D01*
X155350877Y-94747419D02*
X155350877Y-93747419D01*
X155350877Y-93747419D02*
X155017544Y-93747419D01*
X155017544Y-93747419D02*
X154922306Y-93795038D01*
X154922306Y-93795038D02*
X154874687Y-93842657D01*
X154874687Y-93842657D02*
X154827068Y-93937895D01*
X154827068Y-93937895D02*
X154827068Y-94033133D01*
X154827068Y-94033133D02*
X154874687Y-94128371D01*
X154874687Y-94128371D02*
X154922306Y-94175990D01*
X154922306Y-94175990D02*
X155017544Y-94223609D01*
X155017544Y-94223609D02*
X155350877Y-94223609D01*
D12*
X163416666Y-98359580D02*
X163464285Y-98407200D01*
X163464285Y-98407200D02*
X163607142Y-98454819D01*
X163607142Y-98454819D02*
X163702380Y-98454819D01*
X163702380Y-98454819D02*
X163845237Y-98407200D01*
X163845237Y-98407200D02*
X163940475Y-98311961D01*
X163940475Y-98311961D02*
X163988094Y-98216723D01*
X163988094Y-98216723D02*
X164035713Y-98026247D01*
X164035713Y-98026247D02*
X164035713Y-97883390D01*
X164035713Y-97883390D02*
X163988094Y-97692914D01*
X163988094Y-97692914D02*
X163940475Y-97597676D01*
X163940475Y-97597676D02*
X163845237Y-97502438D01*
X163845237Y-97502438D02*
X163702380Y-97454819D01*
X163702380Y-97454819D02*
X163607142Y-97454819D01*
X163607142Y-97454819D02*
X163464285Y-97502438D01*
X163464285Y-97502438D02*
X163416666Y-97550057D01*
X162559523Y-97454819D02*
X162749999Y-97454819D01*
X162749999Y-97454819D02*
X162845237Y-97502438D01*
X162845237Y-97502438D02*
X162892856Y-97550057D01*
X162892856Y-97550057D02*
X162988094Y-97692914D01*
X162988094Y-97692914D02*
X163035713Y-97883390D01*
X163035713Y-97883390D02*
X163035713Y-98264342D01*
X163035713Y-98264342D02*
X162988094Y-98359580D01*
X162988094Y-98359580D02*
X162940475Y-98407200D01*
X162940475Y-98407200D02*
X162845237Y-98454819D01*
X162845237Y-98454819D02*
X162654761Y-98454819D01*
X162654761Y-98454819D02*
X162559523Y-98407200D01*
X162559523Y-98407200D02*
X162511904Y-98359580D01*
X162511904Y-98359580D02*
X162464285Y-98264342D01*
X162464285Y-98264342D02*
X162464285Y-98026247D01*
X162464285Y-98026247D02*
X162511904Y-97931009D01*
X162511904Y-97931009D02*
X162559523Y-97883390D01*
X162559523Y-97883390D02*
X162654761Y-97835771D01*
X162654761Y-97835771D02*
X162845237Y-97835771D01*
X162845237Y-97835771D02*
X162940475Y-97883390D01*
X162940475Y-97883390D02*
X162988094Y-97931009D01*
X162988094Y-97931009D02*
X163035713Y-98026247D01*
X135666666Y-96199580D02*
X135714285Y-96247200D01*
X135714285Y-96247200D02*
X135857142Y-96294819D01*
X135857142Y-96294819D02*
X135952380Y-96294819D01*
X135952380Y-96294819D02*
X136095237Y-96247200D01*
X136095237Y-96247200D02*
X136190475Y-96151961D01*
X136190475Y-96151961D02*
X136238094Y-96056723D01*
X136238094Y-96056723D02*
X136285713Y-95866247D01*
X136285713Y-95866247D02*
X136285713Y-95723390D01*
X136285713Y-95723390D02*
X136238094Y-95532914D01*
X136238094Y-95532914D02*
X136190475Y-95437676D01*
X136190475Y-95437676D02*
X136095237Y-95342438D01*
X136095237Y-95342438D02*
X135952380Y-95294819D01*
X135952380Y-95294819D02*
X135857142Y-95294819D01*
X135857142Y-95294819D02*
X135714285Y-95342438D01*
X135714285Y-95342438D02*
X135666666Y-95390057D01*
X134809523Y-95628152D02*
X134809523Y-96294819D01*
X135047618Y-95247200D02*
X135285713Y-95961485D01*
X135285713Y-95961485D02*
X134666666Y-95961485D01*
X133166666Y-103359580D02*
X133214285Y-103407200D01*
X133214285Y-103407200D02*
X133357142Y-103454819D01*
X133357142Y-103454819D02*
X133452380Y-103454819D01*
X133452380Y-103454819D02*
X133595237Y-103407200D01*
X133595237Y-103407200D02*
X133690475Y-103311961D01*
X133690475Y-103311961D02*
X133738094Y-103216723D01*
X133738094Y-103216723D02*
X133785713Y-103026247D01*
X133785713Y-103026247D02*
X133785713Y-102883390D01*
X133785713Y-102883390D02*
X133738094Y-102692914D01*
X133738094Y-102692914D02*
X133690475Y-102597676D01*
X133690475Y-102597676D02*
X133595237Y-102502438D01*
X133595237Y-102502438D02*
X133452380Y-102454819D01*
X133452380Y-102454819D02*
X133357142Y-102454819D01*
X133357142Y-102454819D02*
X133214285Y-102502438D01*
X133214285Y-102502438D02*
X133166666Y-102550057D01*
X132261904Y-102454819D02*
X132738094Y-102454819D01*
X132738094Y-102454819D02*
X132785713Y-102931009D01*
X132785713Y-102931009D02*
X132738094Y-102883390D01*
X132738094Y-102883390D02*
X132642856Y-102835771D01*
X132642856Y-102835771D02*
X132404761Y-102835771D01*
X132404761Y-102835771D02*
X132309523Y-102883390D01*
X132309523Y-102883390D02*
X132261904Y-102931009D01*
X132261904Y-102931009D02*
X132214285Y-103026247D01*
X132214285Y-103026247D02*
X132214285Y-103264342D01*
X132214285Y-103264342D02*
X132261904Y-103359580D01*
X132261904Y-103359580D02*
X132309523Y-103407200D01*
X132309523Y-103407200D02*
X132404761Y-103454819D01*
X132404761Y-103454819D02*
X132642856Y-103454819D01*
X132642856Y-103454819D02*
X132738094Y-103407200D01*
X132738094Y-103407200D02*
X132785713Y-103359580D01*
X158333333Y-82954819D02*
X158333333Y-83669104D01*
X158333333Y-83669104D02*
X158380952Y-83811961D01*
X158380952Y-83811961D02*
X158476190Y-83907200D01*
X158476190Y-83907200D02*
X158619047Y-83954819D01*
X158619047Y-83954819D02*
X158714285Y-83954819D01*
X157904761Y-83050057D02*
X157857142Y-83002438D01*
X157857142Y-83002438D02*
X157761904Y-82954819D01*
X157761904Y-82954819D02*
X157523809Y-82954819D01*
X157523809Y-82954819D02*
X157428571Y-83002438D01*
X157428571Y-83002438D02*
X157380952Y-83050057D01*
X157380952Y-83050057D02*
X157333333Y-83145295D01*
X157333333Y-83145295D02*
X157333333Y-83240533D01*
X157333333Y-83240533D02*
X157380952Y-83383390D01*
X157380952Y-83383390D02*
X157952380Y-83954819D01*
X157952380Y-83954819D02*
X157333333Y-83954819D01*
X162988094Y-85204819D02*
X162988094Y-84204819D01*
X162988094Y-84204819D02*
X162749999Y-84204819D01*
X162749999Y-84204819D02*
X162607142Y-84252438D01*
X162607142Y-84252438D02*
X162511904Y-84347676D01*
X162511904Y-84347676D02*
X162464285Y-84442914D01*
X162464285Y-84442914D02*
X162416666Y-84633390D01*
X162416666Y-84633390D02*
X162416666Y-84776247D01*
X162416666Y-84776247D02*
X162464285Y-84966723D01*
X162464285Y-84966723D02*
X162511904Y-85061961D01*
X162511904Y-85061961D02*
X162607142Y-85157200D01*
X162607142Y-85157200D02*
X162749999Y-85204819D01*
X162749999Y-85204819D02*
X162988094Y-85204819D01*
X161464285Y-85204819D02*
X162035713Y-85204819D01*
X161749999Y-85204819D02*
X161749999Y-84204819D01*
X161749999Y-84204819D02*
X161845237Y-84347676D01*
X161845237Y-84347676D02*
X161940475Y-84442914D01*
X161940475Y-84442914D02*
X162035713Y-84490533D01*
X167511904Y-96854819D02*
X167511904Y-97664342D01*
X167511904Y-97664342D02*
X167464285Y-97759580D01*
X167464285Y-97759580D02*
X167416666Y-97807200D01*
X167416666Y-97807200D02*
X167321428Y-97854819D01*
X167321428Y-97854819D02*
X167130952Y-97854819D01*
X167130952Y-97854819D02*
X167035714Y-97807200D01*
X167035714Y-97807200D02*
X166988095Y-97759580D01*
X166988095Y-97759580D02*
X166940476Y-97664342D01*
X166940476Y-97664342D02*
X166940476Y-96854819D01*
X166035714Y-97188152D02*
X166035714Y-97854819D01*
X166273809Y-96807200D02*
X166511904Y-97521485D01*
X166511904Y-97521485D02*
X165892857Y-97521485D01*
X137166666Y-105042319D02*
X137499999Y-104566128D01*
X137738094Y-105042319D02*
X137738094Y-104042319D01*
X137738094Y-104042319D02*
X137357142Y-104042319D01*
X137357142Y-104042319D02*
X137261904Y-104089938D01*
X137261904Y-104089938D02*
X137214285Y-104137557D01*
X137214285Y-104137557D02*
X137166666Y-104232795D01*
X137166666Y-104232795D02*
X137166666Y-104375652D01*
X137166666Y-104375652D02*
X137214285Y-104470890D01*
X137214285Y-104470890D02*
X137261904Y-104518509D01*
X137261904Y-104518509D02*
X137357142Y-104566128D01*
X137357142Y-104566128D02*
X137738094Y-104566128D01*
X136785713Y-104137557D02*
X136738094Y-104089938D01*
X136738094Y-104089938D02*
X136642856Y-104042319D01*
X136642856Y-104042319D02*
X136404761Y-104042319D01*
X136404761Y-104042319D02*
X136309523Y-104089938D01*
X136309523Y-104089938D02*
X136261904Y-104137557D01*
X136261904Y-104137557D02*
X136214285Y-104232795D01*
X136214285Y-104232795D02*
X136214285Y-104328033D01*
X136214285Y-104328033D02*
X136261904Y-104470890D01*
X136261904Y-104470890D02*
X136833332Y-105042319D01*
X136833332Y-105042319D02*
X136214285Y-105042319D01*
X133761904Y-99454819D02*
X133761904Y-100264342D01*
X133761904Y-100264342D02*
X133714285Y-100359580D01*
X133714285Y-100359580D02*
X133666666Y-100407200D01*
X133666666Y-100407200D02*
X133571428Y-100454819D01*
X133571428Y-100454819D02*
X133380952Y-100454819D01*
X133380952Y-100454819D02*
X133285714Y-100407200D01*
X133285714Y-100407200D02*
X133238095Y-100359580D01*
X133238095Y-100359580D02*
X133190476Y-100264342D01*
X133190476Y-100264342D02*
X133190476Y-99454819D01*
X132809523Y-99454819D02*
X132190476Y-99454819D01*
X132190476Y-99454819D02*
X132523809Y-99835771D01*
X132523809Y-99835771D02*
X132380952Y-99835771D01*
X132380952Y-99835771D02*
X132285714Y-99883390D01*
X132285714Y-99883390D02*
X132238095Y-99931009D01*
X132238095Y-99931009D02*
X132190476Y-100026247D01*
X132190476Y-100026247D02*
X132190476Y-100264342D01*
X132190476Y-100264342D02*
X132238095Y-100359580D01*
X132238095Y-100359580D02*
X132285714Y-100407200D01*
X132285714Y-100407200D02*
X132380952Y-100454819D01*
X132380952Y-100454819D02*
X132666666Y-100454819D01*
X132666666Y-100454819D02*
X132761904Y-100407200D01*
X132761904Y-100407200D02*
X132809523Y-100359580D01*
X163416666Y-90704819D02*
X163749999Y-90228628D01*
X163988094Y-90704819D02*
X163988094Y-89704819D01*
X163988094Y-89704819D02*
X163607142Y-89704819D01*
X163607142Y-89704819D02*
X163511904Y-89752438D01*
X163511904Y-89752438D02*
X163464285Y-89800057D01*
X163464285Y-89800057D02*
X163416666Y-89895295D01*
X163416666Y-89895295D02*
X163416666Y-90038152D01*
X163416666Y-90038152D02*
X163464285Y-90133390D01*
X163464285Y-90133390D02*
X163511904Y-90181009D01*
X163511904Y-90181009D02*
X163607142Y-90228628D01*
X163607142Y-90228628D02*
X163988094Y-90228628D01*
X163083332Y-89704819D02*
X162464285Y-89704819D01*
X162464285Y-89704819D02*
X162797618Y-90085771D01*
X162797618Y-90085771D02*
X162654761Y-90085771D01*
X162654761Y-90085771D02*
X162559523Y-90133390D01*
X162559523Y-90133390D02*
X162511904Y-90181009D01*
X162511904Y-90181009D02*
X162464285Y-90276247D01*
X162464285Y-90276247D02*
X162464285Y-90514342D01*
X162464285Y-90514342D02*
X162511904Y-90609580D01*
X162511904Y-90609580D02*
X162559523Y-90657200D01*
X162559523Y-90657200D02*
X162654761Y-90704819D01*
X162654761Y-90704819D02*
X162940475Y-90704819D01*
X162940475Y-90704819D02*
X163035713Y-90657200D01*
X163035713Y-90657200D02*
X163083332Y-90609580D01*
D13*
%TO.C,C6*%
X164390000Y-97884165D02*
X164390000Y-98115835D01*
X165110000Y-97884165D02*
X165110000Y-98115835D01*
%TO.C,C4*%
X135615835Y-96640000D02*
X135384165Y-96640000D01*
X135615835Y-97360000D02*
X135384165Y-97360000D01*
%TO.C,C5*%
X136261252Y-102265000D02*
X135738748Y-102265000D01*
X136261252Y-103735000D02*
X135738748Y-103735000D01*
%TO.C,J2*%
X157605000Y-77095000D02*
X157605000Y-82395000D01*
X160255000Y-77095000D02*
X157605000Y-77095000D01*
X160255000Y-79745000D02*
X160255000Y-77095000D01*
X162905000Y-77095000D02*
X161525000Y-77095000D01*
X162905000Y-78475000D02*
X162905000Y-77095000D01*
X162905000Y-79745000D02*
X160255000Y-79745000D01*
X162905000Y-79745000D02*
X162905000Y-82395000D01*
X162905000Y-82395000D02*
X157605000Y-82395000D01*
D10*
%TO.C,D1*%
X163800000Y-83485000D02*
G75*
G02*
X163700000Y-83485000I-50000J0D01*
G01*
X163700000Y-83485000D02*
G75*
G02*
X163800000Y-83485000I50000J0D01*
G01*
D14*
%TO.C,REF\u002A\u002A*%
X148537128Y-96453945D02*
X148567954Y-96463568D01*
X148605916Y-96479563D01*
X148624296Y-96488159D01*
X148637561Y-96489713D01*
X148640495Y-96477798D01*
X148640498Y-96477461D01*
X148646709Y-96466087D01*
X148668131Y-96460256D01*
X148709653Y-96458614D01*
X148778812Y-96458614D01*
X148778812Y-97062179D01*
X148640495Y-97062179D01*
X148640495Y-96646027D01*
X148606110Y-96614161D01*
X148595368Y-96605104D01*
X148563370Y-96589630D01*
X148523965Y-96589010D01*
X148470312Y-96602664D01*
X148452225Y-96603529D01*
X148431008Y-96590283D01*
X148402768Y-96558800D01*
X148389069Y-96541385D01*
X148372868Y-96516797D01*
X148370371Y-96501145D01*
X148379442Y-96487941D01*
X148407289Y-96471245D01*
X148450540Y-96458030D01*
X148497464Y-96451478D01*
X148537128Y-96453945D01*
G36*
X148537128Y-96453945D02*
G01*
X148567954Y-96463568D01*
X148605916Y-96479563D01*
X148624296Y-96488159D01*
X148637561Y-96489713D01*
X148640495Y-96477798D01*
X148640498Y-96477461D01*
X148646709Y-96466087D01*
X148668131Y-96460256D01*
X148709653Y-96458614D01*
X148778812Y-96458614D01*
X148778812Y-97062179D01*
X148640495Y-97062179D01*
X148640495Y-96646027D01*
X148606110Y-96614161D01*
X148595368Y-96605104D01*
X148563370Y-96589630D01*
X148523965Y-96589010D01*
X148470312Y-96602664D01*
X148452225Y-96603529D01*
X148431008Y-96590283D01*
X148402768Y-96558800D01*
X148389069Y-96541385D01*
X148372868Y-96516797D01*
X148370371Y-96501145D01*
X148379442Y-96487941D01*
X148407289Y-96471245D01*
X148450540Y-96458030D01*
X148497464Y-96451478D01*
X148537128Y-96453945D01*
G37*
X148720265Y-97409965D02*
X148758255Y-97427745D01*
X148791386Y-97453806D01*
X148791386Y-97427745D01*
X148792211Y-97417849D01*
X148799893Y-97407358D01*
X148820667Y-97402725D01*
X148860544Y-97401683D01*
X148929703Y-97401683D01*
X148929703Y-98017822D01*
X148791386Y-98017822D01*
X148791386Y-97817226D01*
X148791369Y-97805710D01*
X148790189Y-97724758D01*
X148787294Y-97658817D01*
X148782888Y-97611258D01*
X148777181Y-97585452D01*
X148771940Y-97575710D01*
X148739676Y-97545156D01*
X148695730Y-97531631D01*
X148647743Y-97537941D01*
X148635973Y-97542217D01*
X148610898Y-97549776D01*
X148593762Y-97547428D01*
X148576518Y-97532064D01*
X148551124Y-97500571D01*
X148509936Y-97448568D01*
X148538886Y-97425125D01*
X148566405Y-97411015D01*
X148614745Y-97401486D01*
X148669230Y-97401174D01*
X148720265Y-97409965D01*
G36*
X148720265Y-97409965D02*
G01*
X148758255Y-97427745D01*
X148791386Y-97453806D01*
X148791386Y-97427745D01*
X148792211Y-97417849D01*
X148799893Y-97407358D01*
X148820667Y-97402725D01*
X148860544Y-97401683D01*
X148929703Y-97401683D01*
X148929703Y-98017822D01*
X148791386Y-98017822D01*
X148791386Y-97817226D01*
X148791369Y-97805710D01*
X148790189Y-97724758D01*
X148787294Y-97658817D01*
X148782888Y-97611258D01*
X148777181Y-97585452D01*
X148771940Y-97575710D01*
X148739676Y-97545156D01*
X148695730Y-97531631D01*
X148647743Y-97537941D01*
X148635973Y-97542217D01*
X148610898Y-97549776D01*
X148593762Y-97547428D01*
X148576518Y-97532064D01*
X148551124Y-97500571D01*
X148509936Y-97448568D01*
X148538886Y-97425125D01*
X148566405Y-97411015D01*
X148614745Y-97401486D01*
X148669230Y-97401174D01*
X148720265Y-97409965D01*
G37*
X151343960Y-98017822D02*
X151218218Y-98017822D01*
X151218218Y-97823740D01*
X151218078Y-97778594D01*
X151216649Y-97703823D01*
X151213029Y-97648467D01*
X151206434Y-97608702D01*
X151196079Y-97580700D01*
X151181178Y-97560635D01*
X151160946Y-97544681D01*
X151138859Y-97532792D01*
X151112705Y-97529421D01*
X151075508Y-97536917D01*
X151063555Y-97540038D01*
X151033718Y-97544735D01*
X151012383Y-97538005D01*
X150987655Y-97517177D01*
X150982963Y-97512647D01*
X150957020Y-97484626D01*
X150940291Y-97461843D01*
X150937996Y-97456355D01*
X150942543Y-97436088D01*
X150965602Y-97419884D01*
X151001995Y-97408513D01*
X151046544Y-97402740D01*
X151094072Y-97403334D01*
X151139400Y-97411063D01*
X151177351Y-97426694D01*
X151189381Y-97433993D01*
X151209632Y-97444676D01*
X151217129Y-97442230D01*
X151218218Y-97426647D01*
X151218473Y-97421053D01*
X151224539Y-97408660D01*
X151243356Y-97403020D01*
X151281089Y-97401683D01*
X151343960Y-97401683D01*
X151343960Y-98017822D01*
G36*
X151343960Y-98017822D02*
G01*
X151218218Y-98017822D01*
X151218218Y-97823740D01*
X151218078Y-97778594D01*
X151216649Y-97703823D01*
X151213029Y-97648467D01*
X151206434Y-97608702D01*
X151196079Y-97580700D01*
X151181178Y-97560635D01*
X151160946Y-97544681D01*
X151138859Y-97532792D01*
X151112705Y-97529421D01*
X151075508Y-97536917D01*
X151063555Y-97540038D01*
X151033718Y-97544735D01*
X151012383Y-97538005D01*
X150987655Y-97517177D01*
X150982963Y-97512647D01*
X150957020Y-97484626D01*
X150940291Y-97461843D01*
X150937996Y-97456355D01*
X150942543Y-97436088D01*
X150965602Y-97419884D01*
X151001995Y-97408513D01*
X151046544Y-97402740D01*
X151094072Y-97403334D01*
X151139400Y-97411063D01*
X151177351Y-97426694D01*
X151189381Y-97433993D01*
X151209632Y-97444676D01*
X151217129Y-97442230D01*
X151218218Y-97426647D01*
X151218473Y-97421053D01*
X151224539Y-97408660D01*
X151243356Y-97403020D01*
X151281089Y-97401683D01*
X151343960Y-97401683D01*
X151343960Y-98017822D01*
G37*
X149030297Y-96654342D02*
X149031357Y-96742394D01*
X149035509Y-96813510D01*
X149043921Y-96865199D01*
X149057757Y-96900360D01*
X149078182Y-96921889D01*
X149106364Y-96932682D01*
X149143465Y-96935636D01*
X149178890Y-96933000D01*
X149207500Y-96922679D01*
X149228296Y-96901772D01*
X149242442Y-96867381D01*
X149251103Y-96816610D01*
X149255445Y-96746563D01*
X149256633Y-96654342D01*
X149256633Y-96458614D01*
X149382376Y-96458614D01*
X149382376Y-96694578D01*
X149382160Y-96757561D01*
X149380484Y-96839007D01*
X149376277Y-96901121D01*
X149368521Y-96947458D01*
X149356196Y-96981573D01*
X149338285Y-97007022D01*
X149313767Y-97027362D01*
X149281623Y-97046147D01*
X149214125Y-97069928D01*
X149143681Y-97071480D01*
X149077264Y-97049580D01*
X149048286Y-97035383D01*
X149033909Y-97033261D01*
X149030297Y-97043293D01*
X149024299Y-97054556D01*
X149002830Y-97060489D01*
X148961138Y-97062179D01*
X148891980Y-97062179D01*
X148891980Y-96458614D01*
X149030297Y-96458614D01*
X149030297Y-96654342D01*
G36*
X149030297Y-96654342D02*
G01*
X149031357Y-96742394D01*
X149035509Y-96813510D01*
X149043921Y-96865199D01*
X149057757Y-96900360D01*
X149078182Y-96921889D01*
X149106364Y-96932682D01*
X149143465Y-96935636D01*
X149178890Y-96933000D01*
X149207500Y-96922679D01*
X149228296Y-96901772D01*
X149242442Y-96867381D01*
X149251103Y-96816610D01*
X149255445Y-96746563D01*
X149256633Y-96654342D01*
X149256633Y-96458614D01*
X149382376Y-96458614D01*
X149382376Y-96694578D01*
X149382160Y-96757561D01*
X149380484Y-96839007D01*
X149376277Y-96901121D01*
X149368521Y-96947458D01*
X149356196Y-96981573D01*
X149338285Y-97007022D01*
X149313767Y-97027362D01*
X149281623Y-97046147D01*
X149214125Y-97069928D01*
X149143681Y-97071480D01*
X149077264Y-97049580D01*
X149048286Y-97035383D01*
X149033909Y-97033261D01*
X149030297Y-97043293D01*
X149024299Y-97054556D01*
X149002830Y-97060489D01*
X148961138Y-97062179D01*
X148891980Y-97062179D01*
X148891980Y-96458614D01*
X149030297Y-96458614D01*
X149030297Y-96654342D01*
G37*
X151132605Y-96457424D02*
X151189926Y-96475434D01*
X151215199Y-96487674D01*
X151227910Y-96488938D01*
X151230792Y-96477798D01*
X151230795Y-96477461D01*
X151237006Y-96466087D01*
X151258428Y-96460256D01*
X151299950Y-96458614D01*
X151369109Y-96458614D01*
X151369109Y-97062179D01*
X151230792Y-97062179D01*
X151230792Y-96854132D01*
X151230697Y-96783879D01*
X151230051Y-96726170D01*
X151228320Y-96685787D01*
X151224974Y-96658615D01*
X151219481Y-96640540D01*
X151211310Y-96627447D01*
X151199928Y-96615221D01*
X151184424Y-96602217D01*
X151139843Y-96584745D01*
X151093047Y-96589873D01*
X151050180Y-96617507D01*
X151037927Y-96630368D01*
X151029132Y-96643384D01*
X151023233Y-96660706D01*
X151019651Y-96686501D01*
X151017809Y-96724939D01*
X151017128Y-96780189D01*
X151017030Y-96856418D01*
X151017030Y-97062179D01*
X150878713Y-97062179D01*
X150878989Y-96838985D01*
X150879008Y-96829044D01*
X150880207Y-96734106D01*
X150883891Y-96660358D01*
X150891006Y-96604214D01*
X150902500Y-96562087D01*
X150919318Y-96530391D01*
X150942409Y-96505541D01*
X150972717Y-96483950D01*
X151004012Y-96469002D01*
X151067037Y-96455421D01*
X151132605Y-96457424D01*
G36*
X151132605Y-96457424D02*
G01*
X151189926Y-96475434D01*
X151215199Y-96487674D01*
X151227910Y-96488938D01*
X151230792Y-96477798D01*
X151230795Y-96477461D01*
X151237006Y-96466087D01*
X151258428Y-96460256D01*
X151299950Y-96458614D01*
X151369109Y-96458614D01*
X151369109Y-97062179D01*
X151230792Y-97062179D01*
X151230792Y-96854132D01*
X151230697Y-96783879D01*
X151230051Y-96726170D01*
X151228320Y-96685787D01*
X151224974Y-96658615D01*
X151219481Y-96640540D01*
X151211310Y-96627447D01*
X151199928Y-96615221D01*
X151184424Y-96602217D01*
X151139843Y-96584745D01*
X151093047Y-96589873D01*
X151050180Y-96617507D01*
X151037927Y-96630368D01*
X151029132Y-96643384D01*
X151023233Y-96660706D01*
X151019651Y-96686501D01*
X151017809Y-96724939D01*
X151017128Y-96780189D01*
X151017030Y-96856418D01*
X151017030Y-97062179D01*
X150878713Y-97062179D01*
X150878989Y-96838985D01*
X150879008Y-96829044D01*
X150880207Y-96734106D01*
X150883891Y-96660358D01*
X150891006Y-96604214D01*
X150902500Y-96562087D01*
X150919318Y-96530391D01*
X150942409Y-96505541D01*
X150972717Y-96483950D01*
X151004012Y-96469002D01*
X151067037Y-96455421D01*
X151132605Y-96457424D01*
G37*
X148183409Y-96461493D02*
X148252021Y-96488224D01*
X148310048Y-96532351D01*
X148352907Y-96592958D01*
X148355801Y-96599137D01*
X148374176Y-96659409D01*
X148383357Y-96731407D01*
X148383285Y-96806369D01*
X148373901Y-96875536D01*
X148355149Y-96930149D01*
X148331995Y-96968212D01*
X148281030Y-97022135D01*
X148217306Y-97056411D01*
X148162785Y-97070272D01*
X148079767Y-97071785D01*
X148000326Y-97050882D01*
X147929879Y-97008464D01*
X147884284Y-96970880D01*
X147925351Y-96928510D01*
X147951296Y-96903409D01*
X147974764Y-96889434D01*
X147996524Y-96892511D01*
X148024356Y-96911287D01*
X148035454Y-96918638D01*
X148082337Y-96933683D01*
X148136224Y-96933673D01*
X148186675Y-96918168D01*
X148205672Y-96905716D01*
X148233537Y-96868946D01*
X148247506Y-96814939D01*
X148248405Y-96741331D01*
X148248403Y-96741289D01*
X148238009Y-96675433D01*
X148215114Y-96629772D01*
X148177439Y-96601528D01*
X148122708Y-96587920D01*
X148088241Y-96586090D01*
X148058126Y-96593584D01*
X148027240Y-96615295D01*
X147987272Y-96648926D01*
X147936656Y-96608250D01*
X147918163Y-96592667D01*
X147895065Y-96570340D01*
X147886039Y-96557183D01*
X147889236Y-96551253D01*
X147907646Y-96533048D01*
X147936973Y-96509895D01*
X147959920Y-96494830D01*
X148032774Y-96463880D01*
X148108799Y-96453073D01*
X148183409Y-96461493D01*
G36*
X148183409Y-96461493D02*
G01*
X148252021Y-96488224D01*
X148310048Y-96532351D01*
X148352907Y-96592958D01*
X148355801Y-96599137D01*
X148374176Y-96659409D01*
X148383357Y-96731407D01*
X148383285Y-96806369D01*
X148373901Y-96875536D01*
X148355149Y-96930149D01*
X148331995Y-96968212D01*
X148281030Y-97022135D01*
X148217306Y-97056411D01*
X148162785Y-97070272D01*
X148079767Y-97071785D01*
X148000326Y-97050882D01*
X147929879Y-97008464D01*
X147884284Y-96970880D01*
X147925351Y-96928510D01*
X147951296Y-96903409D01*
X147974764Y-96889434D01*
X147996524Y-96892511D01*
X148024356Y-96911287D01*
X148035454Y-96918638D01*
X148082337Y-96933683D01*
X148136224Y-96933673D01*
X148186675Y-96918168D01*
X148205672Y-96905716D01*
X148233537Y-96868946D01*
X148247506Y-96814939D01*
X148248405Y-96741331D01*
X148248403Y-96741289D01*
X148238009Y-96675433D01*
X148215114Y-96629772D01*
X148177439Y-96601528D01*
X148122708Y-96587920D01*
X148088241Y-96586090D01*
X148058126Y-96593584D01*
X148027240Y-96615295D01*
X147987272Y-96648926D01*
X147936656Y-96608250D01*
X147918163Y-96592667D01*
X147895065Y-96570340D01*
X147886039Y-96557183D01*
X147889236Y-96551253D01*
X147907646Y-96533048D01*
X147936973Y-96509895D01*
X147959920Y-96494830D01*
X148032774Y-96463880D01*
X148108799Y-96453073D01*
X148183409Y-96461493D01*
G37*
X149982857Y-96803771D02*
X149979349Y-96843565D01*
X149963844Y-96919538D01*
X149936110Y-96977511D01*
X149893898Y-97021300D01*
X149834960Y-97054722D01*
X149812076Y-97062676D01*
X149752812Y-97072601D01*
X149690447Y-97072331D01*
X149637823Y-97061430D01*
X149636789Y-97061034D01*
X149594381Y-97036087D01*
X149551537Y-96997468D01*
X149515986Y-96953306D01*
X149495459Y-96911727D01*
X149489374Y-96881334D01*
X149484164Y-96824429D01*
X149483291Y-96773705D01*
X149609976Y-96773705D01*
X149617549Y-96834545D01*
X149635341Y-96884538D01*
X149662296Y-96917204D01*
X149672513Y-96922812D01*
X149711473Y-96933007D01*
X149756536Y-96935104D01*
X149794448Y-96928020D01*
X149809244Y-96917861D01*
X149830014Y-96882334D01*
X149843083Y-96826732D01*
X149847624Y-96753766D01*
X149847551Y-96732762D01*
X149845974Y-96690203D01*
X149840728Y-96662439D01*
X149829723Y-96641925D01*
X149810868Y-96621112D01*
X149774989Y-96595887D01*
X149728280Y-96585573D01*
X149683151Y-96595396D01*
X149645680Y-96623805D01*
X149621943Y-96669253D01*
X149613675Y-96708497D01*
X149609976Y-96773705D01*
X149483291Y-96773705D01*
X149483049Y-96759621D01*
X149485844Y-96695116D01*
X149492366Y-96639121D01*
X149502432Y-96599842D01*
X149525877Y-96555372D01*
X149575637Y-96500692D01*
X149639238Y-96466055D01*
X149714790Y-96452345D01*
X149800399Y-96460448D01*
X149814644Y-96463899D01*
X149880982Y-96493664D01*
X149930971Y-96542530D01*
X149964612Y-96610501D01*
X149981906Y-96697580D01*
X149982410Y-96753766D01*
X149982857Y-96803771D01*
G36*
X149982857Y-96803771D02*
G01*
X149979349Y-96843565D01*
X149963844Y-96919538D01*
X149936110Y-96977511D01*
X149893898Y-97021300D01*
X149834960Y-97054722D01*
X149812076Y-97062676D01*
X149752812Y-97072601D01*
X149690447Y-97072331D01*
X149637823Y-97061430D01*
X149636789Y-97061034D01*
X149594381Y-97036087D01*
X149551537Y-96997468D01*
X149515986Y-96953306D01*
X149495459Y-96911727D01*
X149489374Y-96881334D01*
X149484164Y-96824429D01*
X149483291Y-96773705D01*
X149609976Y-96773705D01*
X149617549Y-96834545D01*
X149635341Y-96884538D01*
X149662296Y-96917204D01*
X149672513Y-96922812D01*
X149711473Y-96933007D01*
X149756536Y-96935104D01*
X149794448Y-96928020D01*
X149809244Y-96917861D01*
X149830014Y-96882334D01*
X149843083Y-96826732D01*
X149847624Y-96753766D01*
X149847551Y-96732762D01*
X149845974Y-96690203D01*
X149840728Y-96662439D01*
X149829723Y-96641925D01*
X149810868Y-96621112D01*
X149774989Y-96595887D01*
X149728280Y-96585573D01*
X149683151Y-96595396D01*
X149645680Y-96623805D01*
X149621943Y-96669253D01*
X149613675Y-96708497D01*
X149609976Y-96773705D01*
X149483291Y-96773705D01*
X149483049Y-96759621D01*
X149485844Y-96695116D01*
X149492366Y-96639121D01*
X149502432Y-96599842D01*
X149525877Y-96555372D01*
X149575637Y-96500692D01*
X149639238Y-96466055D01*
X149714790Y-96452345D01*
X149800399Y-96460448D01*
X149814644Y-96463899D01*
X149880982Y-96493664D01*
X149930971Y-96542530D01*
X149964612Y-96610501D01*
X149981906Y-96697580D01*
X149982410Y-96753766D01*
X149982857Y-96803771D01*
G37*
X150082997Y-97599130D02*
X150099997Y-97649850D01*
X150120107Y-97705997D01*
X150136899Y-97748532D01*
X150148986Y-97773990D01*
X150154980Y-97778903D01*
X150156426Y-97774630D01*
X150164254Y-97748422D01*
X150176723Y-97704649D01*
X150192447Y-97648211D01*
X150210043Y-97584010D01*
X150257914Y-97407971D01*
X150331007Y-97404152D01*
X150337177Y-97403846D01*
X150376592Y-97403441D01*
X150395533Y-97407487D01*
X150397945Y-97416726D01*
X150394898Y-97425749D01*
X150384874Y-97456632D01*
X150369180Y-97505544D01*
X150348934Y-97568987D01*
X150325256Y-97643462D01*
X150299263Y-97725471D01*
X150206736Y-98017822D01*
X150090993Y-98017822D01*
X150036457Y-97832352D01*
X150026386Y-97798294D01*
X150007775Y-97736378D01*
X149991872Y-97684787D01*
X149980109Y-97648130D01*
X149973918Y-97631018D01*
X149972154Y-97629741D01*
X149963571Y-97640779D01*
X149951316Y-97669969D01*
X149937426Y-97712750D01*
X149936692Y-97715263D01*
X149918096Y-97778400D01*
X149896818Y-97849889D01*
X149877321Y-97914734D01*
X149845705Y-98019122D01*
X149787402Y-98015328D01*
X149729098Y-98011535D01*
X149675098Y-97841782D01*
X149651390Y-97767193D01*
X149624833Y-97683539D01*
X149599404Y-97603342D01*
X149578354Y-97536857D01*
X149535609Y-97401683D01*
X149678612Y-97401683D01*
X149713274Y-97530570D01*
X149722488Y-97564625D01*
X149739915Y-97628115D01*
X149756054Y-97685874D01*
X149768322Y-97728614D01*
X149788709Y-97797773D01*
X149918745Y-97407971D01*
X149968476Y-97404237D01*
X150018206Y-97400504D01*
X150082997Y-97599130D01*
G36*
X150082997Y-97599130D02*
G01*
X150099997Y-97649850D01*
X150120107Y-97705997D01*
X150136899Y-97748532D01*
X150148986Y-97773990D01*
X150154980Y-97778903D01*
X150156426Y-97774630D01*
X150164254Y-97748422D01*
X150176723Y-97704649D01*
X150192447Y-97648211D01*
X150210043Y-97584010D01*
X150257914Y-97407971D01*
X150331007Y-97404152D01*
X150337177Y-97403846D01*
X150376592Y-97403441D01*
X150395533Y-97407487D01*
X150397945Y-97416726D01*
X150394898Y-97425749D01*
X150384874Y-97456632D01*
X150369180Y-97505544D01*
X150348934Y-97568987D01*
X150325256Y-97643462D01*
X150299263Y-97725471D01*
X150206736Y-98017822D01*
X150090993Y-98017822D01*
X150036457Y-97832352D01*
X150026386Y-97798294D01*
X150007775Y-97736378D01*
X149991872Y-97684787D01*
X149980109Y-97648130D01*
X149973918Y-97631018D01*
X149972154Y-97629741D01*
X149963571Y-97640779D01*
X149951316Y-97669969D01*
X149937426Y-97712750D01*
X149936692Y-97715263D01*
X149918096Y-97778400D01*
X149896818Y-97849889D01*
X149877321Y-97914734D01*
X149845705Y-98019122D01*
X149787402Y-98015328D01*
X149729098Y-98011535D01*
X149675098Y-97841782D01*
X149651390Y-97767193D01*
X149624833Y-97683539D01*
X149599404Y-97603342D01*
X149578354Y-97536857D01*
X149535609Y-97401683D01*
X149678612Y-97401683D01*
X149713274Y-97530570D01*
X149722488Y-97564625D01*
X149739915Y-97628115D01*
X149756054Y-97685874D01*
X149768322Y-97728614D01*
X149788709Y-97797773D01*
X149918745Y-97407971D01*
X149968476Y-97404237D01*
X150018206Y-97400504D01*
X150082997Y-97599130D01*
G37*
X150940761Y-97756813D02*
X150939167Y-97810571D01*
X150935962Y-97848018D01*
X150935413Y-97851450D01*
X150913838Y-97912835D01*
X150874438Y-97964877D01*
X150822752Y-98000135D01*
X150767248Y-98014729D01*
X150698977Y-98013597D01*
X150636173Y-97994029D01*
X150619815Y-97985771D01*
X150598779Y-97976923D01*
X150590774Y-97979676D01*
X150589505Y-97994029D01*
X150588922Y-98001186D01*
X150581394Y-98011772D01*
X150560488Y-98016645D01*
X150520346Y-98017822D01*
X150451188Y-98017822D01*
X150451188Y-97715930D01*
X150589505Y-97715930D01*
X150590496Y-97768230D01*
X150594519Y-97803050D01*
X150603108Y-97826905D01*
X150617797Y-97846895D01*
X150656584Y-97876618D01*
X150701974Y-97886582D01*
X150745989Y-97874260D01*
X150783060Y-97839888D01*
X150792859Y-97814735D01*
X150800097Y-97770194D01*
X150803279Y-97716155D01*
X150802277Y-97660728D01*
X150796961Y-97612022D01*
X150787204Y-97578148D01*
X150784087Y-97572593D01*
X150754038Y-97544674D01*
X150713315Y-97532306D01*
X150669579Y-97535183D01*
X150630491Y-97553000D01*
X150603710Y-97585452D01*
X150602603Y-97588181D01*
X150595963Y-97618634D01*
X150591278Y-97664139D01*
X150589505Y-97715930D01*
X150451188Y-97715930D01*
X150451188Y-97162773D01*
X150589505Y-97162773D01*
X150589505Y-97455878D01*
X150615124Y-97432693D01*
X150639792Y-97418282D01*
X150686480Y-97406236D01*
X150741056Y-97402354D01*
X150794354Y-97407120D01*
X150837207Y-97421014D01*
X150867878Y-97440779D01*
X150899471Y-97474449D01*
X150920733Y-97519730D01*
X150933514Y-97580981D01*
X150939664Y-97662563D01*
X150940568Y-97695540D01*
X150940633Y-97716155D01*
X150940761Y-97756813D01*
G36*
X150940761Y-97756813D02*
G01*
X150939167Y-97810571D01*
X150935962Y-97848018D01*
X150935413Y-97851450D01*
X150913838Y-97912835D01*
X150874438Y-97964877D01*
X150822752Y-98000135D01*
X150767248Y-98014729D01*
X150698977Y-98013597D01*
X150636173Y-97994029D01*
X150619815Y-97985771D01*
X150598779Y-97976923D01*
X150590774Y-97979676D01*
X150589505Y-97994029D01*
X150588922Y-98001186D01*
X150581394Y-98011772D01*
X150560488Y-98016645D01*
X150520346Y-98017822D01*
X150451188Y-98017822D01*
X150451188Y-97715930D01*
X150589505Y-97715930D01*
X150590496Y-97768230D01*
X150594519Y-97803050D01*
X150603108Y-97826905D01*
X150617797Y-97846895D01*
X150656584Y-97876618D01*
X150701974Y-97886582D01*
X150745989Y-97874260D01*
X150783060Y-97839888D01*
X150792859Y-97814735D01*
X150800097Y-97770194D01*
X150803279Y-97716155D01*
X150802277Y-97660728D01*
X150796961Y-97612022D01*
X150787204Y-97578148D01*
X150784087Y-97572593D01*
X150754038Y-97544674D01*
X150713315Y-97532306D01*
X150669579Y-97535183D01*
X150630491Y-97553000D01*
X150603710Y-97585452D01*
X150602603Y-97588181D01*
X150595963Y-97618634D01*
X150591278Y-97664139D01*
X150589505Y-97715930D01*
X150451188Y-97715930D01*
X150451188Y-97162773D01*
X150589505Y-97162773D01*
X150589505Y-97455878D01*
X150615124Y-97432693D01*
X150639792Y-97418282D01*
X150686480Y-97406236D01*
X150741056Y-97402354D01*
X150794354Y-97407120D01*
X150837207Y-97421014D01*
X150867878Y-97440779D01*
X150899471Y-97474449D01*
X150920733Y-97519730D01*
X150933514Y-97580981D01*
X150939664Y-97662563D01*
X150940568Y-97695540D01*
X150940633Y-97716155D01*
X150940761Y-97756813D01*
G37*
X153114997Y-96794931D02*
X153113373Y-96834310D01*
X153109688Y-96882332D01*
X153103410Y-96916368D01*
X153093044Y-96943338D01*
X153077092Y-96970158D01*
X153076412Y-96971175D01*
X153037132Y-97014629D01*
X152989072Y-97047772D01*
X152933185Y-97067439D01*
X152859666Y-97073824D01*
X152787609Y-97061268D01*
X152723201Y-97031011D01*
X152672627Y-96984294D01*
X152658108Y-96962221D01*
X152630993Y-96893602D01*
X152617546Y-96808939D01*
X152617776Y-96787523D01*
X152752920Y-96787523D01*
X152753174Y-96827574D01*
X152757421Y-96854313D01*
X152767096Y-96874859D01*
X152783638Y-96896331D01*
X152806593Y-96917639D01*
X152852505Y-96936653D01*
X152901802Y-96933122D01*
X152948917Y-96906694D01*
X152962207Y-96894072D01*
X152976397Y-96872465D01*
X152984266Y-96842094D01*
X152988726Y-96794770D01*
X152989955Y-96759219D01*
X152983224Y-96686620D01*
X152962567Y-96634642D01*
X152927894Y-96602999D01*
X152887249Y-96587847D01*
X152838777Y-96589123D01*
X152793845Y-96614703D01*
X152783103Y-96624442D01*
X152769548Y-96641480D01*
X152761505Y-96663772D01*
X152757043Y-96697947D01*
X152754228Y-96750638D01*
X152752920Y-96787523D01*
X152617776Y-96787523D01*
X152618583Y-96712351D01*
X152619907Y-96698651D01*
X152638374Y-96610908D01*
X152672540Y-96542793D01*
X152722479Y-96494231D01*
X152788261Y-96465148D01*
X152869961Y-96455471D01*
X152900828Y-96456379D01*
X152964128Y-96467493D01*
X153015889Y-96494021D01*
X153064147Y-96539436D01*
X153071865Y-96548551D01*
X153092681Y-96579248D01*
X153106362Y-96614007D01*
X153113948Y-96658056D01*
X153116479Y-96716621D01*
X153115672Y-96759219D01*
X153114997Y-96794931D01*
G36*
X153114997Y-96794931D02*
G01*
X153113373Y-96834310D01*
X153109688Y-96882332D01*
X153103410Y-96916368D01*
X153093044Y-96943338D01*
X153077092Y-96970158D01*
X153076412Y-96971175D01*
X153037132Y-97014629D01*
X152989072Y-97047772D01*
X152933185Y-97067439D01*
X152859666Y-97073824D01*
X152787609Y-97061268D01*
X152723201Y-97031011D01*
X152672627Y-96984294D01*
X152658108Y-96962221D01*
X152630993Y-96893602D01*
X152617546Y-96808939D01*
X152617776Y-96787523D01*
X152752920Y-96787523D01*
X152753174Y-96827574D01*
X152757421Y-96854313D01*
X152767096Y-96874859D01*
X152783638Y-96896331D01*
X152806593Y-96917639D01*
X152852505Y-96936653D01*
X152901802Y-96933122D01*
X152948917Y-96906694D01*
X152962207Y-96894072D01*
X152976397Y-96872465D01*
X152984266Y-96842094D01*
X152988726Y-96794770D01*
X152989955Y-96759219D01*
X152983224Y-96686620D01*
X152962567Y-96634642D01*
X152927894Y-96602999D01*
X152887249Y-96587847D01*
X152838777Y-96589123D01*
X152793845Y-96614703D01*
X152783103Y-96624442D01*
X152769548Y-96641480D01*
X152761505Y-96663772D01*
X152757043Y-96697947D01*
X152754228Y-96750638D01*
X152752920Y-96787523D01*
X152617776Y-96787523D01*
X152618583Y-96712351D01*
X152619907Y-96698651D01*
X152638374Y-96610908D01*
X152672540Y-96542793D01*
X152722479Y-96494231D01*
X152788261Y-96465148D01*
X152869961Y-96455471D01*
X152900828Y-96456379D01*
X152964128Y-96467493D01*
X153015889Y-96494021D01*
X153064147Y-96539436D01*
X153071865Y-96548551D01*
X153092681Y-96579248D01*
X153106362Y-96614007D01*
X153113948Y-96658056D01*
X153116479Y-96716621D01*
X153115672Y-96759219D01*
X153114997Y-96794931D01*
G37*
X147869444Y-96719878D02*
X147867825Y-96816121D01*
X147867615Y-96818014D01*
X147849535Y-96906325D01*
X147816870Y-96974986D01*
X147768601Y-97025506D01*
X147703713Y-97059393D01*
X147691801Y-97063268D01*
X147617971Y-97074688D01*
X147541614Y-97068320D01*
X147470626Y-97045563D01*
X147412904Y-97007819D01*
X147369667Y-96967872D01*
X147415625Y-96931532D01*
X147461583Y-96895193D01*
X147516969Y-96922101D01*
X147581056Y-96943905D01*
X147637632Y-96944558D01*
X147683920Y-96924525D01*
X147717230Y-96884315D01*
X147729171Y-96860222D01*
X147735837Y-96839630D01*
X147731980Y-96825720D01*
X147714675Y-96817181D01*
X147680997Y-96812704D01*
X147628021Y-96810978D01*
X147552822Y-96810693D01*
X147370495Y-96810693D01*
X147370495Y-96723492D01*
X147371857Y-96685210D01*
X147500234Y-96685210D01*
X147506399Y-96692251D01*
X147524654Y-96695916D01*
X147559352Y-96697306D01*
X147614846Y-96697525D01*
X147644603Y-96697176D01*
X147691562Y-96694867D01*
X147723416Y-96690822D01*
X147735148Y-96685542D01*
X147732146Y-96666062D01*
X147710988Y-96628786D01*
X147675731Y-96598164D01*
X147633699Y-96579668D01*
X147592220Y-96578773D01*
X147560997Y-96593604D01*
X147525618Y-96627355D01*
X147503122Y-96669233D01*
X147501805Y-96673690D01*
X147500234Y-96685210D01*
X147371857Y-96685210D01*
X147372136Y-96677371D01*
X147376955Y-96631740D01*
X147383840Y-96600893D01*
X147388859Y-96589117D01*
X147425390Y-96536667D01*
X147478175Y-96492921D01*
X147539904Y-96464279D01*
X147572102Y-96456457D01*
X147648820Y-96452896D01*
X147717179Y-96471009D01*
X147775299Y-96508779D01*
X147821302Y-96564191D01*
X147853310Y-96635229D01*
X147862900Y-96685542D01*
X147869444Y-96719878D01*
G36*
X147869444Y-96719878D02*
G01*
X147867825Y-96816121D01*
X147867615Y-96818014D01*
X147849535Y-96906325D01*
X147816870Y-96974986D01*
X147768601Y-97025506D01*
X147703713Y-97059393D01*
X147691801Y-97063268D01*
X147617971Y-97074688D01*
X147541614Y-97068320D01*
X147470626Y-97045563D01*
X147412904Y-97007819D01*
X147369667Y-96967872D01*
X147415625Y-96931532D01*
X147461583Y-96895193D01*
X147516969Y-96922101D01*
X147581056Y-96943905D01*
X147637632Y-96944558D01*
X147683920Y-96924525D01*
X147717230Y-96884315D01*
X147729171Y-96860222D01*
X147735837Y-96839630D01*
X147731980Y-96825720D01*
X147714675Y-96817181D01*
X147680997Y-96812704D01*
X147628021Y-96810978D01*
X147552822Y-96810693D01*
X147370495Y-96810693D01*
X147370495Y-96723492D01*
X147371857Y-96685210D01*
X147500234Y-96685210D01*
X147506399Y-96692251D01*
X147524654Y-96695916D01*
X147559352Y-96697306D01*
X147614846Y-96697525D01*
X147644603Y-96697176D01*
X147691562Y-96694867D01*
X147723416Y-96690822D01*
X147735148Y-96685542D01*
X147732146Y-96666062D01*
X147710988Y-96628786D01*
X147675731Y-96598164D01*
X147633699Y-96579668D01*
X147592220Y-96578773D01*
X147560997Y-96593604D01*
X147525618Y-96627355D01*
X147503122Y-96669233D01*
X147501805Y-96673690D01*
X147500234Y-96685210D01*
X147371857Y-96685210D01*
X147372136Y-96677371D01*
X147376955Y-96631740D01*
X147383840Y-96600893D01*
X147388859Y-96589117D01*
X147425390Y-96536667D01*
X147478175Y-96492921D01*
X147539904Y-96464279D01*
X147572102Y-96456457D01*
X147648820Y-96452896D01*
X147717179Y-96471009D01*
X147775299Y-96508779D01*
X147821302Y-96564191D01*
X147853310Y-96635229D01*
X147862900Y-96685542D01*
X147869444Y-96719878D01*
G37*
X150348874Y-96458207D02*
X150421495Y-96476408D01*
X150474546Y-96510144D01*
X150508329Y-96559642D01*
X150523147Y-96625126D01*
X150520147Y-96687820D01*
X150498493Y-96740699D01*
X150456967Y-96779796D01*
X150394736Y-96805873D01*
X150310969Y-96819695D01*
X150256540Y-96826940D01*
X150206860Y-96842615D01*
X150181211Y-96865314D01*
X150179662Y-96894998D01*
X150189984Y-96913507D01*
X150221951Y-96935443D01*
X150267395Y-96945818D01*
X150320649Y-96944399D01*
X150376048Y-96930952D01*
X150427928Y-96905243D01*
X150479653Y-96871013D01*
X150525148Y-96917049D01*
X150570643Y-96963084D01*
X150532921Y-96993876D01*
X150518253Y-97004574D01*
X150476983Y-97028880D01*
X150432327Y-97049825D01*
X150396984Y-97061845D01*
X150345234Y-97070552D01*
X150281435Y-97070667D01*
X150203200Y-97061081D01*
X150132722Y-97036783D01*
X150082836Y-96998188D01*
X150053423Y-96945198D01*
X150044365Y-96877718D01*
X150050921Y-96818354D01*
X150071970Y-96769752D01*
X150109864Y-96734946D01*
X150167004Y-96711798D01*
X150245785Y-96698170D01*
X150254834Y-96697183D01*
X150303885Y-96690892D01*
X150343675Y-96684309D01*
X150366312Y-96678708D01*
X150373866Y-96674197D01*
X150386637Y-96650941D01*
X150384563Y-96621171D01*
X150367495Y-96595327D01*
X150358533Y-96589691D01*
X150321188Y-96580660D01*
X150272950Y-96581267D01*
X150222650Y-96590878D01*
X150179115Y-96608858D01*
X150133372Y-96635847D01*
X150097890Y-96594384D01*
X150089280Y-96583850D01*
X150069883Y-96555632D01*
X150061897Y-96536508D01*
X150070283Y-96524781D01*
X150096226Y-96506476D01*
X150133688Y-96486777D01*
X150138966Y-96484370D01*
X150188366Y-96465482D01*
X150235983Y-96456452D01*
X150295072Y-96454639D01*
X150348874Y-96458207D01*
G36*
X150348874Y-96458207D02*
G01*
X150421495Y-96476408D01*
X150474546Y-96510144D01*
X150508329Y-96559642D01*
X150523147Y-96625126D01*
X150520147Y-96687820D01*
X150498493Y-96740699D01*
X150456967Y-96779796D01*
X150394736Y-96805873D01*
X150310969Y-96819695D01*
X150256540Y-96826940D01*
X150206860Y-96842615D01*
X150181211Y-96865314D01*
X150179662Y-96894998D01*
X150189984Y-96913507D01*
X150221951Y-96935443D01*
X150267395Y-96945818D01*
X150320649Y-96944399D01*
X150376048Y-96930952D01*
X150427928Y-96905243D01*
X150479653Y-96871013D01*
X150525148Y-96917049D01*
X150570643Y-96963084D01*
X150532921Y-96993876D01*
X150518253Y-97004574D01*
X150476983Y-97028880D01*
X150432327Y-97049825D01*
X150396984Y-97061845D01*
X150345234Y-97070552D01*
X150281435Y-97070667D01*
X150203200Y-97061081D01*
X150132722Y-97036783D01*
X150082836Y-96998188D01*
X150053423Y-96945198D01*
X150044365Y-96877718D01*
X150050921Y-96818354D01*
X150071970Y-96769752D01*
X150109864Y-96734946D01*
X150167004Y-96711798D01*
X150245785Y-96698170D01*
X150254834Y-96697183D01*
X150303885Y-96690892D01*
X150343675Y-96684309D01*
X150366312Y-96678708D01*
X150373866Y-96674197D01*
X150386637Y-96650941D01*
X150384563Y-96621171D01*
X150367495Y-96595327D01*
X150358533Y-96589691D01*
X150321188Y-96580660D01*
X150272950Y-96581267D01*
X150222650Y-96590878D01*
X150179115Y-96608858D01*
X150133372Y-96635847D01*
X150097890Y-96594384D01*
X150089280Y-96583850D01*
X150069883Y-96555632D01*
X150061897Y-96536508D01*
X150070283Y-96524781D01*
X150096226Y-96506476D01*
X150133688Y-96486777D01*
X150138966Y-96484370D01*
X150188366Y-96465482D01*
X150235983Y-96456452D01*
X150295072Y-96454639D01*
X150348874Y-96458207D01*
G37*
X148514353Y-97709753D02*
X148512718Y-97756692D01*
X148497827Y-97846459D01*
X148467185Y-97917045D01*
X148420524Y-97968952D01*
X148357574Y-98002686D01*
X148337235Y-98008647D01*
X148264612Y-98016971D01*
X148187928Y-98009946D01*
X148118663Y-97988265D01*
X148094262Y-97975959D01*
X148059275Y-97954879D01*
X148038072Y-97937534D01*
X148034942Y-97933571D01*
X148029085Y-97919077D01*
X148037524Y-97903321D01*
X148063221Y-97879460D01*
X148075622Y-97869072D01*
X148100052Y-97850063D01*
X148112861Y-97842293D01*
X148116530Y-97843094D01*
X148137561Y-97851745D01*
X148168960Y-97866931D01*
X148179197Y-97871926D01*
X148239590Y-97890475D01*
X148292057Y-97885694D01*
X148338065Y-97857500D01*
X148343419Y-97852291D01*
X148369013Y-97819659D01*
X148383637Y-97788342D01*
X148391736Y-97753763D01*
X148011782Y-97753763D01*
X148011852Y-97687748D01*
X148011892Y-97681182D01*
X148017022Y-97628218D01*
X148150099Y-97628218D01*
X148151670Y-97639203D01*
X148159738Y-97646773D01*
X148178967Y-97650975D01*
X148214019Y-97652783D01*
X148269554Y-97653169D01*
X148300429Y-97652768D01*
X148346002Y-97650429D01*
X148377348Y-97646465D01*
X148389010Y-97641413D01*
X148379064Y-97599827D01*
X148349947Y-97561013D01*
X148307952Y-97534086D01*
X148259440Y-97524772D01*
X148223723Y-97535272D01*
X148188020Y-97560940D01*
X148160879Y-97594381D01*
X148150099Y-97628218D01*
X148017022Y-97628218D01*
X148019758Y-97599965D01*
X148042655Y-97533895D01*
X148082607Y-97476940D01*
X148106979Y-97452848D01*
X148157315Y-97420597D01*
X148217419Y-97404970D01*
X148293338Y-97403871D01*
X148330010Y-97408179D01*
X148397703Y-97430549D01*
X148449530Y-97471263D01*
X148485945Y-97530949D01*
X148507401Y-97610236D01*
X148509579Y-97641413D01*
X148514353Y-97709753D01*
G36*
X148514353Y-97709753D02*
G01*
X148512718Y-97756692D01*
X148497827Y-97846459D01*
X148467185Y-97917045D01*
X148420524Y-97968952D01*
X148357574Y-98002686D01*
X148337235Y-98008647D01*
X148264612Y-98016971D01*
X148187928Y-98009946D01*
X148118663Y-97988265D01*
X148094262Y-97975959D01*
X148059275Y-97954879D01*
X148038072Y-97937534D01*
X148034942Y-97933571D01*
X148029085Y-97919077D01*
X148037524Y-97903321D01*
X148063221Y-97879460D01*
X148075622Y-97869072D01*
X148100052Y-97850063D01*
X148112861Y-97842293D01*
X148116530Y-97843094D01*
X148137561Y-97851745D01*
X148168960Y-97866931D01*
X148179197Y-97871926D01*
X148239590Y-97890475D01*
X148292057Y-97885694D01*
X148338065Y-97857500D01*
X148343419Y-97852291D01*
X148369013Y-97819659D01*
X148383637Y-97788342D01*
X148391736Y-97753763D01*
X148011782Y-97753763D01*
X148011852Y-97687748D01*
X148011892Y-97681182D01*
X148017022Y-97628218D01*
X148150099Y-97628218D01*
X148151670Y-97639203D01*
X148159738Y-97646773D01*
X148178967Y-97650975D01*
X148214019Y-97652783D01*
X148269554Y-97653169D01*
X148300429Y-97652768D01*
X148346002Y-97650429D01*
X148377348Y-97646465D01*
X148389010Y-97641413D01*
X148379064Y-97599827D01*
X148349947Y-97561013D01*
X148307952Y-97534086D01*
X148259440Y-97524772D01*
X148223723Y-97535272D01*
X148188020Y-97560940D01*
X148160879Y-97594381D01*
X148150099Y-97628218D01*
X148017022Y-97628218D01*
X148019758Y-97599965D01*
X148042655Y-97533895D01*
X148082607Y-97476940D01*
X148106979Y-97452848D01*
X148157315Y-97420597D01*
X148217419Y-97404970D01*
X148293338Y-97403871D01*
X148330010Y-97408179D01*
X148397703Y-97430549D01*
X148449530Y-97471263D01*
X148485945Y-97530949D01*
X148507401Y-97610236D01*
X148509579Y-97641413D01*
X148514353Y-97709753D01*
G37*
X151957022Y-96684861D02*
X151961421Y-96772936D01*
X151960322Y-96811371D01*
X151947926Y-96895367D01*
X151920608Y-96961595D01*
X151876941Y-97012784D01*
X151815495Y-97051663D01*
X151755888Y-97069812D01*
X151681110Y-97073284D01*
X151605664Y-97059930D01*
X151538366Y-97030425D01*
X151513428Y-97014012D01*
X151485951Y-96992973D01*
X151473414Y-96979129D01*
X151474124Y-96973417D01*
X151488158Y-96953955D01*
X151514533Y-96930376D01*
X151560240Y-96895513D01*
X151613799Y-96922262D01*
X151628282Y-96928882D01*
X151670916Y-96943273D01*
X151706649Y-96949010D01*
X151732998Y-96944282D01*
X151774347Y-96921514D01*
X151809104Y-96886170D01*
X151828983Y-96845273D01*
X151837083Y-96810693D01*
X151457129Y-96810693D01*
X151457199Y-96744679D01*
X151457774Y-96723757D01*
X151461972Y-96678862D01*
X151595445Y-96678862D01*
X151595690Y-96681434D01*
X151602604Y-96689443D01*
X151622141Y-96694364D01*
X151658467Y-96696843D01*
X151715748Y-96697525D01*
X151734575Y-96697517D01*
X151783470Y-96697065D01*
X151812863Y-96695113D01*
X151827115Y-96690558D01*
X151830582Y-96682299D01*
X151827625Y-96669233D01*
X151827173Y-96667752D01*
X151801699Y-96622285D01*
X151761539Y-96590981D01*
X151713651Y-96579327D01*
X151695949Y-96580259D01*
X151663094Y-96591408D01*
X151631575Y-96619763D01*
X151623085Y-96629789D01*
X151603336Y-96658423D01*
X151595445Y-96678862D01*
X151461972Y-96678862D01*
X151462512Y-96673091D01*
X151470459Y-96631166D01*
X151479168Y-96607696D01*
X151509790Y-96556646D01*
X151550799Y-96510283D01*
X151594168Y-96478514D01*
X151606699Y-96472614D01*
X151679661Y-96453046D01*
X151754168Y-96455109D01*
X151824217Y-96477931D01*
X151883807Y-96520639D01*
X151916038Y-96560025D01*
X151942392Y-96615510D01*
X151956482Y-96682299D01*
X151957022Y-96684861D01*
G36*
X151957022Y-96684861D02*
G01*
X151961421Y-96772936D01*
X151960322Y-96811371D01*
X151947926Y-96895367D01*
X151920608Y-96961595D01*
X151876941Y-97012784D01*
X151815495Y-97051663D01*
X151755888Y-97069812D01*
X151681110Y-97073284D01*
X151605664Y-97059930D01*
X151538366Y-97030425D01*
X151513428Y-97014012D01*
X151485951Y-96992973D01*
X151473414Y-96979129D01*
X151474124Y-96973417D01*
X151488158Y-96953955D01*
X151514533Y-96930376D01*
X151560240Y-96895513D01*
X151613799Y-96922262D01*
X151628282Y-96928882D01*
X151670916Y-96943273D01*
X151706649Y-96949010D01*
X151732998Y-96944282D01*
X151774347Y-96921514D01*
X151809104Y-96886170D01*
X151828983Y-96845273D01*
X151837083Y-96810693D01*
X151457129Y-96810693D01*
X151457199Y-96744679D01*
X151457774Y-96723757D01*
X151461972Y-96678862D01*
X151595445Y-96678862D01*
X151595690Y-96681434D01*
X151602604Y-96689443D01*
X151622141Y-96694364D01*
X151658467Y-96696843D01*
X151715748Y-96697525D01*
X151734575Y-96697517D01*
X151783470Y-96697065D01*
X151812863Y-96695113D01*
X151827115Y-96690558D01*
X151830582Y-96682299D01*
X151827625Y-96669233D01*
X151827173Y-96667752D01*
X151801699Y-96622285D01*
X151761539Y-96590981D01*
X151713651Y-96579327D01*
X151695949Y-96580259D01*
X151663094Y-96591408D01*
X151631575Y-96619763D01*
X151623085Y-96629789D01*
X151603336Y-96658423D01*
X151595445Y-96678862D01*
X151461972Y-96678862D01*
X151462512Y-96673091D01*
X151470459Y-96631166D01*
X151479168Y-96607696D01*
X151509790Y-96556646D01*
X151550799Y-96510283D01*
X151594168Y-96478514D01*
X151606699Y-96472614D01*
X151679661Y-96453046D01*
X151754168Y-96455109D01*
X151824217Y-96477931D01*
X151883807Y-96520639D01*
X151916038Y-96560025D01*
X151942392Y-96615510D01*
X151956482Y-96682299D01*
X151957022Y-96684861D01*
G37*
X149539413Y-97852333D02*
X149524244Y-97909419D01*
X149491277Y-97958255D01*
X149441270Y-97993386D01*
X149436362Y-97995521D01*
X149381646Y-98010903D01*
X149319993Y-98016899D01*
X149261376Y-98013233D01*
X149215767Y-97999629D01*
X149197549Y-97990754D01*
X149184179Y-97988637D01*
X149181188Y-97999706D01*
X149175524Y-98009942D01*
X149153607Y-98016038D01*
X149111068Y-98017822D01*
X149040948Y-98017822D01*
X149045053Y-97775768D01*
X149045492Y-97753763D01*
X149181188Y-97753763D01*
X149181188Y-97797773D01*
X149185924Y-97830666D01*
X149206336Y-97866931D01*
X149213871Y-97873597D01*
X149244753Y-97887620D01*
X149291213Y-97891228D01*
X149319090Y-97889819D01*
X149371255Y-97879204D01*
X149403587Y-97859425D01*
X149414492Y-97831824D01*
X149402374Y-97797743D01*
X149395304Y-97788824D01*
X149363724Y-97768818D01*
X149313744Y-97757395D01*
X149242487Y-97753763D01*
X149181188Y-97753763D01*
X149045492Y-97753763D01*
X149046169Y-97719794D01*
X149049106Y-97635996D01*
X149054058Y-97571920D01*
X149062002Y-97524073D01*
X149073917Y-97488962D01*
X149090780Y-97463093D01*
X149113572Y-97442974D01*
X149143269Y-97425110D01*
X149158589Y-97418290D01*
X149211589Y-97405417D01*
X149275513Y-97400095D01*
X149341602Y-97402227D01*
X149401099Y-97411714D01*
X149445247Y-97428461D01*
X149460604Y-97438185D01*
X149495960Y-97467005D01*
X149507926Y-97491137D01*
X149505020Y-97495800D01*
X149486909Y-97512088D01*
X149457672Y-97533817D01*
X149442725Y-97543987D01*
X149417270Y-97558397D01*
X149400728Y-97559773D01*
X149385370Y-97549827D01*
X149347094Y-97529684D01*
X149295590Y-97521400D01*
X149242957Y-97527742D01*
X149241961Y-97528030D01*
X149204838Y-97544158D01*
X149186463Y-97569405D01*
X149181380Y-97611158D01*
X149181188Y-97650879D01*
X149312423Y-97655168D01*
X149333331Y-97655873D01*
X149386043Y-97658326D01*
X149421381Y-97662180D01*
X149445267Y-97668878D01*
X149463624Y-97679864D01*
X149482376Y-97696580D01*
X149513337Y-97735244D01*
X149536029Y-97792456D01*
X149538254Y-97831824D01*
X149539413Y-97852333D01*
G36*
X149539413Y-97852333D02*
G01*
X149524244Y-97909419D01*
X149491277Y-97958255D01*
X149441270Y-97993386D01*
X149436362Y-97995521D01*
X149381646Y-98010903D01*
X149319993Y-98016899D01*
X149261376Y-98013233D01*
X149215767Y-97999629D01*
X149197549Y-97990754D01*
X149184179Y-97988637D01*
X149181188Y-97999706D01*
X149175524Y-98009942D01*
X149153607Y-98016038D01*
X149111068Y-98017822D01*
X149040948Y-98017822D01*
X149045053Y-97775768D01*
X149045492Y-97753763D01*
X149181188Y-97753763D01*
X149181188Y-97797773D01*
X149185924Y-97830666D01*
X149206336Y-97866931D01*
X149213871Y-97873597D01*
X149244753Y-97887620D01*
X149291213Y-97891228D01*
X149319090Y-97889819D01*
X149371255Y-97879204D01*
X149403587Y-97859425D01*
X149414492Y-97831824D01*
X149402374Y-97797743D01*
X149395304Y-97788824D01*
X149363724Y-97768818D01*
X149313744Y-97757395D01*
X149242487Y-97753763D01*
X149181188Y-97753763D01*
X149045492Y-97753763D01*
X149046169Y-97719794D01*
X149049106Y-97635996D01*
X149054058Y-97571920D01*
X149062002Y-97524073D01*
X149073917Y-97488962D01*
X149090780Y-97463093D01*
X149113572Y-97442974D01*
X149143269Y-97425110D01*
X149158589Y-97418290D01*
X149211589Y-97405417D01*
X149275513Y-97400095D01*
X149341602Y-97402227D01*
X149401099Y-97411714D01*
X149445247Y-97428461D01*
X149460604Y-97438185D01*
X149495960Y-97467005D01*
X149507926Y-97491137D01*
X149505020Y-97495800D01*
X149486909Y-97512088D01*
X149457672Y-97533817D01*
X149442725Y-97543987D01*
X149417270Y-97558397D01*
X149400728Y-97559773D01*
X149385370Y-97549827D01*
X149347094Y-97529684D01*
X149295590Y-97521400D01*
X149242957Y-97527742D01*
X149241961Y-97528030D01*
X149204838Y-97544158D01*
X149186463Y-97569405D01*
X149181380Y-97611158D01*
X149181188Y-97650879D01*
X149312423Y-97655168D01*
X149333331Y-97655873D01*
X149386043Y-97658326D01*
X149421381Y-97662180D01*
X149445267Y-97668878D01*
X149463624Y-97679864D01*
X149482376Y-97696580D01*
X149513337Y-97735244D01*
X149536029Y-97792456D01*
X149538254Y-97831824D01*
X149539413Y-97852333D01*
G37*
X151957299Y-97850223D02*
X151957157Y-97851882D01*
X151941835Y-97916479D01*
X151907753Y-97965063D01*
X151853218Y-98000072D01*
X151825036Y-98008589D01*
X151776764Y-98015228D01*
X151723978Y-98016813D01*
X151676353Y-98013160D01*
X151643566Y-98004083D01*
X151623652Y-97996813D01*
X151604155Y-98004083D01*
X151597023Y-98008295D01*
X151568557Y-98015126D01*
X151530059Y-98017822D01*
X151469703Y-98017822D01*
X151469703Y-97774484D01*
X151469707Y-97753763D01*
X151608020Y-97753763D01*
X151608020Y-97802111D01*
X151612668Y-97838904D01*
X151631015Y-97871269D01*
X151641514Y-97878274D01*
X151678988Y-97889191D01*
X151725773Y-97891917D01*
X151771652Y-97886379D01*
X151806410Y-97872505D01*
X151823726Y-97854161D01*
X151834356Y-97821566D01*
X151824929Y-97795729D01*
X151793764Y-97773263D01*
X151743667Y-97758850D01*
X151677582Y-97753763D01*
X151608020Y-97753763D01*
X151469707Y-97753763D01*
X151469707Y-97753440D01*
X151469937Y-97674122D01*
X151470797Y-97615154D01*
X151472679Y-97572616D01*
X151475974Y-97542592D01*
X151481073Y-97521163D01*
X151488366Y-97504411D01*
X151498246Y-97488419D01*
X151530023Y-97450948D01*
X151575055Y-97422339D01*
X151634210Y-97406555D01*
X151712161Y-97401703D01*
X151714695Y-97401708D01*
X151768880Y-97404155D01*
X151817380Y-97410256D01*
X151850478Y-97418809D01*
X151859552Y-97423096D01*
X151888433Y-97441248D01*
X151914568Y-97462822D01*
X151931764Y-97482236D01*
X151933825Y-97493909D01*
X151929803Y-97497063D01*
X151885976Y-97530739D01*
X151856671Y-97550600D01*
X151837294Y-97558613D01*
X151823253Y-97556746D01*
X151809957Y-97546965D01*
X151785418Y-97534756D01*
X151744064Y-97526615D01*
X151697326Y-97524503D01*
X151655034Y-97528800D01*
X151627017Y-97539887D01*
X151625543Y-97541236D01*
X151612953Y-97566581D01*
X151608020Y-97604411D01*
X151608020Y-97653169D01*
X151724331Y-97653216D01*
X151777760Y-97654061D01*
X151822735Y-97657740D01*
X151854907Y-97665309D01*
X151880899Y-97677808D01*
X151886948Y-97681647D01*
X151930710Y-97723845D01*
X151953987Y-97779647D01*
X151955955Y-97821566D01*
X151957299Y-97850223D01*
G36*
X151957299Y-97850223D02*
G01*
X151957157Y-97851882D01*
X151941835Y-97916479D01*
X151907753Y-97965063D01*
X151853218Y-98000072D01*
X151825036Y-98008589D01*
X151776764Y-98015228D01*
X151723978Y-98016813D01*
X151676353Y-98013160D01*
X151643566Y-98004083D01*
X151623652Y-97996813D01*
X151604155Y-98004083D01*
X151597023Y-98008295D01*
X151568557Y-98015126D01*
X151530059Y-98017822D01*
X151469703Y-98017822D01*
X151469703Y-97774484D01*
X151469707Y-97753763D01*
X151608020Y-97753763D01*
X151608020Y-97802111D01*
X151612668Y-97838904D01*
X151631015Y-97871269D01*
X151641514Y-97878274D01*
X151678988Y-97889191D01*
X151725773Y-97891917D01*
X151771652Y-97886379D01*
X151806410Y-97872505D01*
X151823726Y-97854161D01*
X151834356Y-97821566D01*
X151824929Y-97795729D01*
X151793764Y-97773263D01*
X151743667Y-97758850D01*
X151677582Y-97753763D01*
X151608020Y-97753763D01*
X151469707Y-97753763D01*
X151469707Y-97753440D01*
X151469937Y-97674122D01*
X151470797Y-97615154D01*
X151472679Y-97572616D01*
X151475974Y-97542592D01*
X151481073Y-97521163D01*
X151488366Y-97504411D01*
X151498246Y-97488419D01*
X151530023Y-97450948D01*
X151575055Y-97422339D01*
X151634210Y-97406555D01*
X151712161Y-97401703D01*
X151714695Y-97401708D01*
X151768880Y-97404155D01*
X151817380Y-97410256D01*
X151850478Y-97418809D01*
X151859552Y-97423096D01*
X151888433Y-97441248D01*
X151914568Y-97462822D01*
X151931764Y-97482236D01*
X151933825Y-97493909D01*
X151929803Y-97497063D01*
X151885976Y-97530739D01*
X151856671Y-97550600D01*
X151837294Y-97558613D01*
X151823253Y-97556746D01*
X151809957Y-97546965D01*
X151785418Y-97534756D01*
X151744064Y-97526615D01*
X151697326Y-97524503D01*
X151655034Y-97528800D01*
X151627017Y-97539887D01*
X151625543Y-97541236D01*
X151612953Y-97566581D01*
X151608020Y-97604411D01*
X151608020Y-97653169D01*
X151724331Y-97653216D01*
X151777760Y-97654061D01*
X151822735Y-97657740D01*
X151854907Y-97665309D01*
X151880899Y-97677808D01*
X151886948Y-97681647D01*
X151930710Y-97723845D01*
X151953987Y-97779647D01*
X151955955Y-97821566D01*
X151957299Y-97850223D01*
G37*
X152525940Y-98019136D02*
X152459926Y-98015336D01*
X152393911Y-98011535D01*
X152390772Y-97810347D01*
X152389844Y-97761425D01*
X152387208Y-97687926D01*
X152382683Y-97633991D01*
X152375438Y-97595995D01*
X152364642Y-97570313D01*
X152349462Y-97553320D01*
X152329066Y-97541389D01*
X152290797Y-97529205D01*
X152252738Y-97533940D01*
X152212549Y-97559979D01*
X152173861Y-97592533D01*
X152173861Y-98017822D01*
X152035544Y-98017822D01*
X152035544Y-97787176D01*
X152035677Y-97714882D01*
X152036413Y-97650641D01*
X152038181Y-97603618D01*
X152041411Y-97569548D01*
X152046530Y-97544170D01*
X152053967Y-97523221D01*
X152064150Y-97502436D01*
X152066564Y-97498024D01*
X152098675Y-97455047D01*
X152136256Y-97425013D01*
X152181564Y-97409243D01*
X152241561Y-97402222D01*
X152301643Y-97406025D01*
X152350525Y-97420868D01*
X152387624Y-97440052D01*
X152387624Y-97024859D01*
X152336792Y-97051354D01*
X152315558Y-97060980D01*
X152248536Y-97074592D01*
X152181930Y-97065184D01*
X152120187Y-97033905D01*
X152067757Y-96981902D01*
X152059543Y-96969680D01*
X152051649Y-96951763D01*
X152046500Y-96927404D01*
X152043527Y-96891927D01*
X152042161Y-96840656D01*
X152041915Y-96787236D01*
X152174749Y-96787236D01*
X152174861Y-96831849D01*
X152178272Y-96861601D01*
X152185937Y-96882835D01*
X152198814Y-96901896D01*
X152215171Y-96919617D01*
X152241329Y-96933028D01*
X152280742Y-96936436D01*
X152315559Y-96933471D01*
X152350020Y-96918631D01*
X152372215Y-96888569D01*
X152384097Y-96840254D01*
X152387624Y-96770650D01*
X152386712Y-96733624D01*
X152377609Y-96663728D01*
X152358828Y-96616464D01*
X152330476Y-96592168D01*
X152301840Y-96585332D01*
X152251970Y-96588537D01*
X152209833Y-96608380D01*
X152199749Y-96617480D01*
X152189063Y-96633223D01*
X152182456Y-96656658D01*
X152178532Y-96693604D01*
X152175897Y-96749880D01*
X152174749Y-96787236D01*
X152041915Y-96787236D01*
X152041831Y-96768917D01*
X152041944Y-96736184D01*
X152043872Y-96660044D01*
X152049240Y-96603166D01*
X152059406Y-96561249D01*
X152075725Y-96529996D01*
X152099553Y-96505106D01*
X152132247Y-96482282D01*
X152158759Y-96469184D01*
X152221615Y-96454739D01*
X152287869Y-96456707D01*
X152346757Y-96475433D01*
X152372030Y-96487673D01*
X152384742Y-96488938D01*
X152387624Y-96477798D01*
X152387626Y-96477461D01*
X152393838Y-96466087D01*
X152415260Y-96460256D01*
X152456782Y-96458614D01*
X152525940Y-96458614D01*
X152525940Y-96770650D01*
X152525940Y-98019136D01*
G36*
X152525940Y-98019136D02*
G01*
X152459926Y-98015336D01*
X152393911Y-98011535D01*
X152390772Y-97810347D01*
X152389844Y-97761425D01*
X152387208Y-97687926D01*
X152382683Y-97633991D01*
X152375438Y-97595995D01*
X152364642Y-97570313D01*
X152349462Y-97553320D01*
X152329066Y-97541389D01*
X152290797Y-97529205D01*
X152252738Y-97533940D01*
X152212549Y-97559979D01*
X152173861Y-97592533D01*
X152173861Y-98017822D01*
X152035544Y-98017822D01*
X152035544Y-97787176D01*
X152035677Y-97714882D01*
X152036413Y-97650641D01*
X152038181Y-97603618D01*
X152041411Y-97569548D01*
X152046530Y-97544170D01*
X152053967Y-97523221D01*
X152064150Y-97502436D01*
X152066564Y-97498024D01*
X152098675Y-97455047D01*
X152136256Y-97425013D01*
X152181564Y-97409243D01*
X152241561Y-97402222D01*
X152301643Y-97406025D01*
X152350525Y-97420868D01*
X152387624Y-97440052D01*
X152387624Y-97024859D01*
X152336792Y-97051354D01*
X152315558Y-97060980D01*
X152248536Y-97074592D01*
X152181930Y-97065184D01*
X152120187Y-97033905D01*
X152067757Y-96981902D01*
X152059543Y-96969680D01*
X152051649Y-96951763D01*
X152046500Y-96927404D01*
X152043527Y-96891927D01*
X152042161Y-96840656D01*
X152041915Y-96787236D01*
X152174749Y-96787236D01*
X152174861Y-96831849D01*
X152178272Y-96861601D01*
X152185937Y-96882835D01*
X152198814Y-96901896D01*
X152215171Y-96919617D01*
X152241329Y-96933028D01*
X152280742Y-96936436D01*
X152315559Y-96933471D01*
X152350020Y-96918631D01*
X152372215Y-96888569D01*
X152384097Y-96840254D01*
X152387624Y-96770650D01*
X152386712Y-96733624D01*
X152377609Y-96663728D01*
X152358828Y-96616464D01*
X152330476Y-96592168D01*
X152301840Y-96585332D01*
X152251970Y-96588537D01*
X152209833Y-96608380D01*
X152199749Y-96617480D01*
X152189063Y-96633223D01*
X152182456Y-96656658D01*
X152178532Y-96693604D01*
X152175897Y-96749880D01*
X152174749Y-96787236D01*
X152041915Y-96787236D01*
X152041831Y-96768917D01*
X152041944Y-96736184D01*
X152043872Y-96660044D01*
X152049240Y-96603166D01*
X152059406Y-96561249D01*
X152075725Y-96529996D01*
X152099553Y-96505106D01*
X152132247Y-96482282D01*
X152158759Y-96469184D01*
X152221615Y-96454739D01*
X152287869Y-96456707D01*
X152346757Y-96475433D01*
X152372030Y-96487673D01*
X152384742Y-96488938D01*
X152387624Y-96477798D01*
X152387626Y-96477461D01*
X152393838Y-96466087D01*
X152415260Y-96460256D01*
X152456782Y-96458614D01*
X152525940Y-96458614D01*
X152525940Y-96770650D01*
X152525940Y-98019136D01*
G37*
X150614389Y-92290018D02*
X150671237Y-92591570D01*
X150881001Y-92678041D01*
X151090764Y-92764512D01*
X151342410Y-92593395D01*
X151392216Y-92559661D01*
X151458244Y-92515381D01*
X151515410Y-92477561D01*
X151560744Y-92448142D01*
X151591280Y-92429067D01*
X151604046Y-92422278D01*
X151611887Y-92427106D01*
X151635325Y-92447339D01*
X151670794Y-92480543D01*
X151715289Y-92523670D01*
X151765805Y-92573670D01*
X151819336Y-92627495D01*
X151872877Y-92682095D01*
X151923423Y-92734423D01*
X151967968Y-92781428D01*
X152003507Y-92820063D01*
X152027034Y-92847278D01*
X152035544Y-92860024D01*
X152033565Y-92865500D01*
X152019857Y-92889927D01*
X151994825Y-92930129D01*
X151960499Y-92982952D01*
X151918907Y-93045247D01*
X151872079Y-93113862D01*
X151846380Y-93151283D01*
X151802173Y-93216432D01*
X151764272Y-93273289D01*
X151734698Y-93318770D01*
X151715472Y-93349793D01*
X151708614Y-93363274D01*
X151708726Y-93364021D01*
X151714776Y-93381110D01*
X151728654Y-93416006D01*
X151748427Y-93464151D01*
X151772160Y-93520986D01*
X151797918Y-93581953D01*
X151823766Y-93642492D01*
X151847771Y-93698047D01*
X151867998Y-93744057D01*
X151882511Y-93775965D01*
X151889377Y-93789212D01*
X151893439Y-93790387D01*
X151918121Y-93795687D01*
X151962111Y-93804467D01*
X152021887Y-93816040D01*
X152093929Y-93829721D01*
X152174716Y-93844823D01*
X152217294Y-93852830D01*
X152295445Y-93868107D01*
X152363775Y-93882215D01*
X152418551Y-93894345D01*
X152456037Y-93903686D01*
X152472500Y-93909427D01*
X152475457Y-93915119D01*
X152480362Y-93942930D01*
X152484216Y-93989250D01*
X152487021Y-94049720D01*
X152488781Y-94119983D01*
X152489499Y-94195680D01*
X152489177Y-94272453D01*
X152487819Y-94345944D01*
X152485428Y-94411794D01*
X152482006Y-94465645D01*
X152477556Y-94503138D01*
X152472082Y-94519916D01*
X152468760Y-94521809D01*
X152443987Y-94529926D01*
X152401011Y-94540666D01*
X152344802Y-94552853D01*
X152280325Y-94565310D01*
X152258570Y-94569277D01*
X152158093Y-94587729D01*
X152079126Y-94602559D01*
X152018934Y-94614380D01*
X151974778Y-94623809D01*
X151943920Y-94631460D01*
X151923625Y-94637948D01*
X151911154Y-94643888D01*
X151903771Y-94649894D01*
X151902913Y-94650902D01*
X151890838Y-94671919D01*
X151872971Y-94710376D01*
X151851042Y-94761761D01*
X151826784Y-94821563D01*
X151801927Y-94885270D01*
X151778205Y-94948371D01*
X151757347Y-95006355D01*
X151741087Y-95054709D01*
X151731156Y-95088922D01*
X151729285Y-95104483D01*
X151730536Y-95106502D01*
X151743486Y-95126028D01*
X151767840Y-95162042D01*
X151801340Y-95211228D01*
X151841727Y-95270267D01*
X151886745Y-95335842D01*
X151899100Y-95353884D01*
X151942545Y-95418599D01*
X151980091Y-95476476D01*
X152009594Y-95524082D01*
X152028914Y-95557985D01*
X152035905Y-95574752D01*
X152034398Y-95579161D01*
X152018695Y-95600882D01*
X151987714Y-95636354D01*
X151943673Y-95683188D01*
X151888790Y-95738996D01*
X151825286Y-95801392D01*
X151788988Y-95836317D01*
X151731595Y-95890711D01*
X151681361Y-95937302D01*
X151640984Y-95973636D01*
X151613161Y-95997261D01*
X151600590Y-96005724D01*
X151591952Y-96002587D01*
X151565360Y-95987747D01*
X151526741Y-95963477D01*
X151481134Y-95932852D01*
X151448707Y-95910503D01*
X151383970Y-95866122D01*
X151314886Y-95818987D01*
X151251787Y-95776155D01*
X151128178Y-95692547D01*
X151024417Y-95748650D01*
X150999984Y-95761599D01*
X150955552Y-95783749D01*
X150921191Y-95799041D01*
X150902828Y-95804743D01*
X150896818Y-95797421D01*
X150881895Y-95769541D01*
X150859852Y-95723575D01*
X150831917Y-95662441D01*
X150799317Y-95589055D01*
X150763276Y-95506335D01*
X150725023Y-95417197D01*
X150685783Y-95324559D01*
X150646783Y-95231337D01*
X150609249Y-95140450D01*
X150574409Y-95054814D01*
X150543488Y-94977345D01*
X150517714Y-94910962D01*
X150498311Y-94858582D01*
X150486508Y-94823121D01*
X150483531Y-94807496D01*
X150483732Y-94807039D01*
X150497601Y-94792595D01*
X150526611Y-94769974D01*
X150564772Y-94743864D01*
X150576817Y-94735892D01*
X150668469Y-94660256D01*
X150744323Y-94570169D01*
X150802581Y-94469381D01*
X150841448Y-94361640D01*
X150859128Y-94250697D01*
X150853826Y-94140303D01*
X150832347Y-94042115D01*
X150793782Y-93942966D01*
X150737562Y-93854512D01*
X150660410Y-93770487D01*
X150630095Y-93743645D01*
X150532094Y-93677510D01*
X150426227Y-93632970D01*
X150315561Y-93609625D01*
X150203164Y-93607078D01*
X150092105Y-93624929D01*
X149985451Y-93662780D01*
X149886270Y-93720232D01*
X149797631Y-93796887D01*
X149722600Y-93892345D01*
X149708175Y-93915985D01*
X149659143Y-94024034D01*
X149633103Y-94136548D01*
X149629372Y-94250614D01*
X149647268Y-94363318D01*
X149686109Y-94471745D01*
X149745214Y-94572982D01*
X149823900Y-94664114D01*
X149921485Y-94742228D01*
X149924654Y-94744333D01*
X149962411Y-94770940D01*
X149990709Y-94793561D01*
X150003634Y-94807496D01*
X150002003Y-94818421D01*
X149991864Y-94850231D01*
X149973884Y-94899534D01*
X149949292Y-94963413D01*
X149919311Y-95038948D01*
X149885170Y-95123223D01*
X149848092Y-95213320D01*
X149809306Y-95306321D01*
X149770036Y-95399308D01*
X149731509Y-95489364D01*
X149694950Y-95573571D01*
X149661586Y-95649010D01*
X149632643Y-95712765D01*
X149609346Y-95761917D01*
X149592923Y-95793549D01*
X149584598Y-95804743D01*
X149577674Y-95803227D01*
X149550477Y-95792331D01*
X149510280Y-95773228D01*
X149463009Y-95748650D01*
X149359248Y-95692547D01*
X149235639Y-95776155D01*
X149199120Y-95800913D01*
X149131194Y-95847171D01*
X149063475Y-95893503D01*
X149006291Y-95932852D01*
X148974732Y-95954297D01*
X148933714Y-95980939D01*
X148903301Y-95999178D01*
X148888446Y-96005941D01*
X148882065Y-96003070D01*
X148858996Y-95985485D01*
X148823433Y-95954523D01*
X148778471Y-95913231D01*
X148727206Y-95864653D01*
X148672733Y-95811835D01*
X148618148Y-95757823D01*
X148566547Y-95705661D01*
X148521024Y-95658396D01*
X148484675Y-95619072D01*
X148460595Y-95590736D01*
X148451881Y-95576432D01*
X148452383Y-95573711D01*
X148462755Y-95551560D01*
X148484912Y-95513235D01*
X148516712Y-95462200D01*
X148556016Y-95401914D01*
X148600681Y-95335842D01*
X148613207Y-95317617D01*
X148657193Y-95253485D01*
X148695937Y-95196789D01*
X148727182Y-95150844D01*
X148748669Y-95118970D01*
X148758140Y-95104483D01*
X148758373Y-95103862D01*
X148755578Y-95086139D01*
X148744903Y-95050235D01*
X148728081Y-95000662D01*
X148706843Y-94941932D01*
X148682921Y-94878556D01*
X148658046Y-94815046D01*
X148633950Y-94755913D01*
X148612365Y-94705669D01*
X148595023Y-94668826D01*
X148583655Y-94649894D01*
X148582516Y-94648719D01*
X148574376Y-94642773D01*
X148560629Y-94636776D01*
X148538537Y-94630114D01*
X148505363Y-94622173D01*
X148458370Y-94612337D01*
X148394820Y-94599991D01*
X148311976Y-94584520D01*
X148207100Y-94565310D01*
X148185348Y-94561267D01*
X148123036Y-94548769D01*
X148070619Y-94536927D01*
X148033066Y-94526917D01*
X148015343Y-94519916D01*
X148012378Y-94514075D01*
X148007435Y-94486016D01*
X148003518Y-94439500D01*
X148000629Y-94378886D01*
X147998773Y-94308532D01*
X147997952Y-94232796D01*
X147998168Y-94156037D01*
X147999426Y-94082612D01*
X148001728Y-94016880D01*
X148005076Y-93963200D01*
X148009474Y-93925930D01*
X148014926Y-93909427D01*
X148020491Y-93906989D01*
X148048178Y-93899305D01*
X148094979Y-93888436D01*
X148157157Y-93875192D01*
X148230979Y-93860384D01*
X148312710Y-93844823D01*
X148357336Y-93836509D01*
X148433824Y-93822092D01*
X148499660Y-93809467D01*
X148551323Y-93799321D01*
X148585293Y-93792341D01*
X148598048Y-93789212D01*
X148598528Y-93788568D01*
X148606651Y-93772181D01*
X148622137Y-93737852D01*
X148643050Y-93690136D01*
X148667455Y-93633586D01*
X148693416Y-93572758D01*
X148718997Y-93512206D01*
X148742262Y-93456485D01*
X148761277Y-93410150D01*
X148774105Y-93377755D01*
X148778812Y-93363855D01*
X148776736Y-93358965D01*
X148762920Y-93335692D01*
X148737860Y-93296519D01*
X148703568Y-93244520D01*
X148662059Y-93182768D01*
X148615346Y-93114336D01*
X148589718Y-93076860D01*
X148545490Y-93011156D01*
X148507570Y-92953492D01*
X148477980Y-92907014D01*
X148458743Y-92874865D01*
X148451881Y-92860190D01*
X148456649Y-92852230D01*
X148476593Y-92828446D01*
X148509313Y-92792451D01*
X148551805Y-92747295D01*
X148601065Y-92696028D01*
X148654091Y-92641701D01*
X148707877Y-92587364D01*
X148759421Y-92536067D01*
X148805720Y-92490859D01*
X148843769Y-92454792D01*
X148870565Y-92430914D01*
X148883105Y-92422278D01*
X148890066Y-92425636D01*
X148915627Y-92441210D01*
X148956874Y-92467715D01*
X149010837Y-92503210D01*
X149074542Y-92545750D01*
X149145016Y-92593395D01*
X149396662Y-92764512D01*
X149816188Y-92591570D01*
X149873036Y-92290018D01*
X149929885Y-91988466D01*
X150557540Y-91988466D01*
X150614389Y-92290018D01*
G36*
X150614389Y-92290018D02*
G01*
X150671237Y-92591570D01*
X150881001Y-92678041D01*
X151090764Y-92764512D01*
X151342410Y-92593395D01*
X151392216Y-92559661D01*
X151458244Y-92515381D01*
X151515410Y-92477561D01*
X151560744Y-92448142D01*
X151591280Y-92429067D01*
X151604046Y-92422278D01*
X151611887Y-92427106D01*
X151635325Y-92447339D01*
X151670794Y-92480543D01*
X151715289Y-92523670D01*
X151765805Y-92573670D01*
X151819336Y-92627495D01*
X151872877Y-92682095D01*
X151923423Y-92734423D01*
X151967968Y-92781428D01*
X152003507Y-92820063D01*
X152027034Y-92847278D01*
X152035544Y-92860024D01*
X152033565Y-92865500D01*
X152019857Y-92889927D01*
X151994825Y-92930129D01*
X151960499Y-92982952D01*
X151918907Y-93045247D01*
X151872079Y-93113862D01*
X151846380Y-93151283D01*
X151802173Y-93216432D01*
X151764272Y-93273289D01*
X151734698Y-93318770D01*
X151715472Y-93349793D01*
X151708614Y-93363274D01*
X151708726Y-93364021D01*
X151714776Y-93381110D01*
X151728654Y-93416006D01*
X151748427Y-93464151D01*
X151772160Y-93520986D01*
X151797918Y-93581953D01*
X151823766Y-93642492D01*
X151847771Y-93698047D01*
X151867998Y-93744057D01*
X151882511Y-93775965D01*
X151889377Y-93789212D01*
X151893439Y-93790387D01*
X151918121Y-93795687D01*
X151962111Y-93804467D01*
X152021887Y-93816040D01*
X152093929Y-93829721D01*
X152174716Y-93844823D01*
X152217294Y-93852830D01*
X152295445Y-93868107D01*
X152363775Y-93882215D01*
X152418551Y-93894345D01*
X152456037Y-93903686D01*
X152472500Y-93909427D01*
X152475457Y-93915119D01*
X152480362Y-93942930D01*
X152484216Y-93989250D01*
X152487021Y-94049720D01*
X152488781Y-94119983D01*
X152489499Y-94195680D01*
X152489177Y-94272453D01*
X152487819Y-94345944D01*
X152485428Y-94411794D01*
X152482006Y-94465645D01*
X152477556Y-94503138D01*
X152472082Y-94519916D01*
X152468760Y-94521809D01*
X152443987Y-94529926D01*
X152401011Y-94540666D01*
X152344802Y-94552853D01*
X152280325Y-94565310D01*
X152258570Y-94569277D01*
X152158093Y-94587729D01*
X152079126Y-94602559D01*
X152018934Y-94614380D01*
X151974778Y-94623809D01*
X151943920Y-94631460D01*
X151923625Y-94637948D01*
X151911154Y-94643888D01*
X151903771Y-94649894D01*
X151902913Y-94650902D01*
X151890838Y-94671919D01*
X151872971Y-94710376D01*
X151851042Y-94761761D01*
X151826784Y-94821563D01*
X151801927Y-94885270D01*
X151778205Y-94948371D01*
X151757347Y-95006355D01*
X151741087Y-95054709D01*
X151731156Y-95088922D01*
X151729285Y-95104483D01*
X151730536Y-95106502D01*
X151743486Y-95126028D01*
X151767840Y-95162042D01*
X151801340Y-95211228D01*
X151841727Y-95270267D01*
X151886745Y-95335842D01*
X151899100Y-95353884D01*
X151942545Y-95418599D01*
X151980091Y-95476476D01*
X152009594Y-95524082D01*
X152028914Y-95557985D01*
X152035905Y-95574752D01*
X152034398Y-95579161D01*
X152018695Y-95600882D01*
X151987714Y-95636354D01*
X151943673Y-95683188D01*
X151888790Y-95738996D01*
X151825286Y-95801392D01*
X151788988Y-95836317D01*
X151731595Y-95890711D01*
X151681361Y-95937302D01*
X151640984Y-95973636D01*
X151613161Y-95997261D01*
X151600590Y-96005724D01*
X151591952Y-96002587D01*
X151565360Y-95987747D01*
X151526741Y-95963477D01*
X151481134Y-95932852D01*
X151448707Y-95910503D01*
X151383970Y-95866122D01*
X151314886Y-95818987D01*
X151251787Y-95776155D01*
X151128178Y-95692547D01*
X151024417Y-95748650D01*
X150999984Y-95761599D01*
X150955552Y-95783749D01*
X150921191Y-95799041D01*
X150902828Y-95804743D01*
X150896818Y-95797421D01*
X150881895Y-95769541D01*
X150859852Y-95723575D01*
X150831917Y-95662441D01*
X150799317Y-95589055D01*
X150763276Y-95506335D01*
X150725023Y-95417197D01*
X150685783Y-95324559D01*
X150646783Y-95231337D01*
X150609249Y-95140450D01*
X150574409Y-95054814D01*
X150543488Y-94977345D01*
X150517714Y-94910962D01*
X150498311Y-94858582D01*
X150486508Y-94823121D01*
X150483531Y-94807496D01*
X150483732Y-94807039D01*
X150497601Y-94792595D01*
X150526611Y-94769974D01*
X150564772Y-94743864D01*
X150576817Y-94735892D01*
X150668469Y-94660256D01*
X150744323Y-94570169D01*
X150802581Y-94469381D01*
X150841448Y-94361640D01*
X150859128Y-94250697D01*
X150853826Y-94140303D01*
X150832347Y-94042115D01*
X150793782Y-93942966D01*
X150737562Y-93854512D01*
X150660410Y-93770487D01*
X150630095Y-93743645D01*
X150532094Y-93677510D01*
X150426227Y-93632970D01*
X150315561Y-93609625D01*
X150203164Y-93607078D01*
X150092105Y-93624929D01*
X149985451Y-93662780D01*
X149886270Y-93720232D01*
X149797631Y-93796887D01*
X149722600Y-93892345D01*
X149708175Y-93915985D01*
X149659143Y-94024034D01*
X149633103Y-94136548D01*
X149629372Y-94250614D01*
X149647268Y-94363318D01*
X149686109Y-94471745D01*
X149745214Y-94572982D01*
X149823900Y-94664114D01*
X149921485Y-94742228D01*
X149924654Y-94744333D01*
X149962411Y-94770940D01*
X149990709Y-94793561D01*
X150003634Y-94807496D01*
X150002003Y-94818421D01*
X149991864Y-94850231D01*
X149973884Y-94899534D01*
X149949292Y-94963413D01*
X149919311Y-95038948D01*
X149885170Y-95123223D01*
X149848092Y-95213320D01*
X149809306Y-95306321D01*
X149770036Y-95399308D01*
X149731509Y-95489364D01*
X149694950Y-95573571D01*
X149661586Y-95649010D01*
X149632643Y-95712765D01*
X149609346Y-95761917D01*
X149592923Y-95793549D01*
X149584598Y-95804743D01*
X149577674Y-95803227D01*
X149550477Y-95792331D01*
X149510280Y-95773228D01*
X149463009Y-95748650D01*
X149359248Y-95692547D01*
X149235639Y-95776155D01*
X149199120Y-95800913D01*
X149131194Y-95847171D01*
X149063475Y-95893503D01*
X149006291Y-95932852D01*
X148974732Y-95954297D01*
X148933714Y-95980939D01*
X148903301Y-95999178D01*
X148888446Y-96005941D01*
X148882065Y-96003070D01*
X148858996Y-95985485D01*
X148823433Y-95954523D01*
X148778471Y-95913231D01*
X148727206Y-95864653D01*
X148672733Y-95811835D01*
X148618148Y-95757823D01*
X148566547Y-95705661D01*
X148521024Y-95658396D01*
X148484675Y-95619072D01*
X148460595Y-95590736D01*
X148451881Y-95576432D01*
X148452383Y-95573711D01*
X148462755Y-95551560D01*
X148484912Y-95513235D01*
X148516712Y-95462200D01*
X148556016Y-95401914D01*
X148600681Y-95335842D01*
X148613207Y-95317617D01*
X148657193Y-95253485D01*
X148695937Y-95196789D01*
X148727182Y-95150844D01*
X148748669Y-95118970D01*
X148758140Y-95104483D01*
X148758373Y-95103862D01*
X148755578Y-95086139D01*
X148744903Y-95050235D01*
X148728081Y-95000662D01*
X148706843Y-94941932D01*
X148682921Y-94878556D01*
X148658046Y-94815046D01*
X148633950Y-94755913D01*
X148612365Y-94705669D01*
X148595023Y-94668826D01*
X148583655Y-94649894D01*
X148582516Y-94648719D01*
X148574376Y-94642773D01*
X148560629Y-94636776D01*
X148538537Y-94630114D01*
X148505363Y-94622173D01*
X148458370Y-94612337D01*
X148394820Y-94599991D01*
X148311976Y-94584520D01*
X148207100Y-94565310D01*
X148185348Y-94561267D01*
X148123036Y-94548769D01*
X148070619Y-94536927D01*
X148033066Y-94526917D01*
X148015343Y-94519916D01*
X148012378Y-94514075D01*
X148007435Y-94486016D01*
X148003518Y-94439500D01*
X148000629Y-94378886D01*
X147998773Y-94308532D01*
X147997952Y-94232796D01*
X147998168Y-94156037D01*
X147999426Y-94082612D01*
X148001728Y-94016880D01*
X148005076Y-93963200D01*
X148009474Y-93925930D01*
X148014926Y-93909427D01*
X148020491Y-93906989D01*
X148048178Y-93899305D01*
X148094979Y-93888436D01*
X148157157Y-93875192D01*
X148230979Y-93860384D01*
X148312710Y-93844823D01*
X148357336Y-93836509D01*
X148433824Y-93822092D01*
X148499660Y-93809467D01*
X148551323Y-93799321D01*
X148585293Y-93792341D01*
X148598048Y-93789212D01*
X148598528Y-93788568D01*
X148606651Y-93772181D01*
X148622137Y-93737852D01*
X148643050Y-93690136D01*
X148667455Y-93633586D01*
X148693416Y-93572758D01*
X148718997Y-93512206D01*
X148742262Y-93456485D01*
X148761277Y-93410150D01*
X148774105Y-93377755D01*
X148778812Y-93363855D01*
X148776736Y-93358965D01*
X148762920Y-93335692D01*
X148737860Y-93296519D01*
X148703568Y-93244520D01*
X148662059Y-93182768D01*
X148615346Y-93114336D01*
X148589718Y-93076860D01*
X148545490Y-93011156D01*
X148507570Y-92953492D01*
X148477980Y-92907014D01*
X148458743Y-92874865D01*
X148451881Y-92860190D01*
X148456649Y-92852230D01*
X148476593Y-92828446D01*
X148509313Y-92792451D01*
X148551805Y-92747295D01*
X148601065Y-92696028D01*
X148654091Y-92641701D01*
X148707877Y-92587364D01*
X148759421Y-92536067D01*
X148805720Y-92490859D01*
X148843769Y-92454792D01*
X148870565Y-92430914D01*
X148883105Y-92422278D01*
X148890066Y-92425636D01*
X148915627Y-92441210D01*
X148956874Y-92467715D01*
X149010837Y-92503210D01*
X149074542Y-92545750D01*
X149145016Y-92593395D01*
X149396662Y-92764512D01*
X149816188Y-92591570D01*
X149873036Y-92290018D01*
X149929885Y-91988466D01*
X150557540Y-91988466D01*
X150614389Y-92290018D01*
G37*
D13*
%TO.C,U4*%
X164140000Y-94250000D02*
X164140000Y-93450000D01*
X164140000Y-94250000D02*
X164140000Y-95050000D01*
X167360000Y-93250000D02*
X167360000Y-95050000D01*
X164190000Y-92950000D02*
X163860000Y-93190000D01*
X163860000Y-92710000D01*
X164190000Y-92950000D01*
G36*
X164190000Y-92950000D02*
G01*
X163860000Y-93190000D01*
X163860000Y-92710000D01*
X164190000Y-92950000D01*
G37*
%TO.C,R2*%
X138227500Y-103754724D02*
X138227500Y-103245276D01*
X139272500Y-103754724D02*
X139272500Y-103245276D01*
%TO.C,U3*%
X135990000Y-98420000D02*
X135990000Y-99350000D01*
X135990000Y-101580000D02*
X135990000Y-100650000D01*
X135990000Y-101580000D02*
X137450000Y-101580000D01*
X136790000Y-98420000D02*
X135990000Y-98420000D01*
X136790000Y-98420000D02*
X137590000Y-98420000D01*
X138090000Y-98390000D02*
X137850000Y-98060000D01*
X138330000Y-98060000D01*
X138090000Y-98390000D01*
G36*
X138090000Y-98390000D02*
G01*
X137850000Y-98060000D01*
X138330000Y-98060000D01*
X138090000Y-98390000D01*
G37*
%TO.C,R3*%
X166004724Y-89727500D02*
X165495276Y-89727500D01*
X166004724Y-90772500D02*
X165495276Y-90772500D01*
%TD*%
M02*
