%TF.GenerationSoftware,KiCad,Pcbnew,9.0.1*%
%TF.CreationDate,2026-03-03T11:13:27-05:00*%
%TF.ProjectId,RPiLinearServo,5250694c-696e-4656-9172-536572766f2e,rev?*%
%TF.SameCoordinates,Original*%
%TF.FileFunction,Legend,Top*%
%TF.FilePolarity,Positive*%
%FSLAX46Y46*%
G04 Gerber Fmt 4.6, Leading zero omitted, Abs format (unit mm)*
G04 Created by KiCad (PCBNEW 9.0.1) date 2026-03-03 11:13:27*
%MOMM*%
%LPD*%
G01*
G04 APERTURE LIST*
%ADD10C,0.100000*%
%ADD11C,0.150000*%
%ADD12C,0.127000*%
%ADD13C,0.200000*%
%ADD14C,0.120000*%
G04 APERTURE END LIST*
D10*
X161756265Y-84324800D02*
X161899122Y-84372419D01*
X161899122Y-84372419D02*
X162137217Y-84372419D01*
X162137217Y-84372419D02*
X162232455Y-84324800D01*
X162232455Y-84324800D02*
X162280074Y-84277180D01*
X162280074Y-84277180D02*
X162327693Y-84181942D01*
X162327693Y-84181942D02*
X162327693Y-84086704D01*
X162327693Y-84086704D02*
X162280074Y-83991466D01*
X162280074Y-83991466D02*
X162232455Y-83943847D01*
X162232455Y-83943847D02*
X162137217Y-83896228D01*
X162137217Y-83896228D02*
X161946741Y-83848609D01*
X161946741Y-83848609D02*
X161851503Y-83800990D01*
X161851503Y-83800990D02*
X161803884Y-83753371D01*
X161803884Y-83753371D02*
X161756265Y-83658133D01*
X161756265Y-83658133D02*
X161756265Y-83562895D01*
X161756265Y-83562895D02*
X161803884Y-83467657D01*
X161803884Y-83467657D02*
X161851503Y-83420038D01*
X161851503Y-83420038D02*
X161946741Y-83372419D01*
X161946741Y-83372419D02*
X162184836Y-83372419D01*
X162184836Y-83372419D02*
X162327693Y-83420038D01*
X162756265Y-84372419D02*
X162756265Y-83372419D01*
X163756264Y-83420038D02*
X163661026Y-83372419D01*
X163661026Y-83372419D02*
X163518169Y-83372419D01*
X163518169Y-83372419D02*
X163375312Y-83420038D01*
X163375312Y-83420038D02*
X163280074Y-83515276D01*
X163280074Y-83515276D02*
X163232455Y-83610514D01*
X163232455Y-83610514D02*
X163184836Y-83800990D01*
X163184836Y-83800990D02*
X163184836Y-83943847D01*
X163184836Y-83943847D02*
X163232455Y-84134323D01*
X163232455Y-84134323D02*
X163280074Y-84229561D01*
X163280074Y-84229561D02*
X163375312Y-84324800D01*
X163375312Y-84324800D02*
X163518169Y-84372419D01*
X163518169Y-84372419D02*
X163613407Y-84372419D01*
X163613407Y-84372419D02*
X163756264Y-84324800D01*
X163756264Y-84324800D02*
X163803883Y-84277180D01*
X163803883Y-84277180D02*
X163803883Y-83943847D01*
X163803883Y-83943847D02*
X163613407Y-83943847D01*
X163053884Y-81241466D02*
X163815789Y-81241466D01*
X163434836Y-81622419D02*
X163434836Y-80860514D01*
X163053884Y-78241466D02*
X163815789Y-78241466D01*
D11*
X132083333Y-82859580D02*
X132035714Y-82907200D01*
X132035714Y-82907200D02*
X131892857Y-82954819D01*
X131892857Y-82954819D02*
X131797619Y-82954819D01*
X131797619Y-82954819D02*
X131654762Y-82907200D01*
X131654762Y-82907200D02*
X131559524Y-82811961D01*
X131559524Y-82811961D02*
X131511905Y-82716723D01*
X131511905Y-82716723D02*
X131464286Y-82526247D01*
X131464286Y-82526247D02*
X131464286Y-82383390D01*
X131464286Y-82383390D02*
X131511905Y-82192914D01*
X131511905Y-82192914D02*
X131559524Y-82097676D01*
X131559524Y-82097676D02*
X131654762Y-82002438D01*
X131654762Y-82002438D02*
X131797619Y-81954819D01*
X131797619Y-81954819D02*
X131892857Y-81954819D01*
X131892857Y-81954819D02*
X132035714Y-82002438D01*
X132035714Y-82002438D02*
X132083333Y-82050057D01*
X133035714Y-82954819D02*
X132464286Y-82954819D01*
X132750000Y-82954819D02*
X132750000Y-81954819D01*
X132750000Y-81954819D02*
X132654762Y-82097676D01*
X132654762Y-82097676D02*
X132559524Y-82192914D01*
X132559524Y-82192914D02*
X132464286Y-82240533D01*
X143988095Y-84454819D02*
X143988095Y-85264342D01*
X143988095Y-85264342D02*
X144035714Y-85359580D01*
X144035714Y-85359580D02*
X144083333Y-85407200D01*
X144083333Y-85407200D02*
X144178571Y-85454819D01*
X144178571Y-85454819D02*
X144369047Y-85454819D01*
X144369047Y-85454819D02*
X144464285Y-85407200D01*
X144464285Y-85407200D02*
X144511904Y-85359580D01*
X144511904Y-85359580D02*
X144559523Y-85264342D01*
X144559523Y-85264342D02*
X144559523Y-84454819D01*
X144988095Y-84550057D02*
X145035714Y-84502438D01*
X145035714Y-84502438D02*
X145130952Y-84454819D01*
X145130952Y-84454819D02*
X145369047Y-84454819D01*
X145369047Y-84454819D02*
X145464285Y-84502438D01*
X145464285Y-84502438D02*
X145511904Y-84550057D01*
X145511904Y-84550057D02*
X145559523Y-84645295D01*
X145559523Y-84645295D02*
X145559523Y-84740533D01*
X145559523Y-84740533D02*
X145511904Y-84883390D01*
X145511904Y-84883390D02*
X144940476Y-85454819D01*
X144940476Y-85454819D02*
X145559523Y-85454819D01*
X151833333Y-105704819D02*
X151500000Y-105228628D01*
X151261905Y-105704819D02*
X151261905Y-104704819D01*
X151261905Y-104704819D02*
X151642857Y-104704819D01*
X151642857Y-104704819D02*
X151738095Y-104752438D01*
X151738095Y-104752438D02*
X151785714Y-104800057D01*
X151785714Y-104800057D02*
X151833333Y-104895295D01*
X151833333Y-104895295D02*
X151833333Y-105038152D01*
X151833333Y-105038152D02*
X151785714Y-105133390D01*
X151785714Y-105133390D02*
X151738095Y-105181009D01*
X151738095Y-105181009D02*
X151642857Y-105228628D01*
X151642857Y-105228628D02*
X151261905Y-105228628D01*
X152785714Y-105704819D02*
X152214286Y-105704819D01*
X152500000Y-105704819D02*
X152500000Y-104704819D01*
X152500000Y-104704819D02*
X152404762Y-104847676D01*
X152404762Y-104847676D02*
X152309524Y-104942914D01*
X152309524Y-104942914D02*
X152214286Y-104990533D01*
X127488095Y-82204819D02*
X127488095Y-83014342D01*
X127488095Y-83014342D02*
X127535714Y-83109580D01*
X127535714Y-83109580D02*
X127583333Y-83157200D01*
X127583333Y-83157200D02*
X127678571Y-83204819D01*
X127678571Y-83204819D02*
X127869047Y-83204819D01*
X127869047Y-83204819D02*
X127964285Y-83157200D01*
X127964285Y-83157200D02*
X128011904Y-83109580D01*
X128011904Y-83109580D02*
X128059523Y-83014342D01*
X128059523Y-83014342D02*
X128059523Y-82204819D01*
X129059523Y-83204819D02*
X128488095Y-83204819D01*
X128773809Y-83204819D02*
X128773809Y-82204819D01*
X128773809Y-82204819D02*
X128678571Y-82347676D01*
X128678571Y-82347676D02*
X128583333Y-82442914D01*
X128583333Y-82442914D02*
X128488095Y-82490533D01*
X142333333Y-82359580D02*
X142285714Y-82407200D01*
X142285714Y-82407200D02*
X142142857Y-82454819D01*
X142142857Y-82454819D02*
X142047619Y-82454819D01*
X142047619Y-82454819D02*
X141904762Y-82407200D01*
X141904762Y-82407200D02*
X141809524Y-82311961D01*
X141809524Y-82311961D02*
X141761905Y-82216723D01*
X141761905Y-82216723D02*
X141714286Y-82026247D01*
X141714286Y-82026247D02*
X141714286Y-81883390D01*
X141714286Y-81883390D02*
X141761905Y-81692914D01*
X141761905Y-81692914D02*
X141809524Y-81597676D01*
X141809524Y-81597676D02*
X141904762Y-81502438D01*
X141904762Y-81502438D02*
X142047619Y-81454819D01*
X142047619Y-81454819D02*
X142142857Y-81454819D01*
X142142857Y-81454819D02*
X142285714Y-81502438D01*
X142285714Y-81502438D02*
X142333333Y-81550057D01*
X142714286Y-81550057D02*
X142761905Y-81502438D01*
X142761905Y-81502438D02*
X142857143Y-81454819D01*
X142857143Y-81454819D02*
X143095238Y-81454819D01*
X143095238Y-81454819D02*
X143190476Y-81502438D01*
X143190476Y-81502438D02*
X143238095Y-81550057D01*
X143238095Y-81550057D02*
X143285714Y-81645295D01*
X143285714Y-81645295D02*
X143285714Y-81740533D01*
X143285714Y-81740533D02*
X143238095Y-81883390D01*
X143238095Y-81883390D02*
X142666667Y-82454819D01*
X142666667Y-82454819D02*
X143285714Y-82454819D01*
X147833333Y-84609580D02*
X147785714Y-84657200D01*
X147785714Y-84657200D02*
X147642857Y-84704819D01*
X147642857Y-84704819D02*
X147547619Y-84704819D01*
X147547619Y-84704819D02*
X147404762Y-84657200D01*
X147404762Y-84657200D02*
X147309524Y-84561961D01*
X147309524Y-84561961D02*
X147261905Y-84466723D01*
X147261905Y-84466723D02*
X147214286Y-84276247D01*
X147214286Y-84276247D02*
X147214286Y-84133390D01*
X147214286Y-84133390D02*
X147261905Y-83942914D01*
X147261905Y-83942914D02*
X147309524Y-83847676D01*
X147309524Y-83847676D02*
X147404762Y-83752438D01*
X147404762Y-83752438D02*
X147547619Y-83704819D01*
X147547619Y-83704819D02*
X147642857Y-83704819D01*
X147642857Y-83704819D02*
X147785714Y-83752438D01*
X147785714Y-83752438D02*
X147833333Y-83800057D01*
X148166667Y-83704819D02*
X148785714Y-83704819D01*
X148785714Y-83704819D02*
X148452381Y-84085771D01*
X148452381Y-84085771D02*
X148595238Y-84085771D01*
X148595238Y-84085771D02*
X148690476Y-84133390D01*
X148690476Y-84133390D02*
X148738095Y-84181009D01*
X148738095Y-84181009D02*
X148785714Y-84276247D01*
X148785714Y-84276247D02*
X148785714Y-84514342D01*
X148785714Y-84514342D02*
X148738095Y-84609580D01*
X148738095Y-84609580D02*
X148690476Y-84657200D01*
X148690476Y-84657200D02*
X148595238Y-84704819D01*
X148595238Y-84704819D02*
X148309524Y-84704819D01*
X148309524Y-84704819D02*
X148214286Y-84657200D01*
X148214286Y-84657200D02*
X148166667Y-84609580D01*
D12*
%TO.C,C1*%
X133700000Y-76700000D02*
X133700000Y-78880000D01*
X133700000Y-81120000D02*
X133700000Y-83300000D01*
X133700000Y-83300000D02*
X139300000Y-83300000D01*
X139300000Y-76700000D02*
X133700000Y-76700000D01*
X139300000Y-83300000D02*
X140300000Y-82300000D01*
X140300000Y-77700000D02*
X139300000Y-76700000D01*
X140300000Y-78880000D02*
X140300000Y-77700000D01*
X140300000Y-82300000D02*
X140300000Y-81120000D01*
D13*
X141250000Y-81350000D02*
G75*
G02*
X141050000Y-81350000I-100000J0D01*
G01*
X141050000Y-81350000D02*
G75*
G02*
X141250000Y-81350000I100000J0D01*
G01*
D14*
%TO.C,J1*%
X164370000Y-82480000D02*
X164370000Y-77290000D01*
X167130000Y-77290000D02*
X164370000Y-77290000D01*
X167130000Y-82480000D02*
X164370000Y-82480000D01*
X167130000Y-82480000D02*
X167130000Y-77290000D01*
X167130000Y-83750000D02*
X167130000Y-85130000D01*
X167130000Y-85130000D02*
X165750000Y-85130000D01*
D12*
%TO.C,U2*%
X144150000Y-87162500D02*
X144150000Y-103162500D01*
X145150000Y-104162500D02*
X166650000Y-104162500D01*
X166650000Y-86162500D02*
X145150000Y-86162500D01*
X167650000Y-103162500D02*
X167650000Y-87162500D01*
X144150000Y-87162500D02*
G75*
G02*
X145150000Y-86162500I999999J1D01*
G01*
X145150000Y-104162500D02*
G75*
G02*
X144150000Y-103162500I0J1000000D01*
G01*
X166650000Y-86162500D02*
G75*
G02*
X167650000Y-87162500I1J-999999D01*
G01*
X167650000Y-103162500D02*
G75*
G02*
X166650000Y-104162500I-1000000J0D01*
G01*
D13*
X166160000Y-104912500D02*
G75*
G02*
X165960000Y-104912500I-100000J0D01*
G01*
X165960000Y-104912500D02*
G75*
G02*
X166160000Y-104912500I100000J0D01*
G01*
D14*
%TO.C,R1*%
X154332776Y-104727500D02*
X154842224Y-104727500D01*
X154332776Y-105772500D02*
X154842224Y-105772500D01*
D12*
%TO.C,U1*%
X127630000Y-83840000D02*
X142870000Y-83840000D01*
X127630000Y-104160000D02*
X127630000Y-83840000D01*
X142870000Y-83840000D02*
X142870000Y-104160000D01*
X142870000Y-104160000D02*
X127630000Y-104160000D01*
D13*
X143550000Y-102890000D02*
G75*
G02*
X143350000Y-102890000I-100000J0D01*
G01*
X143350000Y-102890000D02*
G75*
G02*
X143550000Y-102890000I100000J0D01*
G01*
D14*
%TO.C,C2*%
X141765000Y-79261252D02*
X141765000Y-78738748D01*
X143235000Y-79261252D02*
X143235000Y-78738748D01*
D12*
%TO.C,C3*%
X144700000Y-77700000D02*
X144700000Y-78880000D01*
X144700000Y-81120000D02*
X144700000Y-82300000D01*
X144700000Y-82300000D02*
X145700000Y-83300000D01*
X145700000Y-76700000D02*
X144700000Y-77700000D01*
X145700000Y-83300000D02*
X151300000Y-83300000D01*
X151300000Y-76700000D02*
X145700000Y-76700000D01*
X151300000Y-78880000D02*
X151300000Y-76700000D01*
X151300000Y-83300000D02*
X151300000Y-81120000D01*
D13*
X143950000Y-78650000D02*
G75*
G02*
X143750000Y-78650000I-100000J0D01*
G01*
X143750000Y-78650000D02*
G75*
G02*
X143950000Y-78650000I100000J0D01*
G01*
%TD*%
M02*
