%TF.GenerationSoftware,KiCad,Pcbnew,9.0.1*%
%TF.CreationDate,2026-03-03T11:13:27-05:00*%
%TF.ProjectId,RPiLinearServo,5250694c-696e-4656-9172-536572766f2e,rev?*%
%TF.SameCoordinates,Original*%
%TF.FileFunction,Soldermask,Bot*%
%TF.FilePolarity,Negative*%
%FSLAX46Y46*%
G04 Gerber Fmt 4.6, Leading zero omitted, Abs format (unit mm)*
G04 Created by KiCad (PCBNEW 9.0.1) date 2026-03-03 11:13:27*
%MOMM*%
%LPD*%
G01*
G04 APERTURE LIST*
G04 Aperture macros list*
%AMRoundRect*
0 Rectangle with rounded corners*
0 $1 Rounding radius*
0 $2 $3 $4 $5 $6 $7 $8 $9 X,Y pos of 4 corners*
0 Add a 4 corners polygon primitive as box body*
4,1,4,$2,$3,$4,$5,$6,$7,$8,$9,$2,$3,0*
0 Add four circle primitives for the rounded corners*
1,1,$1+$1,$2,$3*
1,1,$1+$1,$4,$5*
1,1,$1+$1,$6,$7*
1,1,$1+$1,$8,$9*
0 Add four rect primitives between the rounded corners*
20,1,$1+$1,$2,$3,$4,$5,0*
20,1,$1+$1,$4,$5,$6,$7,0*
20,1,$1+$1,$6,$7,$8,$9,0*
20,1,$1+$1,$8,$9,$2,$3,0*%
G04 Aperture macros list end*
%ADD10R,1.700000X1.700000*%
%ADD11C,1.700000*%
%ADD12C,3.800000*%
%ADD13RoundRect,0.102000X-0.754000X1.250000X-0.754000X-1.250000X0.754000X-1.250000X0.754000X1.250000X0*%
%ADD14O,1.712000X2.704000*%
%ADD15O,2.704000X1.704000*%
%ADD16RoundRect,0.102000X1.250000X0.754000X-1.250000X0.754000X-1.250000X-0.754000X1.250000X-0.754000X0*%
%ADD17O,2.704000X1.712000*%
%ADD18C,1.712000*%
%ADD19RoundRect,0.250000X0.337500X0.475000X-0.337500X0.475000X-0.337500X-0.475000X0.337500X-0.475000X0*%
%ADD20RoundRect,0.237500X0.237500X-0.250000X0.237500X0.250000X-0.237500X0.250000X-0.237500X-0.250000X0*%
%ADD21RoundRect,0.200000X0.750000X0.200000X-0.750000X0.200000X-0.750000X-0.200000X0.750000X-0.200000X0*%
G04 APERTURE END LIST*
D10*
%TO.C,J2*%
X161525000Y-78475000D03*
D11*
X158985000Y-78475000D03*
X161525000Y-81015000D03*
X158985000Y-81015000D03*
%TD*%
D12*
%TO.C,H1*%
X154750000Y-79500000D03*
%TD*%
D10*
%TO.C,J1*%
X165750000Y-83750000D03*
D11*
X165750000Y-81210000D03*
X165750000Y-78670000D03*
%TD*%
D12*
%TO.C,H2*%
X130000000Y-79500000D03*
%TD*%
D13*
%TO.C,U2*%
X166060000Y-102782500D03*
D14*
X163520000Y-102782500D03*
X160980000Y-102782500D03*
X158440000Y-102782500D03*
X155900000Y-102782500D03*
X153360000Y-102782500D03*
X150820000Y-102782500D03*
X148280000Y-102782500D03*
X145740000Y-102782500D03*
D15*
X145740000Y-100242500D03*
X145740000Y-97702500D03*
X145740000Y-95162500D03*
X145740000Y-92622500D03*
X145740000Y-90082500D03*
D14*
X145740000Y-87542500D03*
X148280000Y-87542500D03*
X150820000Y-87542500D03*
X153360000Y-87542500D03*
X155900000Y-87542500D03*
X158440000Y-87542500D03*
X160980000Y-87542500D03*
X163520000Y-87542500D03*
X166060000Y-87542500D03*
%TD*%
D16*
%TO.C,U1*%
X141600000Y-102890000D03*
D17*
X141600000Y-100350000D03*
X141600000Y-97810000D03*
X141600000Y-95270000D03*
X141600000Y-92730000D03*
X141600000Y-90190000D03*
X141600000Y-87650000D03*
X141600000Y-85110000D03*
X128900000Y-102890000D03*
X128900000Y-100350000D03*
X128900000Y-97810000D03*
X128900000Y-95270000D03*
X128900000Y-92730000D03*
X128900000Y-90190000D03*
X128900000Y-87650000D03*
X128900000Y-85110000D03*
D18*
X133980000Y-85110000D03*
X131440000Y-85110000D03*
%TD*%
D19*
%TO.C,C5*%
X137037500Y-103000000D03*
X134962500Y-103000000D03*
%TD*%
%TO.C,C4*%
X137037500Y-97000000D03*
X134962500Y-97000000D03*
%TD*%
D20*
%TO.C,R2*%
X138750000Y-104412500D03*
X138750000Y-102587500D03*
%TD*%
D21*
%TO.C,U3*%
X138250000Y-99050000D03*
X138250000Y-100950000D03*
X135250000Y-100000000D03*
%TD*%
M02*
