%TF.GenerationSoftware,KiCad,Pcbnew,9.0.1*%
%TF.CreationDate,2026-03-08T22:52:59-04:00*%
%TF.ProjectId,RPiLinearServo,5250694c-696e-4656-9172-536572766f2e,rev?*%
%TF.SameCoordinates,Original*%
%TF.FileFunction,Copper,L1,Top*%
%TF.FilePolarity,Positive*%
%FSLAX46Y46*%
G04 Gerber Fmt 4.6, Leading zero omitted, Abs format (unit mm)*
G04 Created by KiCad (PCBNEW 9.0.1) date 2026-03-08 22:52:59*
%MOMM*%
%LPD*%
G01*
G04 APERTURE LIST*
G04 Aperture macros list*
%AMRoundRect*
0 Rectangle with rounded corners*
0 $1 Rounding radius*
0 $2 $3 $4 $5 $6 $7 $8 $9 X,Y pos of 4 corners*
0 Add a 4 corners polygon primitive as box body*
4,1,4,$2,$3,$4,$5,$6,$7,$8,$9,$2,$3,0*
0 Add four circle primitives for the rounded corners*
1,1,$1+$1,$2,$3*
1,1,$1+$1,$4,$5*
1,1,$1+$1,$6,$7*
1,1,$1+$1,$8,$9*
0 Add four rect primitives between the rounded corners*
20,1,$1+$1,$2,$3,$4,$5,0*
20,1,$1+$1,$4,$5,$6,$7,0*
20,1,$1+$1,$6,$7,$8,$9,0*
20,1,$1+$1,$8,$9,$2,$3,0*%
G04 Aperture macros list end*
%TA.AperFunction,ComponentPad*%
%ADD10C,3.800000*%
%TD*%
%TA.AperFunction,SMDPad,CuDef*%
%ADD11R,3.200000X1.600000*%
%TD*%
%TA.AperFunction,ComponentPad*%
%ADD12R,1.700000X1.700000*%
%TD*%
%TA.AperFunction,ComponentPad*%
%ADD13C,1.700000*%
%TD*%
%TA.AperFunction,ComponentPad*%
%ADD14R,1.508000X2.500000*%
%TD*%
%TA.AperFunction,ComponentPad*%
%ADD15O,1.508000X2.500000*%
%TD*%
%TA.AperFunction,ComponentPad*%
%ADD16O,2.500000X1.500000*%
%TD*%
%TA.AperFunction,SMDPad,CuDef*%
%ADD17RoundRect,0.237500X-0.250000X-0.237500X0.250000X-0.237500X0.250000X0.237500X-0.250000X0.237500X0*%
%TD*%
%TA.AperFunction,ComponentPad*%
%ADD18R,2.500000X1.508000*%
%TD*%
%TA.AperFunction,ComponentPad*%
%ADD19O,2.500000X1.508000*%
%TD*%
%TA.AperFunction,ComponentPad*%
%ADD20C,1.508000*%
%TD*%
%TA.AperFunction,SMDPad,CuDef*%
%ADD21RoundRect,0.250000X0.475000X-0.337500X0.475000X0.337500X-0.475000X0.337500X-0.475000X-0.337500X0*%
%TD*%
%TA.AperFunction,ViaPad*%
%ADD22C,0.600000*%
%TD*%
%TA.AperFunction,Conductor*%
%ADD23C,0.500000*%
%TD*%
%TA.AperFunction,Conductor*%
%ADD24C,0.200000*%
%TD*%
G04 APERTURE END LIST*
D10*
%TO.P,H1,1*%
%TO.N,N/C*%
X154750000Y-79500000D03*
%TD*%
D11*
%TO.P,C1,1*%
%TO.N,+5V*%
X139500000Y-80000000D03*
%TO.P,C1,2*%
%TO.N,GND*%
X134500000Y-80000000D03*
%TD*%
D12*
%TO.P,J1,1,Pin_1*%
%TO.N,PWM_UNFILTERED*%
X165750000Y-83750000D03*
D13*
%TO.P,J1,2,Pin_2*%
%TO.N,+5V*%
X165750000Y-81210000D03*
%TO.P,J1,3,Pin_3*%
%TO.N,GND*%
X165750000Y-78670000D03*
%TD*%
D10*
%TO.P,H2,1*%
%TO.N,N/C*%
X130000000Y-79500000D03*
%TD*%
D14*
%TO.P,U2,1,GP0*%
%TO.N,PWM_INPUT*%
X166060000Y-102782500D03*
D15*
%TO.P,U2,2,GP1*%
%TO.N,STEPPER_nENABLE*%
X163520000Y-102782500D03*
%TO.P,U2,3,GP2*%
%TO.N,STEPPER_STEP*%
X160980000Y-102782500D03*
%TO.P,U2,4,GP3*%
%TO.N,STEPPER_DIR*%
X158440000Y-102782500D03*
%TO.P,U2,5,GP4*%
%TO.N,Net-(U2-GP4)*%
X155900000Y-102782500D03*
%TO.P,U2,6,GP5*%
%TO.N,STEPPER_UART*%
X153360000Y-102782500D03*
%TO.P,U2,7,GP6*%
%TO.N,unconnected-(U2-GP6-Pad7)*%
X150820000Y-102782500D03*
%TO.P,U2,8,GP7*%
%TO.N,STEPPER_DIAG*%
X148280000Y-102782500D03*
%TO.P,U2,9,GP8*%
%TO.N,unconnected-(U2-GP8-Pad9)*%
X145740000Y-102782500D03*
D16*
%TO.P,U2,10,GP9*%
%TO.N,STEPPER_INDEX*%
X145740000Y-100242500D03*
%TO.P,U2,11,GP10*%
%TO.N,unconnected-(U2-GP10-Pad11)*%
X145740000Y-97702500D03*
%TO.P,U2,12,GP11*%
%TO.N,unconnected-(U2-GP11-Pad12)*%
X145740000Y-95162500D03*
%TO.P,U2,13,GP12*%
%TO.N,unconnected-(U2-GP12-Pad13)*%
X145740000Y-92622500D03*
%TO.P,U2,14,GP13*%
%TO.N,unconnected-(U2-GP13-Pad14)*%
X145740000Y-90082500D03*
D15*
%TO.P,U2,15,GP14*%
%TO.N,unconnected-(U2-GP14-Pad15)*%
X145740000Y-87542500D03*
%TO.P,U2,16,GP15*%
%TO.N,unconnected-(U2-GP15-Pad16)*%
X148280000Y-87542500D03*
%TO.P,U2,17,GP26*%
%TO.N,HALL_OUTPUT*%
X150820000Y-87542500D03*
%TO.P,U2,18,GP27*%
%TO.N,unconnected-(U2-GP27-Pad18)*%
X153360000Y-87542500D03*
%TO.P,U2,19,GP28*%
%TO.N,unconnected-(U2-GP28-Pad19)*%
X155900000Y-87542500D03*
%TO.P,U2,20,GP29*%
%TO.N,unconnected-(U2-GP29-Pad20)*%
X158440000Y-87542500D03*
%TO.P,U2,21,3V3*%
%TO.N,+3V3*%
X160980000Y-87542500D03*
%TO.P,U2,22,GND*%
%TO.N,GND*%
X163520000Y-87542500D03*
%TO.P,U2,23,5V*%
%TO.N,+5V*%
X166060000Y-87542500D03*
%TD*%
D17*
%TO.P,R1,1*%
%TO.N,STEPPER_UART*%
X153675000Y-105250000D03*
%TO.P,R1,2*%
%TO.N,Net-(U2-GP4)*%
X155500000Y-105250000D03*
%TD*%
D18*
%TO.P,U1,1,GND*%
%TO.N,GND*%
X141600000Y-102890000D03*
D19*
%TO.P,U1,2,VIO*%
%TO.N,+3V3*%
X141600000Y-100350000D03*
%TO.P,U1,3,M1B*%
%TO.N,STEPPER_M1B*%
X141600000Y-97810000D03*
%TO.P,U1,4,M1A*%
%TO.N,STEPPER_M1A*%
X141600000Y-95270000D03*
%TO.P,U1,5,M2A*%
%TO.N,STEPPER_M2A*%
X141600000Y-92730000D03*
%TO.P,U1,6,M2B*%
%TO.N,STEPPER_M2B*%
X141600000Y-90190000D03*
%TO.P,U1,7,GND*%
%TO.N,GND*%
X141600000Y-87650000D03*
%TO.P,U1,8,VM*%
%TO.N,+5V*%
X141600000Y-85110000D03*
%TO.P,U1,9,DIR*%
%TO.N,STEPPER_DIR*%
X128900000Y-102890000D03*
%TO.P,U1,10,STEP*%
%TO.N,STEPPER_STEP*%
X128900000Y-100350000D03*
%TO.P,U1,11,PDN*%
%TO.N,unconnected-(U1-PDN-Pad11)*%
X128900000Y-97810000D03*
%TO.P,U1,12,UART*%
%TO.N,unconnected-(U1-UART-Pad12)*%
X128900000Y-95270000D03*
%TO.P,U1,13,SPRD*%
%TO.N,STEPPER_UART*%
X128900000Y-92730000D03*
%TO.P,U1,14,MS2*%
%TO.N,GND*%
X128900000Y-90190000D03*
%TO.P,U1,15,MS1*%
X128900000Y-87650000D03*
%TO.P,U1,16,~{EN}*%
%TO.N,STEPPER_nENABLE*%
X128900000Y-85110000D03*
D20*
%TO.P,U1,17,INDEX*%
%TO.N,STEPPER_INDEX*%
X133980000Y-85110000D03*
%TO.P,U1,18,DIAG*%
%TO.N,STEPPER_DIAG*%
X131440000Y-85110000D03*
%TD*%
D21*
%TO.P,C2,1*%
%TO.N,+5V*%
X142500000Y-80037500D03*
%TO.P,C2,2*%
%TO.N,GND*%
X142500000Y-77962500D03*
%TD*%
D11*
%TO.P,C3,1*%
%TO.N,+5V*%
X145500000Y-80000000D03*
%TO.P,C3,2*%
%TO.N,GND*%
X150500000Y-80000000D03*
%TD*%
D12*
%TO.P,J2,1,Pin_1*%
%TO.N,STEPPER_M2B*%
X161525000Y-78475000D03*
D13*
%TO.P,J2,2,Pin_2*%
%TO.N,STEPPER_M1B*%
X158985000Y-78475000D03*
%TO.P,J2,3,Pin_3*%
%TO.N,STEPPER_M2A*%
X161525000Y-81015000D03*
%TO.P,J2,4,Pin_4*%
%TO.N,STEPPER_M1A*%
X158985000Y-81015000D03*
%TD*%
D22*
%TO.N,GND*%
X159750000Y-90500000D03*
X132750000Y-82250000D03*
X167500000Y-100750000D03*
X130750000Y-104250000D03*
X133250000Y-98000000D03*
X136500000Y-82250000D03*
X127500000Y-82250000D03*
X167500000Y-81250000D03*
X156250000Y-77250000D03*
X155250000Y-90750000D03*
X131250000Y-100250000D03*
X144000000Y-102000000D03*
X133250000Y-103000000D03*
X133250000Y-93250000D03*
X135250000Y-90500000D03*
X144000000Y-103750000D03*
X163500000Y-94000000D03*
X163500000Y-90750000D03*
X164500000Y-101000000D03*
X136000000Y-95250000D03*
X150250000Y-77250000D03*
X163500000Y-77250000D03*
X167500000Y-91500000D03*
X167500000Y-79250000D03*
X167500000Y-97500000D03*
X167250000Y-105000000D03*
X135250000Y-86250000D03*
X144750000Y-77250000D03*
X127500000Y-77250000D03*
X149500000Y-96000000D03*
X162500000Y-105000000D03*
X167500000Y-83750000D03*
X139500000Y-87650000D03*
X162250000Y-98500000D03*
X155250000Y-96000000D03*
X137500000Y-77250000D03*
X131250000Y-95250000D03*
X157250000Y-104500000D03*
X159750000Y-96000000D03*
X132750000Y-77250000D03*
X152500000Y-93500000D03*
X157500000Y-98500000D03*
X131250000Y-90500000D03*
X133250000Y-88250000D03*
X143750000Y-87750000D03*
X136000000Y-98500000D03*
X152500000Y-98500000D03*
X149500000Y-91250000D03*
X157250000Y-93500000D03*
%TD*%
D23*
%TO.N,GND*%
X141600000Y-87650000D02*
X139500000Y-87650000D01*
X143650000Y-87650000D02*
X143750000Y-87750000D01*
X139350000Y-87650000D02*
X139250000Y-87750000D01*
X141600000Y-87650000D02*
X143650000Y-87650000D01*
X139500000Y-87650000D02*
X139350000Y-87650000D01*
%TO.N,+5V*%
X140000000Y-80000000D02*
X142537500Y-80000000D01*
X163500000Y-84982500D02*
X166060000Y-87542500D01*
X166060000Y-85560000D02*
X166000000Y-85500000D01*
X166060000Y-87542500D02*
X166060000Y-85560000D01*
X145500000Y-80000000D02*
X142712500Y-80000000D01*
D24*
%TO.N,Net-(U2-GP4)*%
X155500000Y-105500000D02*
X155500000Y-103182500D01*
X155500000Y-103182500D02*
X155900000Y-102782500D01*
%TO.N,STEPPER_UART*%
X153360000Y-102782500D02*
X153675000Y-103097500D01*
X129750000Y-105750000D02*
X127250000Y-103250000D01*
X153675000Y-103097500D02*
X153675000Y-105750000D01*
X127250000Y-103250000D02*
X127250000Y-94380000D01*
X153675000Y-105750000D02*
X129750000Y-105750000D01*
X127250000Y-94380000D02*
X128900000Y-92730000D01*
%TO.N,STEPPER_DIR*%
X153404506Y-100750000D02*
X156407500Y-100750000D01*
X152000000Y-104020495D02*
X152000000Y-102154506D01*
X130099000Y-105349000D02*
X150671495Y-105349000D01*
X150671495Y-105349000D02*
X152000000Y-104020495D01*
X152000000Y-102154506D02*
X153404506Y-100750000D01*
X128900000Y-102890000D02*
X128900000Y-104150000D01*
X128900000Y-104150000D02*
X130099000Y-105349000D01*
X156407500Y-100750000D02*
X158440000Y-102782500D01*
%TO.N,STEPPER_nENABLE*%
X143500000Y-100000000D02*
X144500000Y-99000000D01*
X128900000Y-85110000D02*
X132250000Y-88460000D01*
X143500000Y-100750000D02*
X143500000Y-100000000D01*
X133000000Y-101500000D02*
X142750000Y-101500000D01*
X147750000Y-99750000D02*
X160487500Y-99750000D01*
X160487500Y-99750000D02*
X163520000Y-102782500D01*
X147000000Y-99000000D02*
X147750000Y-99750000D01*
X144500000Y-99000000D02*
X147000000Y-99000000D01*
X132250000Y-88460000D02*
X132250000Y-100750000D01*
X142750000Y-101500000D02*
X143500000Y-100750000D01*
X132250000Y-100750000D02*
X133000000Y-101500000D01*
D23*
%TO.N,+3V3*%
X149250000Y-89500000D02*
X159022500Y-89500000D01*
X143500000Y-98450000D02*
X143500000Y-92250000D01*
X147466500Y-91283500D02*
X149250000Y-89500000D01*
X141600000Y-100350000D02*
X143500000Y-98450000D01*
X143500000Y-92250000D02*
X144466500Y-91283500D01*
X159022500Y-89500000D02*
X160980000Y-87542500D01*
X160980000Y-87542500D02*
X160980000Y-88020000D01*
X144466500Y-91283500D02*
X147466500Y-91283500D01*
%TD*%
%TA.AperFunction,Conductor*%
%TO.N,+5V*%
G36*
X141708177Y-79769685D02*
G01*
X141728819Y-79786319D01*
X141730000Y-79787500D01*
X143270000Y-79787500D01*
X143271181Y-79786319D01*
X143332504Y-79752834D01*
X143358862Y-79750000D01*
X145376000Y-79750000D01*
X145443039Y-79769685D01*
X145488794Y-79822489D01*
X145500000Y-79874000D01*
X145500000Y-80000000D01*
X145626000Y-80000000D01*
X145693039Y-80019685D01*
X145738794Y-80072489D01*
X145750000Y-80124000D01*
X145750000Y-81300000D01*
X147147828Y-81300000D01*
X147147844Y-81299999D01*
X147207372Y-81293598D01*
X147207376Y-81293597D01*
X147332666Y-81246867D01*
X147402358Y-81241883D01*
X147463681Y-81275368D01*
X147497166Y-81336691D01*
X147500000Y-81363049D01*
X147500000Y-82750000D01*
X161142855Y-82750000D01*
X161142856Y-82750000D01*
X161394683Y-82456202D01*
X161435312Y-82408802D01*
X161493887Y-82370712D01*
X161529460Y-82365500D01*
X161631286Y-82365500D01*
X161631287Y-82365500D01*
X161841243Y-82332246D01*
X162043412Y-82266557D01*
X162232816Y-82170051D01*
X162254789Y-82154086D01*
X162404786Y-82045109D01*
X162404788Y-82045106D01*
X162404792Y-82045104D01*
X162555104Y-81894792D01*
X162555106Y-81894788D01*
X162555109Y-81894786D01*
X162680048Y-81722820D01*
X162680047Y-81722820D01*
X162680051Y-81722816D01*
X162776557Y-81533412D01*
X162842246Y-81331243D01*
X162875500Y-81121287D01*
X162875500Y-80908713D01*
X162860382Y-80813265D01*
X162869336Y-80743975D01*
X162888700Y-80713182D01*
X163462884Y-80043302D01*
X163521459Y-80005212D01*
X163557032Y-80000000D01*
X164861595Y-80000000D01*
X164928634Y-80019685D01*
X164974389Y-80072489D01*
X164976180Y-80082626D01*
X165620591Y-80727037D01*
X165557007Y-80744075D01*
X165442993Y-80809901D01*
X165349901Y-80902993D01*
X165284075Y-81017007D01*
X165267037Y-81080591D01*
X164634728Y-80448282D01*
X164634727Y-80448282D01*
X164595380Y-80502439D01*
X164498904Y-80691782D01*
X164433242Y-80893869D01*
X164433242Y-80893872D01*
X164400000Y-81103753D01*
X164400000Y-81316246D01*
X164433242Y-81526127D01*
X164433242Y-81526130D01*
X164498904Y-81728217D01*
X164595375Y-81917550D01*
X164634728Y-81971716D01*
X165267037Y-81339408D01*
X165284075Y-81402993D01*
X165349901Y-81517007D01*
X165442993Y-81610099D01*
X165557007Y-81675925D01*
X165620590Y-81692962D01*
X164950370Y-82363181D01*
X164889047Y-82396666D01*
X164862698Y-82399500D01*
X164852134Y-82399500D01*
X164852123Y-82399501D01*
X164792516Y-82405908D01*
X164657671Y-82456202D01*
X164657664Y-82456206D01*
X164542455Y-82542452D01*
X164542452Y-82542455D01*
X164456206Y-82657664D01*
X164456202Y-82657671D01*
X164405908Y-82792517D01*
X164399501Y-82852116D01*
X164399500Y-82852135D01*
X164399500Y-84647870D01*
X164399501Y-84647876D01*
X164405908Y-84707483D01*
X164456202Y-84842328D01*
X164456206Y-84842335D01*
X164542452Y-84957544D01*
X164542455Y-84957547D01*
X164657664Y-85043793D01*
X164657671Y-85043797D01*
X164792517Y-85094091D01*
X164792516Y-85094091D01*
X164799444Y-85094835D01*
X164852127Y-85100500D01*
X166647872Y-85100499D01*
X166707483Y-85094091D01*
X166832668Y-85047399D01*
X166902358Y-85042416D01*
X166963681Y-85075901D01*
X166997166Y-85137224D01*
X167000000Y-85163582D01*
X167000000Y-86126000D01*
X166980315Y-86193039D01*
X166927511Y-86238794D01*
X166876000Y-86250000D01*
X164548993Y-86250000D01*
X164481954Y-86230315D01*
X164461312Y-86213681D01*
X164337246Y-86089615D01*
X164177504Y-85973558D01*
X164177503Y-85973557D01*
X164177501Y-85973556D01*
X164001561Y-85883909D01*
X164001558Y-85883908D01*
X163813763Y-85822889D01*
X163618736Y-85792000D01*
X163618731Y-85792000D01*
X163421269Y-85792000D01*
X163421264Y-85792000D01*
X163226236Y-85822889D01*
X163038441Y-85883908D01*
X162862495Y-85973558D01*
X162702753Y-86089615D01*
X162702749Y-86089619D01*
X162578688Y-86213681D01*
X162517365Y-86247166D01*
X162491007Y-86250000D01*
X162008993Y-86250000D01*
X161941954Y-86230315D01*
X161921312Y-86213681D01*
X161797246Y-86089615D01*
X161637504Y-85973558D01*
X161637503Y-85973557D01*
X161637501Y-85973556D01*
X161461561Y-85883909D01*
X161461558Y-85883908D01*
X161273763Y-85822889D01*
X161078736Y-85792000D01*
X161078731Y-85792000D01*
X160881269Y-85792000D01*
X160881264Y-85792000D01*
X160686236Y-85822889D01*
X160498441Y-85883908D01*
X160322495Y-85973558D01*
X160162753Y-86089615D01*
X160162749Y-86089619D01*
X160038688Y-86213681D01*
X159977365Y-86247166D01*
X159951007Y-86250000D01*
X159468993Y-86250000D01*
X159401954Y-86230315D01*
X159381312Y-86213681D01*
X159257246Y-86089615D01*
X159097504Y-85973558D01*
X159097503Y-85973557D01*
X159097501Y-85973556D01*
X158921561Y-85883909D01*
X158921558Y-85883908D01*
X158733763Y-85822889D01*
X158538736Y-85792000D01*
X158538731Y-85792000D01*
X158341269Y-85792000D01*
X158341264Y-85792000D01*
X158146236Y-85822889D01*
X157958441Y-85883908D01*
X157782495Y-85973558D01*
X157622753Y-86089615D01*
X157622749Y-86089619D01*
X157498688Y-86213681D01*
X157437365Y-86247166D01*
X157411007Y-86250000D01*
X156928993Y-86250000D01*
X156861954Y-86230315D01*
X156841312Y-86213681D01*
X156717246Y-86089615D01*
X156557504Y-85973558D01*
X156557503Y-85973557D01*
X156557501Y-85973556D01*
X156381561Y-85883909D01*
X156381558Y-85883908D01*
X156193763Y-85822889D01*
X155998736Y-85792000D01*
X155998731Y-85792000D01*
X155801269Y-85792000D01*
X155801264Y-85792000D01*
X155606236Y-85822889D01*
X155418441Y-85883908D01*
X155242495Y-85973558D01*
X155082753Y-86089615D01*
X155082749Y-86089619D01*
X154958688Y-86213681D01*
X154897365Y-86247166D01*
X154871007Y-86250000D01*
X154388993Y-86250000D01*
X154321954Y-86230315D01*
X154301312Y-86213681D01*
X154177246Y-86089615D01*
X154017504Y-85973558D01*
X154017503Y-85973557D01*
X154017501Y-85973556D01*
X153841561Y-85883909D01*
X153841558Y-85883908D01*
X153653763Y-85822889D01*
X153458736Y-85792000D01*
X153458731Y-85792000D01*
X153261269Y-85792000D01*
X153261264Y-85792000D01*
X153066236Y-85822889D01*
X152878441Y-85883908D01*
X152702495Y-85973558D01*
X152542753Y-86089615D01*
X152542749Y-86089619D01*
X152418688Y-86213681D01*
X152357365Y-86247166D01*
X152331007Y-86250000D01*
X151848993Y-86250000D01*
X151781954Y-86230315D01*
X151761312Y-86213681D01*
X151637246Y-86089615D01*
X151477504Y-85973558D01*
X151477503Y-85973557D01*
X151477501Y-85973556D01*
X151301561Y-85883909D01*
X151301558Y-85883908D01*
X151113763Y-85822889D01*
X150918736Y-85792000D01*
X150918731Y-85792000D01*
X150721269Y-85792000D01*
X150721264Y-85792000D01*
X150526236Y-85822889D01*
X150338441Y-85883908D01*
X150162495Y-85973558D01*
X150002753Y-86089615D01*
X150002749Y-86089619D01*
X149878688Y-86213681D01*
X149817365Y-86247166D01*
X149791007Y-86250000D01*
X149308993Y-86250000D01*
X149241954Y-86230315D01*
X149221312Y-86213681D01*
X149097246Y-86089615D01*
X148937504Y-85973558D01*
X148937503Y-85973557D01*
X148937501Y-85973556D01*
X148761561Y-85883909D01*
X148761558Y-85883908D01*
X148573763Y-85822889D01*
X148378736Y-85792000D01*
X148378731Y-85792000D01*
X148181269Y-85792000D01*
X148181264Y-85792000D01*
X147986236Y-85822889D01*
X147798441Y-85883908D01*
X147622495Y-85973558D01*
X147462753Y-86089615D01*
X147462749Y-86089619D01*
X147338688Y-86213681D01*
X147277365Y-86247166D01*
X147251007Y-86250000D01*
X146768993Y-86250000D01*
X146701954Y-86230315D01*
X146681312Y-86213681D01*
X146557246Y-86089615D01*
X146397504Y-85973558D01*
X146397503Y-85973557D01*
X146397501Y-85973556D01*
X146221561Y-85883909D01*
X146221558Y-85883908D01*
X146033763Y-85822889D01*
X145838736Y-85792000D01*
X145838731Y-85792000D01*
X145641269Y-85792000D01*
X145641264Y-85792000D01*
X145446236Y-85822889D01*
X145258441Y-85883908D01*
X145082495Y-85973558D01*
X144922753Y-86089615D01*
X144922749Y-86089619D01*
X144798688Y-86213681D01*
X144737365Y-86247166D01*
X144711007Y-86250000D01*
X143028786Y-86250000D01*
X142961747Y-86230315D01*
X142915992Y-86177511D01*
X142906048Y-86108353D01*
X142935073Y-86044797D01*
X142941105Y-86038319D01*
X143052499Y-85926924D01*
X143052503Y-85926919D01*
X143168514Y-85767242D01*
X143258126Y-85591373D01*
X143319123Y-85403646D01*
X143350000Y-85208697D01*
X143350000Y-85011302D01*
X143319123Y-84816353D01*
X143258126Y-84628626D01*
X143168514Y-84452757D01*
X143052503Y-84293080D01*
X143052499Y-84293075D01*
X142912931Y-84153507D01*
X142912922Y-84153499D01*
X142911260Y-84152291D01*
X142911259Y-84152291D01*
X142082961Y-84980588D01*
X142065925Y-84917007D01*
X142000099Y-84802993D01*
X141907007Y-84709901D01*
X141792993Y-84644075D01*
X141729410Y-84627037D01*
X142449969Y-83906477D01*
X142449969Y-83906476D01*
X142389648Y-83886877D01*
X142194697Y-83856000D01*
X141005303Y-83856000D01*
X140810351Y-83886877D01*
X140750029Y-83906476D01*
X140750029Y-83906477D01*
X141470589Y-84627037D01*
X141407007Y-84644075D01*
X141292993Y-84709901D01*
X141199901Y-84802993D01*
X141134075Y-84917007D01*
X141117037Y-84980589D01*
X140288738Y-84152290D01*
X140287078Y-84153498D01*
X140287071Y-84153504D01*
X140147495Y-84293081D01*
X140031485Y-84452757D01*
X139941873Y-84628626D01*
X139880876Y-84816353D01*
X139850000Y-85011302D01*
X139850000Y-85208697D01*
X139880876Y-85403646D01*
X139941873Y-85591373D01*
X140031485Y-85767242D01*
X140147496Y-85926919D01*
X140147500Y-85926924D01*
X140258895Y-86038319D01*
X140292380Y-86099642D01*
X140287396Y-86169334D01*
X140245524Y-86225267D01*
X140180060Y-86249684D01*
X140171214Y-86250000D01*
X137624000Y-86250000D01*
X137556961Y-86230315D01*
X137511206Y-86177511D01*
X137500000Y-86126000D01*
X137500000Y-81363049D01*
X137519685Y-81296010D01*
X137572489Y-81250255D01*
X137641647Y-81240311D01*
X137667334Y-81246867D01*
X137792623Y-81293597D01*
X137792627Y-81293598D01*
X137852155Y-81299999D01*
X137852172Y-81300000D01*
X139250000Y-81300000D01*
X139750000Y-81300000D01*
X141147828Y-81300000D01*
X141147844Y-81299999D01*
X141207372Y-81293598D01*
X141207379Y-81293596D01*
X141342086Y-81243354D01*
X141342093Y-81243350D01*
X141457186Y-81157191D01*
X141517935Y-81076041D01*
X141573869Y-81034170D01*
X141643560Y-81029186D01*
X141682301Y-81044815D01*
X141705871Y-81059354D01*
X141705880Y-81059358D01*
X141872302Y-81114505D01*
X141872309Y-81114506D01*
X141975019Y-81124999D01*
X142249999Y-81124999D01*
X142250000Y-81124998D01*
X142250000Y-80287500D01*
X142750000Y-80287500D01*
X142750000Y-81124999D01*
X143024972Y-81124999D01*
X143024986Y-81124998D01*
X143127697Y-81114505D01*
X143294123Y-81059356D01*
X143317697Y-81044816D01*
X143385089Y-81026374D01*
X143451753Y-81047295D01*
X143482063Y-81076041D01*
X143542812Y-81157190D01*
X143657906Y-81243350D01*
X143657913Y-81243354D01*
X143792620Y-81293596D01*
X143792627Y-81293598D01*
X143852155Y-81299999D01*
X143852172Y-81300000D01*
X145250000Y-81300000D01*
X145250000Y-80250000D01*
X143855000Y-80250000D01*
X143853819Y-80251181D01*
X143792496Y-80284666D01*
X143766138Y-80287500D01*
X142750000Y-80287500D01*
X142250000Y-80287500D01*
X141233862Y-80287500D01*
X141166823Y-80267815D01*
X141146181Y-80251181D01*
X141145000Y-80250000D01*
X139750000Y-80250000D01*
X139750000Y-81300000D01*
X139250000Y-81300000D01*
X139250000Y-80124000D01*
X139269685Y-80056961D01*
X139322489Y-80011206D01*
X139374000Y-80000000D01*
X139500000Y-80000000D01*
X139500000Y-79874000D01*
X139519685Y-79806961D01*
X139572489Y-79761206D01*
X139624000Y-79750000D01*
X141641138Y-79750000D01*
X141708177Y-79769685D01*
G37*
%TD.AperFunction*%
%TA.AperFunction,Conductor*%
G36*
X166865269Y-81971716D02*
G01*
X166866271Y-81971638D01*
X166879881Y-81974497D01*
X166893647Y-81972518D01*
X166913398Y-81981538D01*
X166934648Y-81986002D01*
X166944552Y-81995765D01*
X166957203Y-82001543D01*
X166968942Y-82019809D01*
X166984405Y-82035053D01*
X166988231Y-82049824D01*
X166994977Y-82060321D01*
X167000000Y-82095256D01*
X167000000Y-82336417D01*
X166980315Y-82403456D01*
X166927511Y-82449211D01*
X166858353Y-82459155D01*
X166832667Y-82452599D01*
X166707482Y-82405908D01*
X166707483Y-82405908D01*
X166647883Y-82399501D01*
X166647881Y-82399500D01*
X166647873Y-82399500D01*
X166647865Y-82399500D01*
X166637309Y-82399500D01*
X166570270Y-82379815D01*
X166549628Y-82363181D01*
X165879408Y-81692962D01*
X165942993Y-81675925D01*
X166057007Y-81610099D01*
X166150099Y-81517007D01*
X166215925Y-81402993D01*
X166232962Y-81339409D01*
X166865269Y-81971716D01*
G37*
%TD.AperFunction*%
%TA.AperFunction,Conductor*%
G36*
X166943039Y-80019685D02*
G01*
X166988794Y-80072489D01*
X167000000Y-80124000D01*
X167000000Y-80324743D01*
X166980315Y-80391782D01*
X166927511Y-80437537D01*
X166866271Y-80448361D01*
X166865269Y-80448282D01*
X166232962Y-81080590D01*
X166215925Y-81017007D01*
X166150099Y-80902993D01*
X166057007Y-80809901D01*
X165942993Y-80744075D01*
X165879409Y-80727037D01*
X166525973Y-80080471D01*
X166529149Y-80065354D01*
X166538913Y-80055449D01*
X166544691Y-80042797D01*
X166562956Y-80031058D01*
X166578199Y-80015596D01*
X166592971Y-80011769D01*
X166603469Y-80005023D01*
X166638404Y-80000000D01*
X166876000Y-80000000D01*
X166943039Y-80019685D01*
G37*
%TD.AperFunction*%
%TD*%
%TA.AperFunction,Conductor*%
%TO.N,GND*%
G36*
X166504418Y-76400816D02*
G01*
X166718791Y-76416148D01*
X166736296Y-76418665D01*
X166941969Y-76463406D01*
X166958928Y-76468385D01*
X167156150Y-76541946D01*
X167172242Y-76549296D01*
X167356968Y-76650163D01*
X167371848Y-76659724D01*
X167540353Y-76785866D01*
X167553723Y-76797452D01*
X167702547Y-76946276D01*
X167714133Y-76959646D01*
X167837541Y-77124500D01*
X167840271Y-77128146D01*
X167849836Y-77143031D01*
X167950703Y-77327757D01*
X167958053Y-77343849D01*
X168031611Y-77541063D01*
X168036595Y-77558039D01*
X168081333Y-77763700D01*
X168083851Y-77781211D01*
X168099184Y-77995580D01*
X168099500Y-78004427D01*
X168099500Y-104245572D01*
X168099184Y-104254418D01*
X168099184Y-104254419D01*
X168083851Y-104468788D01*
X168081333Y-104486299D01*
X168036595Y-104691960D01*
X168031611Y-104708936D01*
X167958053Y-104906150D01*
X167950703Y-104922242D01*
X167849836Y-105106968D01*
X167840271Y-105121853D01*
X167714133Y-105290353D01*
X167702547Y-105303723D01*
X167553723Y-105452547D01*
X167540353Y-105464133D01*
X167371853Y-105590271D01*
X167356968Y-105599836D01*
X167172242Y-105700703D01*
X167156150Y-105708053D01*
X166958936Y-105781611D01*
X166941960Y-105786595D01*
X166736299Y-105831333D01*
X166718788Y-105833851D01*
X166523369Y-105847828D01*
X166504417Y-105849184D01*
X166495572Y-105849500D01*
X156579228Y-105849500D01*
X156512189Y-105829815D01*
X156466434Y-105777011D01*
X156456490Y-105707853D01*
X156461522Y-105686496D01*
X156477674Y-105637753D01*
X156488000Y-105536677D01*
X156487999Y-104963324D01*
X156486055Y-104944297D01*
X156477674Y-104862247D01*
X156423408Y-104698484D01*
X156363229Y-104600919D01*
X156344790Y-104533529D01*
X156365712Y-104466865D01*
X156412471Y-104425340D01*
X156557501Y-104351444D01*
X156597063Y-104322701D01*
X156717246Y-104235384D01*
X156717248Y-104235381D01*
X156717252Y-104235379D01*
X156856879Y-104095752D01*
X156856881Y-104095748D01*
X156856884Y-104095746D01*
X156972941Y-103936005D01*
X156972942Y-103936004D01*
X156972944Y-103936001D01*
X157059517Y-103766093D01*
X157107490Y-103715300D01*
X157175311Y-103698505D01*
X157241446Y-103721042D01*
X157280482Y-103766093D01*
X157350518Y-103903543D01*
X157367058Y-103936005D01*
X157483115Y-104095746D01*
X157622753Y-104235384D01*
X157764515Y-104338378D01*
X157782499Y-104351444D01*
X157958439Y-104441091D01*
X158067039Y-104476377D01*
X158146236Y-104502110D01*
X158341264Y-104533000D01*
X158341269Y-104533000D01*
X158538736Y-104533000D01*
X158733763Y-104502110D01*
X158782424Y-104486299D01*
X158921561Y-104441091D01*
X159097501Y-104351444D01*
X159202955Y-104274828D01*
X159257246Y-104235384D01*
X159257248Y-104235381D01*
X159257252Y-104235379D01*
X159396879Y-104095752D01*
X159396881Y-104095748D01*
X159396884Y-104095746D01*
X159512941Y-103936005D01*
X159512942Y-103936004D01*
X159512944Y-103936001D01*
X159599517Y-103766093D01*
X159647490Y-103715300D01*
X159715311Y-103698505D01*
X159781446Y-103721042D01*
X159820482Y-103766093D01*
X159890518Y-103903543D01*
X159907058Y-103936005D01*
X160023115Y-104095746D01*
X160162753Y-104235384D01*
X160304515Y-104338378D01*
X160322499Y-104351444D01*
X160498439Y-104441091D01*
X160607039Y-104476377D01*
X160686236Y-104502110D01*
X160881264Y-104533000D01*
X160881269Y-104533000D01*
X161078736Y-104533000D01*
X161273763Y-104502110D01*
X161322424Y-104486299D01*
X161461561Y-104441091D01*
X161637501Y-104351444D01*
X161742955Y-104274828D01*
X161797246Y-104235384D01*
X161797248Y-104235381D01*
X161797252Y-104235379D01*
X161936879Y-104095752D01*
X161936881Y-104095748D01*
X161936884Y-104095746D01*
X162052941Y-103936005D01*
X162052942Y-103936004D01*
X162052944Y-103936001D01*
X162139517Y-103766093D01*
X162187490Y-103715300D01*
X162255311Y-103698505D01*
X162321446Y-103721042D01*
X162360482Y-103766093D01*
X162430518Y-103903543D01*
X162447058Y-103936005D01*
X162563115Y-104095746D01*
X162702753Y-104235384D01*
X162844515Y-104338378D01*
X162862499Y-104351444D01*
X163038439Y-104441091D01*
X163147039Y-104476377D01*
X163226236Y-104502110D01*
X163421264Y-104533000D01*
X163421269Y-104533000D01*
X163618736Y-104533000D01*
X163813763Y-104502110D01*
X163862424Y-104486299D01*
X164001561Y-104441091D01*
X164177501Y-104351444D01*
X164282955Y-104274828D01*
X164337246Y-104235384D01*
X164337248Y-104235381D01*
X164337252Y-104235379D01*
X164476879Y-104095752D01*
X164581183Y-103952188D01*
X164636510Y-103909523D01*
X164706124Y-103903543D01*
X164767919Y-103936149D01*
X164802277Y-103996987D01*
X164805500Y-104025072D01*
X164805500Y-104080369D01*
X164805501Y-104080376D01*
X164811908Y-104139983D01*
X164862202Y-104274828D01*
X164862206Y-104274835D01*
X164948452Y-104390044D01*
X164948455Y-104390047D01*
X165063664Y-104476293D01*
X165063671Y-104476297D01*
X165198517Y-104526591D01*
X165198516Y-104526591D01*
X165205444Y-104527335D01*
X165258127Y-104533000D01*
X166861872Y-104532999D01*
X166921483Y-104526591D01*
X167056331Y-104476296D01*
X167171546Y-104390046D01*
X167257796Y-104274831D01*
X167308091Y-104139983D01*
X167314500Y-104080373D01*
X167314499Y-101484628D01*
X167308091Y-101425017D01*
X167303207Y-101411923D01*
X167257797Y-101290171D01*
X167257793Y-101290164D01*
X167171547Y-101174955D01*
X167171544Y-101174952D01*
X167056335Y-101088706D01*
X167056328Y-101088702D01*
X166921482Y-101038408D01*
X166921483Y-101038408D01*
X166861883Y-101032001D01*
X166861881Y-101032000D01*
X166861873Y-101032000D01*
X166861864Y-101032000D01*
X165258129Y-101032000D01*
X165258123Y-101032001D01*
X165198516Y-101038408D01*
X165063671Y-101088702D01*
X165063664Y-101088706D01*
X164948455Y-101174952D01*
X164948452Y-101174955D01*
X164862206Y-101290164D01*
X164862202Y-101290171D01*
X164811908Y-101425017D01*
X164805501Y-101484616D01*
X164805501Y-101484623D01*
X164805500Y-101484635D01*
X164805500Y-101539923D01*
X164785815Y-101606962D01*
X164733011Y-101652717D01*
X164663853Y-101662661D01*
X164600297Y-101633636D01*
X164581182Y-101612808D01*
X164476884Y-101469254D01*
X164476880Y-101469249D01*
X164337246Y-101329615D01*
X164177504Y-101213558D01*
X164177503Y-101213557D01*
X164177501Y-101213556D01*
X164001561Y-101123909D01*
X163985579Y-101118716D01*
X163813763Y-101062889D01*
X163618736Y-101032000D01*
X163618731Y-101032000D01*
X163421269Y-101032000D01*
X163421264Y-101032000D01*
X163226236Y-101062889D01*
X163038441Y-101123908D01*
X162901560Y-101193653D01*
X162832890Y-101206549D01*
X162768150Y-101180273D01*
X162757584Y-101170849D01*
X160975090Y-99388355D01*
X160975088Y-99388352D01*
X160856217Y-99269481D01*
X160856216Y-99269480D01*
X160769404Y-99219360D01*
X160769404Y-99219359D01*
X160769400Y-99219358D01*
X160719285Y-99190423D01*
X160566557Y-99149499D01*
X160408443Y-99149499D01*
X160400847Y-99149499D01*
X160400831Y-99149500D01*
X148050097Y-99149500D01*
X147983058Y-99129815D01*
X147962416Y-99113181D01*
X147488958Y-98639723D01*
X147480521Y-98631286D01*
X147480520Y-98631284D01*
X147368716Y-98519480D01*
X147348819Y-98507992D01*
X147338343Y-98498145D01*
X147327643Y-98479914D01*
X147313057Y-98464616D01*
X147310313Y-98450384D01*
X147302979Y-98437886D01*
X147303834Y-98416767D01*
X147299833Y-98396009D01*
X147305457Y-98376684D01*
X147305806Y-98368074D01*
X147309493Y-98362817D01*
X147312787Y-98351500D01*
X147343328Y-98291561D01*
X147398884Y-98182525D01*
X147459709Y-97995326D01*
X147490500Y-97800922D01*
X147490500Y-97604077D01*
X147459709Y-97409673D01*
X147398882Y-97222470D01*
X147309523Y-97047094D01*
X147193828Y-96887854D01*
X147054646Y-96748672D01*
X146919504Y-96650485D01*
X146895403Y-96632974D01*
X146718787Y-96542985D01*
X146667990Y-96495011D01*
X146651195Y-96427190D01*
X146673732Y-96361055D01*
X146718787Y-96322015D01*
X146895403Y-96232025D01*
X146895402Y-96232025D01*
X146895405Y-96232024D01*
X147054646Y-96116328D01*
X147193828Y-95977146D01*
X147309524Y-95817905D01*
X147398884Y-95642525D01*
X147459709Y-95455326D01*
X147490500Y-95260922D01*
X147490500Y-95064077D01*
X147459709Y-94869673D01*
X147398882Y-94682470D01*
X147309523Y-94507094D01*
X147193828Y-94347854D01*
X147054646Y-94208672D01*
X146919504Y-94110485D01*
X146895403Y-94092974D01*
X146718787Y-94002985D01*
X146667990Y-93955011D01*
X146651195Y-93887190D01*
X146673732Y-93821055D01*
X146718787Y-93782015D01*
X146895403Y-93692025D01*
X146895402Y-93692025D01*
X146895405Y-93692024D01*
X147054646Y-93576328D01*
X147193828Y-93437146D01*
X147309524Y-93277905D01*
X147398884Y-93102525D01*
X147459709Y-92915326D01*
X147490500Y-92720922D01*
X147490500Y-92524077D01*
X147459709Y-92329673D01*
X147416379Y-92196319D01*
X147414384Y-92126477D01*
X147450464Y-92066644D01*
X147513165Y-92035816D01*
X147534310Y-92034000D01*
X147540420Y-92034000D01*
X147637962Y-92014596D01*
X147685413Y-92005158D01*
X147821995Y-91948584D01*
X147871229Y-91915686D01*
X147875627Y-91912748D01*
X147895571Y-91899421D01*
X147944916Y-91866452D01*
X149524549Y-90286819D01*
X149585872Y-90253334D01*
X149612230Y-90250500D01*
X159096420Y-90250500D01*
X159193962Y-90231096D01*
X159241413Y-90221658D01*
X159377995Y-90165084D01*
X159427229Y-90132186D01*
X159439221Y-90124174D01*
X159451571Y-90115921D01*
X159500916Y-90082952D01*
X160358114Y-89225752D01*
X160419435Y-89192269D01*
X160489126Y-89197253D01*
X160493890Y-89199348D01*
X160493940Y-89199228D01*
X160498438Y-89201091D01*
X160574344Y-89225754D01*
X160686237Y-89262110D01*
X160776564Y-89276416D01*
X160881264Y-89293000D01*
X160881269Y-89293000D01*
X161078736Y-89293000D01*
X161273763Y-89262110D01*
X161275262Y-89261623D01*
X161461561Y-89201091D01*
X161637501Y-89111444D01*
X161773032Y-89012976D01*
X161797246Y-88995384D01*
X161797248Y-88995381D01*
X161797252Y-88995379D01*
X161936879Y-88855752D01*
X161939033Y-88852786D01*
X161965199Y-88816774D01*
X162052941Y-88696005D01*
X162052942Y-88696004D01*
X162052944Y-88696001D01*
X162142591Y-88520061D01*
X162158209Y-88471990D01*
X162197646Y-88414316D01*
X162262004Y-88387117D01*
X162305088Y-88389735D01*
X162316477Y-88392469D01*
X163037037Y-87671908D01*
X163054075Y-87735493D01*
X163119901Y-87849507D01*
X163212993Y-87942599D01*
X163327007Y-88008425D01*
X163390589Y-88025462D01*
X162562291Y-88853759D01*
X162562291Y-88853760D01*
X162563499Y-88855422D01*
X162563507Y-88855431D01*
X162703075Y-88994999D01*
X162703080Y-88995003D01*
X162862757Y-89111014D01*
X163038626Y-89200626D01*
X163226353Y-89261623D01*
X163421303Y-89292500D01*
X163618697Y-89292500D01*
X163813646Y-89261623D01*
X164001373Y-89200626D01*
X164177242Y-89111014D01*
X164336918Y-88995004D01*
X164476500Y-88855423D01*
X164477707Y-88853761D01*
X164477707Y-88853759D01*
X163649410Y-88025462D01*
X163712993Y-88008425D01*
X163827007Y-87942599D01*
X163920099Y-87849507D01*
X163985925Y-87735493D01*
X164002962Y-87671911D01*
X164723520Y-88392469D01*
X164734912Y-88389735D01*
X164804694Y-88393226D01*
X164861512Y-88433889D01*
X164881789Y-88471989D01*
X164897409Y-88520061D01*
X164975039Y-88672416D01*
X164987058Y-88696004D01*
X165103115Y-88855746D01*
X165242753Y-88995384D01*
X165392234Y-89103986D01*
X165402499Y-89111444D01*
X165578439Y-89201091D01*
X165678206Y-89233507D01*
X165766236Y-89262110D01*
X165961264Y-89293000D01*
X165961269Y-89293000D01*
X166158736Y-89293000D01*
X166353763Y-89262110D01*
X166355262Y-89261623D01*
X166541561Y-89201091D01*
X166717501Y-89111444D01*
X166853032Y-89012976D01*
X166877246Y-88995384D01*
X166877248Y-88995381D01*
X166877252Y-88995379D01*
X167016879Y-88855752D01*
X167016881Y-88855748D01*
X167016884Y-88855746D01*
X167094075Y-88749500D01*
X167132944Y-88696001D01*
X167222591Y-88520061D01*
X167283610Y-88332263D01*
X167287573Y-88307242D01*
X167314500Y-88137236D01*
X167314500Y-86947763D01*
X167286317Y-86769830D01*
X167283610Y-86752737D01*
X167283608Y-86752732D01*
X167283608Y-86752729D01*
X167270065Y-86711049D01*
X167268068Y-86641208D01*
X167304148Y-86581374D01*
X167306760Y-86579044D01*
X167311347Y-86575070D01*
X167405567Y-86466336D01*
X167465338Y-86335459D01*
X167485023Y-86268420D01*
X167485024Y-86268416D01*
X167505500Y-86126000D01*
X167505500Y-85163582D01*
X167502603Y-85109542D01*
X167499769Y-85083184D01*
X167491114Y-85029772D01*
X167440832Y-84894963D01*
X167407347Y-84833640D01*
X167394319Y-84816237D01*
X167321123Y-84718458D01*
X167205944Y-84632236D01*
X167205937Y-84632231D01*
X167165072Y-84609918D01*
X167115667Y-84560513D01*
X167100499Y-84501086D01*
X167100499Y-83000520D01*
X167120184Y-82933481D01*
X167157457Y-82896206D01*
X167258543Y-82831242D01*
X167311347Y-82785487D01*
X167405567Y-82676753D01*
X167465338Y-82545876D01*
X167485023Y-82478837D01*
X167485024Y-82478833D01*
X167505500Y-82336417D01*
X167505500Y-82095256D01*
X167500355Y-82023314D01*
X167495332Y-81988379D01*
X167480001Y-81917906D01*
X167460736Y-81875721D01*
X167426333Y-81789635D01*
X167394050Y-81747146D01*
X167393840Y-81746739D01*
X167394194Y-81746513D01*
X167382455Y-81728247D01*
X167360015Y-81702349D01*
X167339289Y-81675070D01*
X167323826Y-81659826D01*
X167323476Y-81660180D01*
X167316131Y-81651703D01*
X167316131Y-81651702D01*
X167288249Y-81619524D01*
X167288243Y-81619519D01*
X167233255Y-81584177D01*
X167233255Y-81584178D01*
X167229734Y-81581915D01*
X167173735Y-81540617D01*
X167154000Y-81533416D01*
X167142482Y-81526039D01*
X167128174Y-81509578D01*
X167110627Y-81496637D01*
X167105707Y-81483730D01*
X167096646Y-81473305D01*
X167093509Y-81451724D01*
X167085743Y-81431348D01*
X167086765Y-81405330D01*
X167086596Y-81404162D01*
X167086832Y-81403642D01*
X167086887Y-81402230D01*
X167100500Y-81316287D01*
X167100500Y-81103713D01*
X167086916Y-81017953D01*
X167095870Y-80948663D01*
X167140865Y-80895210D01*
X167142349Y-80894242D01*
X167146947Y-80891287D01*
X167258543Y-80819568D01*
X167311347Y-80773813D01*
X167405567Y-80665079D01*
X167405569Y-80665074D01*
X167405571Y-80665072D01*
X167456594Y-80553349D01*
X167465338Y-80534202D01*
X167485023Y-80467163D01*
X167485024Y-80467159D01*
X167505500Y-80324743D01*
X167505500Y-80124000D01*
X167493947Y-80016544D01*
X167482741Y-79965033D01*
X167469465Y-79925145D01*
X167448616Y-79862502D01*
X167448613Y-79862496D01*
X167413276Y-79807512D01*
X167370825Y-79741457D01*
X167357914Y-79726557D01*
X167325076Y-79688659D01*
X167325072Y-79688656D01*
X167325070Y-79688653D01*
X167216336Y-79594433D01*
X167216333Y-79594431D01*
X167216331Y-79594430D01*
X167085465Y-79534664D01*
X167085460Y-79534662D01*
X167085459Y-79534662D01*
X167038796Y-79520960D01*
X167018414Y-79514975D01*
X167015306Y-79514365D01*
X167015464Y-79513557D01*
X166955088Y-79485983D01*
X166917314Y-79427204D01*
X166917315Y-79357335D01*
X166925808Y-79335975D01*
X167001094Y-79188219D01*
X167066757Y-78986130D01*
X167066757Y-78986127D01*
X167100000Y-78776246D01*
X167100000Y-78563753D01*
X167066757Y-78353872D01*
X167066757Y-78353869D01*
X167001095Y-78151782D01*
X166904624Y-77962449D01*
X166865270Y-77908282D01*
X166865269Y-77908282D01*
X166232962Y-78540589D01*
X166215925Y-78477007D01*
X166150099Y-78362993D01*
X166057007Y-78269901D01*
X165942993Y-78204075D01*
X165879409Y-78187037D01*
X166511716Y-77554728D01*
X166457550Y-77515375D01*
X166268217Y-77418904D01*
X166066129Y-77353242D01*
X165856246Y-77320000D01*
X165643754Y-77320000D01*
X165433872Y-77353242D01*
X165433869Y-77353242D01*
X165231782Y-77418904D01*
X165042439Y-77515380D01*
X164988282Y-77554727D01*
X164988282Y-77554728D01*
X165620591Y-78187037D01*
X165557007Y-78204075D01*
X165442993Y-78269901D01*
X165349901Y-78362993D01*
X165284075Y-78477007D01*
X165267037Y-78540591D01*
X164634728Y-77908282D01*
X164634727Y-77908282D01*
X164595380Y-77962439D01*
X164498904Y-78151782D01*
X164433242Y-78353869D01*
X164433242Y-78353872D01*
X164400000Y-78563753D01*
X164400000Y-78776246D01*
X164433242Y-78986127D01*
X164433242Y-78986130D01*
X164498904Y-79188217D01*
X164563099Y-79314205D01*
X164575995Y-79382874D01*
X164549719Y-79447614D01*
X164492613Y-79487872D01*
X164452614Y-79494500D01*
X163557031Y-79494500D01*
X163483750Y-79499840D01*
X163448183Y-79505051D01*
X163448173Y-79505053D01*
X163376442Y-79520959D01*
X163376437Y-79520961D01*
X163245890Y-79581428D01*
X163245890Y-79581429D01*
X163187306Y-79619524D01*
X163079078Y-79714328D01*
X163079076Y-79714330D01*
X162730135Y-80121427D01*
X162671560Y-80159517D01*
X162601692Y-80159892D01*
X162548306Y-80128410D01*
X162441569Y-80021673D01*
X162408084Y-79960350D01*
X162413068Y-79890658D01*
X162454940Y-79834725D01*
X162485915Y-79817810D01*
X162617331Y-79768796D01*
X162732546Y-79682546D01*
X162818796Y-79567331D01*
X162869091Y-79432483D01*
X162875500Y-79372873D01*
X162875499Y-77577128D01*
X162869091Y-77517517D01*
X162867810Y-77514083D01*
X162818797Y-77382671D01*
X162818793Y-77382664D01*
X162732547Y-77267455D01*
X162732544Y-77267452D01*
X162617335Y-77181206D01*
X162617328Y-77181202D01*
X162482482Y-77130908D01*
X162482483Y-77130908D01*
X162422883Y-77124501D01*
X162422881Y-77124500D01*
X162422873Y-77124500D01*
X162422864Y-77124500D01*
X160627129Y-77124500D01*
X160627123Y-77124501D01*
X160567516Y-77130908D01*
X160432671Y-77181202D01*
X160432664Y-77181206D01*
X160317455Y-77267452D01*
X160317452Y-77267455D01*
X160231206Y-77382664D01*
X160231203Y-77382669D01*
X160182189Y-77514083D01*
X160140317Y-77570016D01*
X160074853Y-77594433D01*
X160006580Y-77579581D01*
X159978326Y-77558430D01*
X159864786Y-77444890D01*
X159692820Y-77319951D01*
X159503414Y-77223444D01*
X159503413Y-77223443D01*
X159503412Y-77223443D01*
X159301243Y-77157754D01*
X159301241Y-77157753D01*
X159301240Y-77157753D01*
X159139957Y-77132208D01*
X159091287Y-77124500D01*
X158878713Y-77124500D01*
X158830042Y-77132208D01*
X158668760Y-77157753D01*
X158466585Y-77223444D01*
X158277179Y-77319951D01*
X158105213Y-77444890D01*
X157954890Y-77595213D01*
X157829951Y-77767179D01*
X157733444Y-77956585D01*
X157667753Y-78158760D01*
X157634500Y-78368713D01*
X157634500Y-78581286D01*
X157667176Y-78787597D01*
X157667754Y-78791243D01*
X157721906Y-78957906D01*
X157733444Y-78993414D01*
X157829951Y-79182820D01*
X157954890Y-79354786D01*
X158105213Y-79505109D01*
X158277182Y-79630050D01*
X158285946Y-79634516D01*
X158336742Y-79682491D01*
X158353536Y-79750312D01*
X158330998Y-79816447D01*
X158285946Y-79855484D01*
X158277182Y-79859949D01*
X158105213Y-79984890D01*
X157954890Y-80135213D01*
X157829951Y-80307179D01*
X157733444Y-80496585D01*
X157667753Y-80698760D01*
X157634500Y-80908713D01*
X157634500Y-81121286D01*
X157665384Y-81316284D01*
X157667754Y-81331243D01*
X157731047Y-81526039D01*
X157733444Y-81533414D01*
X157829951Y-81722820D01*
X157954890Y-81894786D01*
X158092923Y-82032819D01*
X158126408Y-82094142D01*
X158121424Y-82163834D01*
X158079552Y-82219767D01*
X158014088Y-82244184D01*
X158005242Y-82244500D01*
X148129500Y-82244500D01*
X148062461Y-82224815D01*
X148016706Y-82172011D01*
X148005500Y-82120500D01*
X148005500Y-81363046D01*
X148002602Y-81308998D01*
X148002602Y-81308997D01*
X147999770Y-81282664D01*
X147999767Y-81282637D01*
X147993401Y-81243354D01*
X147991114Y-81229239D01*
X147940832Y-81094430D01*
X147907347Y-81033107D01*
X147821124Y-80917926D01*
X147821123Y-80917925D01*
X147727506Y-80847844D01*
X148400000Y-80847844D01*
X148406401Y-80907372D01*
X148406403Y-80907379D01*
X148456645Y-81042086D01*
X148456649Y-81042093D01*
X148542809Y-81157187D01*
X148542812Y-81157190D01*
X148657906Y-81243350D01*
X148657913Y-81243354D01*
X148792620Y-81293596D01*
X148792627Y-81293598D01*
X148852155Y-81299999D01*
X148852172Y-81300000D01*
X150250000Y-81300000D01*
X150250000Y-80250000D01*
X148400000Y-80250000D01*
X148400000Y-80847844D01*
X147727506Y-80847844D01*
X147705944Y-80831703D01*
X147705931Y-80831695D01*
X147665071Y-80809383D01*
X147615666Y-80759977D01*
X147600499Y-80700552D01*
X147600499Y-79152155D01*
X148400000Y-79152155D01*
X148400000Y-79750000D01*
X150250000Y-79750000D01*
X150250000Y-78700000D01*
X150750000Y-78700000D01*
X150750000Y-81300000D01*
X152147828Y-81300000D01*
X152147844Y-81299999D01*
X152207372Y-81293598D01*
X152207379Y-81293596D01*
X152342086Y-81243354D01*
X152342093Y-81243350D01*
X152457187Y-81157190D01*
X152457190Y-81157187D01*
X152543350Y-81042093D01*
X152543355Y-81042084D01*
X152583453Y-80934575D01*
X152625323Y-80878641D01*
X152690788Y-80854223D01*
X152759061Y-80869074D01*
X152796582Y-80900594D01*
X152957265Y-81102084D01*
X152957266Y-81102085D01*
X153147915Y-81292734D01*
X153358711Y-81460838D01*
X153587003Y-81604284D01*
X153829921Y-81721267D01*
X154021049Y-81788145D01*
X154084397Y-81810312D01*
X154084405Y-81810315D01*
X154084408Y-81810315D01*
X154084409Y-81810316D01*
X154347268Y-81870312D01*
X154615187Y-81900499D01*
X154615188Y-81900500D01*
X154615191Y-81900500D01*
X154884812Y-81900500D01*
X154884812Y-81900499D01*
X155152732Y-81870312D01*
X155415591Y-81810316D01*
X155670079Y-81721267D01*
X155912997Y-81604284D01*
X156141289Y-81460838D01*
X156352085Y-81292734D01*
X156542734Y-81102085D01*
X156710838Y-80891289D01*
X156854284Y-80662997D01*
X156971267Y-80420079D01*
X157060316Y-80165591D01*
X157120312Y-79902732D01*
X157150500Y-79634809D01*
X157150500Y-79365191D01*
X157120312Y-79097268D01*
X157060316Y-78834409D01*
X157059521Y-78832138D01*
X157015352Y-78705909D01*
X156971267Y-78579921D01*
X156854284Y-78337003D01*
X156710838Y-78108711D01*
X156542734Y-77897915D01*
X156352085Y-77707266D01*
X156141289Y-77539162D01*
X155912997Y-77395716D01*
X155912994Y-77395714D01*
X155670082Y-77278734D01*
X155415602Y-77189687D01*
X155415594Y-77189684D01*
X155211191Y-77143031D01*
X155152732Y-77129688D01*
X155152728Y-77129687D01*
X155152719Y-77129686D01*
X154884813Y-77099500D01*
X154884809Y-77099500D01*
X154615191Y-77099500D01*
X154615186Y-77099500D01*
X154347280Y-77129686D01*
X154347268Y-77129688D01*
X154084405Y-77189684D01*
X154084397Y-77189687D01*
X153829917Y-77278734D01*
X153587005Y-77395714D01*
X153358712Y-77539161D01*
X153147915Y-77707265D01*
X152957265Y-77897915D01*
X152789161Y-78108712D01*
X152645714Y-78337005D01*
X152528736Y-78579913D01*
X152528730Y-78579927D01*
X152494284Y-78678369D01*
X152453563Y-78735145D01*
X152388610Y-78760892D01*
X152333910Y-78753596D01*
X152207379Y-78706403D01*
X152207372Y-78706401D01*
X152147844Y-78700000D01*
X150750000Y-78700000D01*
X150250000Y-78700000D01*
X148852155Y-78700000D01*
X148792627Y-78706401D01*
X148792620Y-78706403D01*
X148657913Y-78756645D01*
X148657906Y-78756649D01*
X148542812Y-78842809D01*
X148542809Y-78842812D01*
X148456649Y-78957906D01*
X148456645Y-78957913D01*
X148406403Y-79092620D01*
X148406401Y-79092627D01*
X148400000Y-79152155D01*
X147600499Y-79152155D01*
X147600499Y-79152129D01*
X147600498Y-79152123D01*
X147600497Y-79152116D01*
X147594091Y-79092517D01*
X147565248Y-79015186D01*
X147543797Y-78957671D01*
X147543793Y-78957664D01*
X147457547Y-78842455D01*
X147457544Y-78842452D01*
X147342335Y-78756206D01*
X147342328Y-78756202D01*
X147207482Y-78705908D01*
X147207483Y-78705908D01*
X147147883Y-78699501D01*
X147147881Y-78699500D01*
X147147873Y-78699500D01*
X147147864Y-78699500D01*
X143852129Y-78699500D01*
X143852123Y-78699501D01*
X143816180Y-78703365D01*
X143747420Y-78690958D01*
X143696284Y-78643347D01*
X143679006Y-78575647D01*
X143685221Y-78541071D01*
X143714505Y-78452697D01*
X143714506Y-78452690D01*
X143724999Y-78349986D01*
X143725000Y-78349973D01*
X143725000Y-78212500D01*
X141275001Y-78212500D01*
X141275001Y-78349986D01*
X141285494Y-78452697D01*
X141314778Y-78541071D01*
X141317180Y-78610900D01*
X141281448Y-78670942D01*
X141218927Y-78702134D01*
X141183820Y-78703364D01*
X141147873Y-78699500D01*
X141147865Y-78699500D01*
X137852129Y-78699500D01*
X137852123Y-78699501D01*
X137792516Y-78705908D01*
X137657671Y-78756202D01*
X137657664Y-78756206D01*
X137542455Y-78842452D01*
X137542452Y-78842455D01*
X137456206Y-78957664D01*
X137456202Y-78957671D01*
X137405908Y-79092517D01*
X137401242Y-79135925D01*
X137399501Y-79152123D01*
X137399500Y-79152135D01*
X137399500Y-80698945D01*
X137379815Y-80765984D01*
X137342540Y-80803260D01*
X137241462Y-80868219D01*
X137241451Y-80868228D01*
X137188659Y-80913972D01*
X137094433Y-81022713D01*
X137094430Y-81022717D01*
X137034664Y-81153583D01*
X137014976Y-81220631D01*
X137013738Y-81229241D01*
X136994500Y-81363049D01*
X136994500Y-86126000D01*
X136994501Y-86126009D01*
X137006052Y-86233450D01*
X137006054Y-86233462D01*
X137017260Y-86284972D01*
X137051383Y-86387497D01*
X137051386Y-86387503D01*
X137129171Y-86508537D01*
X137129179Y-86508548D01*
X137174923Y-86561340D01*
X137174926Y-86561343D01*
X137174930Y-86561347D01*
X137283664Y-86655567D01*
X137283667Y-86655568D01*
X137283668Y-86655569D01*
X137405149Y-86711049D01*
X137414541Y-86715338D01*
X137481580Y-86735023D01*
X137481584Y-86735024D01*
X137624000Y-86755500D01*
X137624003Y-86755500D01*
X139960499Y-86755500D01*
X140027538Y-86775185D01*
X140073293Y-86827989D01*
X140083237Y-86897147D01*
X140060817Y-86952385D01*
X140031485Y-86992757D01*
X139941873Y-87168626D01*
X139880876Y-87356353D01*
X139850000Y-87551302D01*
X139850000Y-87748697D01*
X139880876Y-87943646D01*
X139941873Y-88131373D01*
X140031485Y-88307242D01*
X140147495Y-88466918D01*
X140287076Y-88606500D01*
X140288739Y-88607708D01*
X141117037Y-87779410D01*
X141134075Y-87842993D01*
X141199901Y-87957007D01*
X141292993Y-88050099D01*
X141407007Y-88115925D01*
X141470589Y-88132962D01*
X140750028Y-88853521D01*
X140752763Y-88864913D01*
X140749272Y-88934695D01*
X140708608Y-88991512D01*
X140670509Y-89011789D01*
X140622444Y-89027407D01*
X140622441Y-89027408D01*
X140622439Y-89027409D01*
X140458357Y-89111014D01*
X140446495Y-89117058D01*
X140286753Y-89233115D01*
X140147115Y-89372753D01*
X140031058Y-89532495D01*
X139941408Y-89708441D01*
X139880389Y-89896236D01*
X139849500Y-90091263D01*
X139849500Y-90288736D01*
X139880389Y-90483763D01*
X139939360Y-90665256D01*
X139941409Y-90671561D01*
X140031056Y-90847501D01*
X140031058Y-90847504D01*
X140147115Y-91007246D01*
X140286753Y-91146884D01*
X140436234Y-91255486D01*
X140446499Y-91262944D01*
X140616404Y-91349516D01*
X140667199Y-91397490D01*
X140683994Y-91465311D01*
X140661456Y-91531446D01*
X140616404Y-91570483D01*
X140459321Y-91650522D01*
X140446495Y-91657058D01*
X140286753Y-91773115D01*
X140147115Y-91912753D01*
X140031058Y-92072495D01*
X139941408Y-92248441D01*
X139880389Y-92436236D01*
X139849500Y-92631263D01*
X139849500Y-92828736D01*
X139880389Y-93023763D01*
X139941408Y-93211558D01*
X139941409Y-93211561D01*
X140031056Y-93387501D01*
X140031058Y-93387504D01*
X140147115Y-93547246D01*
X140286753Y-93686884D01*
X140416824Y-93781384D01*
X140446499Y-93802944D01*
X140616404Y-93889516D01*
X140667199Y-93937490D01*
X140683994Y-94005311D01*
X140661456Y-94071446D01*
X140616404Y-94110483D01*
X140459321Y-94190522D01*
X140446495Y-94197058D01*
X140286753Y-94313115D01*
X140147115Y-94452753D01*
X140031058Y-94612495D01*
X139941408Y-94788441D01*
X139880389Y-94976236D01*
X139849500Y-95171263D01*
X139849500Y-95368736D01*
X139880389Y-95563763D01*
X139941408Y-95751558D01*
X139941409Y-95751561D01*
X140031056Y-95927501D01*
X140031058Y-95927504D01*
X140147115Y-96087246D01*
X140286753Y-96226884D01*
X140416824Y-96321384D01*
X140446499Y-96342944D01*
X140616404Y-96429516D01*
X140667199Y-96477490D01*
X140683994Y-96545311D01*
X140661456Y-96611446D01*
X140616404Y-96650483D01*
X140459321Y-96730522D01*
X140446495Y-96737058D01*
X140286753Y-96853115D01*
X140147115Y-96992753D01*
X140031058Y-97152495D01*
X139941408Y-97328441D01*
X139880389Y-97516236D01*
X139849500Y-97711263D01*
X139849500Y-97908736D01*
X139880389Y-98103763D01*
X139941408Y-98291558D01*
X139941409Y-98291561D01*
X140029586Y-98464616D01*
X140031058Y-98467504D01*
X140147115Y-98627246D01*
X140286753Y-98766884D01*
X140436234Y-98875486D01*
X140446499Y-98882944D01*
X140616404Y-98969516D01*
X140667199Y-99017490D01*
X140683994Y-99085311D01*
X140661456Y-99151446D01*
X140616404Y-99190483D01*
X140461370Y-99269479D01*
X140446495Y-99277058D01*
X140286753Y-99393115D01*
X140147115Y-99532753D01*
X140031058Y-99692495D01*
X139941408Y-99868441D01*
X139880389Y-100056236D01*
X139849500Y-100251263D01*
X139849500Y-100448736D01*
X139880389Y-100643761D01*
X139889220Y-100670939D01*
X139910744Y-100737183D01*
X139912739Y-100807022D01*
X139876659Y-100866855D01*
X139813958Y-100897684D01*
X139792813Y-100899500D01*
X133300097Y-100899500D01*
X133233058Y-100879815D01*
X133212416Y-100863181D01*
X132886819Y-100537584D01*
X132853334Y-100476261D01*
X132850500Y-100449903D01*
X132850500Y-88380945D01*
X132850500Y-88380943D01*
X132809577Y-88228216D01*
X132809573Y-88228209D01*
X132730524Y-88091290D01*
X132730521Y-88091286D01*
X132730520Y-88091284D01*
X132618716Y-87979480D01*
X132618715Y-87979479D01*
X132614385Y-87975149D01*
X132614374Y-87975139D01*
X131210069Y-86570834D01*
X131176584Y-86509511D01*
X131181568Y-86439819D01*
X131223440Y-86383886D01*
X131288904Y-86359469D01*
X131317150Y-86360680D01*
X131341266Y-86364500D01*
X131341269Y-86364500D01*
X131538736Y-86364500D01*
X131733763Y-86333610D01*
X131752115Y-86327647D01*
X131921561Y-86272591D01*
X132097501Y-86182944D01*
X132187192Y-86117779D01*
X132257246Y-86066884D01*
X132257248Y-86066881D01*
X132257252Y-86066879D01*
X132396879Y-85927252D01*
X132396881Y-85927248D01*
X132396884Y-85927246D01*
X132512941Y-85767505D01*
X132512942Y-85767504D01*
X132512944Y-85767501D01*
X132599517Y-85597593D01*
X132647490Y-85546800D01*
X132715311Y-85530005D01*
X132781446Y-85552542D01*
X132820482Y-85597593D01*
X132903804Y-85761119D01*
X132907058Y-85767505D01*
X133023115Y-85927246D01*
X133162753Y-86066884D01*
X133312234Y-86175486D01*
X133322499Y-86182944D01*
X133498439Y-86272591D01*
X133623637Y-86313270D01*
X133686236Y-86333610D01*
X133881264Y-86364500D01*
X133881269Y-86364500D01*
X134078736Y-86364500D01*
X134273763Y-86333610D01*
X134292115Y-86327647D01*
X134461561Y-86272591D01*
X134637501Y-86182944D01*
X134727192Y-86117779D01*
X134797246Y-86066884D01*
X134797248Y-86066881D01*
X134797252Y-86066879D01*
X134936879Y-85927252D01*
X134936881Y-85927248D01*
X134936884Y-85927246D01*
X134987779Y-85857192D01*
X135052944Y-85767501D01*
X135142591Y-85591561D01*
X135203610Y-85403763D01*
X135234500Y-85208736D01*
X135234500Y-85011263D01*
X135203610Y-84816236D01*
X135155268Y-84667456D01*
X135142591Y-84628439D01*
X135052944Y-84452499D01*
X135045486Y-84442234D01*
X134936884Y-84292753D01*
X134797246Y-84153115D01*
X134637504Y-84037058D01*
X134637503Y-84037057D01*
X134637501Y-84037056D01*
X134461561Y-83947409D01*
X134461558Y-83947408D01*
X134273763Y-83886389D01*
X134078736Y-83855500D01*
X134078731Y-83855500D01*
X133881269Y-83855500D01*
X133881264Y-83855500D01*
X133686236Y-83886389D01*
X133498441Y-83947408D01*
X133322495Y-84037058D01*
X133162753Y-84153115D01*
X133023115Y-84292753D01*
X132907058Y-84452495D01*
X132907056Y-84452499D01*
X132832537Y-84598750D01*
X132820485Y-84622403D01*
X132772510Y-84673199D01*
X132704689Y-84689994D01*
X132638554Y-84667456D01*
X132599515Y-84622403D01*
X132512944Y-84452499D01*
X132505486Y-84442234D01*
X132396884Y-84292753D01*
X132257246Y-84153115D01*
X132097504Y-84037058D01*
X132097503Y-84037057D01*
X132097501Y-84037056D01*
X131921561Y-83947409D01*
X131921558Y-83947408D01*
X131733763Y-83886389D01*
X131538736Y-83855500D01*
X131538731Y-83855500D01*
X131341269Y-83855500D01*
X131341264Y-83855500D01*
X131146236Y-83886389D01*
X130958441Y-83947408D01*
X130782495Y-84037058D01*
X130622753Y-84153115D01*
X130622749Y-84153119D01*
X130505681Y-84270188D01*
X130444358Y-84303673D01*
X130374666Y-84298689D01*
X130330319Y-84270188D01*
X130213246Y-84153115D01*
X130053504Y-84037058D01*
X130053503Y-84037057D01*
X130053501Y-84037056D01*
X129877561Y-83947409D01*
X129877558Y-83947408D01*
X129689763Y-83886389D01*
X129494736Y-83855500D01*
X129494731Y-83855500D01*
X128305269Y-83855500D01*
X128305264Y-83855500D01*
X128110236Y-83886389D01*
X127922441Y-83947408D01*
X127746495Y-84037058D01*
X127586753Y-84153115D01*
X127447115Y-84292753D01*
X127331058Y-84452495D01*
X127241408Y-84628441D01*
X127180389Y-84816236D01*
X127149500Y-85011263D01*
X127149500Y-85208736D01*
X127180389Y-85403763D01*
X127221408Y-85530005D01*
X127241409Y-85591561D01*
X127331056Y-85767501D01*
X127331058Y-85767504D01*
X127447115Y-85927246D01*
X127586753Y-86066884D01*
X127736234Y-86175486D01*
X127746499Y-86182944D01*
X127922439Y-86272591D01*
X127970507Y-86288209D01*
X128028183Y-86327647D01*
X128055381Y-86392005D01*
X128052763Y-86435086D01*
X128050028Y-86446476D01*
X128770589Y-87167037D01*
X128707007Y-87184075D01*
X128592993Y-87249901D01*
X128499901Y-87342993D01*
X128434075Y-87457007D01*
X128417037Y-87520589D01*
X127588738Y-86692290D01*
X127587078Y-86693498D01*
X127587071Y-86693504D01*
X127447495Y-86833081D01*
X127331485Y-86992757D01*
X127241873Y-87168626D01*
X127180876Y-87356353D01*
X127150000Y-87551302D01*
X127150000Y-87748697D01*
X127180876Y-87943646D01*
X127241873Y-88131373D01*
X127331485Y-88307242D01*
X127447495Y-88466918D01*
X127587076Y-88606500D01*
X127588738Y-88607708D01*
X127588739Y-88607708D01*
X128417037Y-87779410D01*
X128434075Y-87842993D01*
X128499901Y-87957007D01*
X128592993Y-88050099D01*
X128707007Y-88115925D01*
X128770589Y-88132962D01*
X128050028Y-88853521D01*
X128059039Y-88891054D01*
X128059039Y-88948947D01*
X128050028Y-88986476D01*
X128770589Y-89707037D01*
X128707007Y-89724075D01*
X128592993Y-89789901D01*
X128499901Y-89882993D01*
X128434075Y-89997007D01*
X128417037Y-90060589D01*
X127588738Y-89232290D01*
X127587078Y-89233498D01*
X127587071Y-89233504D01*
X127447495Y-89373081D01*
X127331485Y-89532757D01*
X127241873Y-89708626D01*
X127180876Y-89896353D01*
X127150000Y-90091302D01*
X127150000Y-90288697D01*
X127180876Y-90483646D01*
X127241873Y-90671373D01*
X127331485Y-90847242D01*
X127447495Y-91006918D01*
X127587076Y-91146500D01*
X127588738Y-91147708D01*
X127588739Y-91147708D01*
X128417037Y-90319410D01*
X128434075Y-90382993D01*
X128499901Y-90497007D01*
X128592993Y-90590099D01*
X128707007Y-90655925D01*
X128770589Y-90672962D01*
X128050028Y-91393521D01*
X128052763Y-91404913D01*
X128049272Y-91474695D01*
X128008608Y-91531512D01*
X127970509Y-91551789D01*
X127922444Y-91567407D01*
X127922441Y-91567408D01*
X127922439Y-91567409D01*
X127757946Y-91651222D01*
X127746495Y-91657058D01*
X127586753Y-91773115D01*
X127447115Y-91912753D01*
X127331058Y-92072495D01*
X127241408Y-92248441D01*
X127180389Y-92436236D01*
X127149500Y-92631263D01*
X127149500Y-92828736D01*
X127180389Y-93023763D01*
X127241409Y-93211560D01*
X127241409Y-93211561D01*
X127311152Y-93348440D01*
X127324048Y-93417109D01*
X127297771Y-93481849D01*
X127288348Y-93492415D01*
X126881286Y-93899478D01*
X126862181Y-93918583D01*
X126800858Y-93952068D01*
X126731166Y-93947084D01*
X126675233Y-93905212D01*
X126650816Y-93839748D01*
X126650500Y-93830902D01*
X126650500Y-79365186D01*
X127599500Y-79365186D01*
X127599500Y-79634813D01*
X127629686Y-79902719D01*
X127629688Y-79902731D01*
X127689684Y-80165594D01*
X127689687Y-80165602D01*
X127778734Y-80420082D01*
X127895714Y-80662994D01*
X127897024Y-80665079D01*
X128039162Y-80891289D01*
X128087553Y-80951969D01*
X128201164Y-81094434D01*
X128207266Y-81102085D01*
X128397915Y-81292734D01*
X128608711Y-81460838D01*
X128837003Y-81604284D01*
X129079921Y-81721267D01*
X129271049Y-81788145D01*
X129334397Y-81810312D01*
X129334405Y-81810315D01*
X129334408Y-81810315D01*
X129334409Y-81810316D01*
X129597268Y-81870312D01*
X129865187Y-81900499D01*
X129865188Y-81900500D01*
X129865191Y-81900500D01*
X130134812Y-81900500D01*
X130134812Y-81900499D01*
X130402732Y-81870312D01*
X130665591Y-81810316D01*
X130920079Y-81721267D01*
X131162997Y-81604284D01*
X131391289Y-81460838D01*
X131602085Y-81292734D01*
X131792734Y-81102085D01*
X131960838Y-80891289D01*
X132104284Y-80662997D01*
X132104287Y-80662991D01*
X132164280Y-80538415D01*
X132211102Y-80486555D01*
X132278529Y-80468242D01*
X132345153Y-80489290D01*
X132389822Y-80543016D01*
X132400000Y-80592216D01*
X132400000Y-80847844D01*
X132406401Y-80907372D01*
X132406403Y-80907379D01*
X132456645Y-81042086D01*
X132456649Y-81042093D01*
X132542809Y-81157187D01*
X132542812Y-81157190D01*
X132657906Y-81243350D01*
X132657913Y-81243354D01*
X132792620Y-81293596D01*
X132792627Y-81293598D01*
X132852155Y-81299999D01*
X132852172Y-81300000D01*
X134250000Y-81300000D01*
X134750000Y-81300000D01*
X136147828Y-81300000D01*
X136147844Y-81299999D01*
X136207372Y-81293598D01*
X136207379Y-81293596D01*
X136342086Y-81243354D01*
X136342093Y-81243350D01*
X136457187Y-81157190D01*
X136457190Y-81157187D01*
X136543350Y-81042093D01*
X136543354Y-81042086D01*
X136593596Y-80907379D01*
X136593598Y-80907372D01*
X136599999Y-80847844D01*
X136600000Y-80847827D01*
X136600000Y-80250000D01*
X134750000Y-80250000D01*
X134750000Y-81300000D01*
X134250000Y-81300000D01*
X134250000Y-79750000D01*
X134750000Y-79750000D01*
X136600000Y-79750000D01*
X136600000Y-79152172D01*
X136599999Y-79152155D01*
X136593598Y-79092627D01*
X136593596Y-79092620D01*
X136543354Y-78957913D01*
X136543350Y-78957906D01*
X136457190Y-78842812D01*
X136457187Y-78842809D01*
X136342093Y-78756649D01*
X136342086Y-78756645D01*
X136207379Y-78706403D01*
X136207372Y-78706401D01*
X136147844Y-78700000D01*
X134750000Y-78700000D01*
X134750000Y-79750000D01*
X134250000Y-79750000D01*
X134250000Y-78700000D01*
X132852155Y-78700000D01*
X132792627Y-78706401D01*
X132792620Y-78706403D01*
X132657913Y-78756645D01*
X132657906Y-78756649D01*
X132542813Y-78842809D01*
X132525828Y-78865497D01*
X132469893Y-78907366D01*
X132400201Y-78912348D01*
X132338879Y-78878861D01*
X132309522Y-78832138D01*
X132255715Y-78678369D01*
X132221267Y-78579921D01*
X132104284Y-78337003D01*
X131960838Y-78108711D01*
X131792734Y-77897915D01*
X131602085Y-77707266D01*
X131436245Y-77575013D01*
X141275000Y-77575013D01*
X141275000Y-77712500D01*
X142250000Y-77712500D01*
X142750000Y-77712500D01*
X143724999Y-77712500D01*
X143724999Y-77575028D01*
X143724998Y-77575013D01*
X143714505Y-77472302D01*
X143659358Y-77305880D01*
X143659356Y-77305875D01*
X143567315Y-77156654D01*
X143443345Y-77032684D01*
X143294124Y-76940643D01*
X143294119Y-76940641D01*
X143127697Y-76885494D01*
X143127690Y-76885493D01*
X143024986Y-76875000D01*
X142750000Y-76875000D01*
X142750000Y-77712500D01*
X142250000Y-77712500D01*
X142250000Y-76875000D01*
X141975029Y-76875000D01*
X141975012Y-76875001D01*
X141872302Y-76885494D01*
X141705880Y-76940641D01*
X141705875Y-76940643D01*
X141556654Y-77032684D01*
X141432684Y-77156654D01*
X141340643Y-77305875D01*
X141340641Y-77305880D01*
X141285494Y-77472302D01*
X141285493Y-77472309D01*
X141275000Y-77575013D01*
X131436245Y-77575013D01*
X131391289Y-77539162D01*
X131162997Y-77395716D01*
X131162994Y-77395714D01*
X130920082Y-77278734D01*
X130665602Y-77189687D01*
X130665594Y-77189684D01*
X130461191Y-77143031D01*
X130402732Y-77129688D01*
X130402728Y-77129687D01*
X130402719Y-77129686D01*
X130134813Y-77099500D01*
X130134809Y-77099500D01*
X129865191Y-77099500D01*
X129865186Y-77099500D01*
X129597280Y-77129686D01*
X129597268Y-77129688D01*
X129334405Y-77189684D01*
X129334397Y-77189687D01*
X129079917Y-77278734D01*
X128837005Y-77395714D01*
X128608712Y-77539161D01*
X128397915Y-77707265D01*
X128207265Y-77897915D01*
X128039161Y-78108712D01*
X127895714Y-78337005D01*
X127778734Y-78579917D01*
X127689687Y-78834397D01*
X127689684Y-78834405D01*
X127629688Y-79097268D01*
X127629686Y-79097280D01*
X127599500Y-79365186D01*
X126650500Y-79365186D01*
X126650500Y-78004427D01*
X126650816Y-77995581D01*
X126666148Y-77781212D01*
X126666148Y-77781211D01*
X126668666Y-77763700D01*
X126679804Y-77712500D01*
X126713407Y-77558026D01*
X126718384Y-77541075D01*
X126791948Y-77343844D01*
X126799296Y-77327757D01*
X126856255Y-77223443D01*
X126900166Y-77143025D01*
X126909720Y-77128157D01*
X127035873Y-76959637D01*
X127047445Y-76946283D01*
X127196283Y-76797445D01*
X127209637Y-76785873D01*
X127378157Y-76659720D01*
X127393025Y-76650166D01*
X127577757Y-76549295D01*
X127593844Y-76541948D01*
X127791075Y-76468384D01*
X127808026Y-76463407D01*
X128013705Y-76418665D01*
X128031206Y-76416148D01*
X128245582Y-76400816D01*
X128254428Y-76400500D01*
X128307583Y-76400500D01*
X166442417Y-76400500D01*
X166495572Y-76400500D01*
X166504418Y-76400816D01*
G37*
%TD.AperFunction*%
%TA.AperFunction,Conductor*%
G36*
X130211259Y-88607707D02*
G01*
X130211261Y-88607707D01*
X130212923Y-88606500D01*
X130352504Y-88466918D01*
X130468514Y-88307242D01*
X130558126Y-88131373D01*
X130620629Y-87939012D01*
X130621997Y-87939456D01*
X130653550Y-87884457D01*
X130715564Y-87852270D01*
X130785136Y-87858720D01*
X130827048Y-87886283D01*
X131613181Y-88672416D01*
X131646666Y-88733739D01*
X131649500Y-88760097D01*
X131649500Y-100663330D01*
X131649499Y-100663348D01*
X131649499Y-100829054D01*
X131649498Y-100829054D01*
X131649499Y-100829057D01*
X131690423Y-100981785D01*
X131712278Y-101019639D01*
X131769477Y-101118712D01*
X131769481Y-101118717D01*
X131888349Y-101237585D01*
X131888355Y-101237590D01*
X132515139Y-101864374D01*
X132515149Y-101864385D01*
X132519479Y-101868715D01*
X132519480Y-101868716D01*
X132631284Y-101980520D01*
X132714598Y-102028620D01*
X132718095Y-102030639D01*
X132718097Y-102030641D01*
X132756151Y-102052611D01*
X132768215Y-102059577D01*
X132920943Y-102100500D01*
X133079057Y-102100500D01*
X139726000Y-102100500D01*
X139793039Y-102120185D01*
X139838794Y-102172989D01*
X139850000Y-102224500D01*
X139850000Y-102640000D01*
X141166988Y-102640000D01*
X141134075Y-102697007D01*
X141100000Y-102824174D01*
X141100000Y-102955826D01*
X141134075Y-103082993D01*
X141166988Y-103140000D01*
X139850000Y-103140000D01*
X139850000Y-103691844D01*
X139856401Y-103751372D01*
X139856403Y-103751379D01*
X139906645Y-103886086D01*
X139906649Y-103886093D01*
X139992809Y-104001187D01*
X139992812Y-104001190D01*
X140107906Y-104087350D01*
X140107913Y-104087354D01*
X140242620Y-104137596D01*
X140242627Y-104137598D01*
X140302155Y-104143999D01*
X140302172Y-104144000D01*
X141350000Y-104144000D01*
X141350000Y-103323012D01*
X141407007Y-103355925D01*
X141534174Y-103390000D01*
X141665826Y-103390000D01*
X141792993Y-103355925D01*
X141850000Y-103323012D01*
X141850000Y-104144000D01*
X142897828Y-104144000D01*
X142897844Y-104143999D01*
X142957372Y-104137598D01*
X142957379Y-104137596D01*
X143092086Y-104087354D01*
X143092093Y-104087350D01*
X143207187Y-104001190D01*
X143207190Y-104001187D01*
X143293350Y-103886093D01*
X143293354Y-103886086D01*
X143343596Y-103751379D01*
X143343598Y-103751372D01*
X143349999Y-103691844D01*
X143350000Y-103691827D01*
X143350000Y-103140000D01*
X142033012Y-103140000D01*
X142065925Y-103082993D01*
X142100000Y-102955826D01*
X142100000Y-102824174D01*
X142065925Y-102697007D01*
X142033012Y-102640000D01*
X143350000Y-102640000D01*
X143350000Y-102088172D01*
X143349999Y-102088155D01*
X143343598Y-102028627D01*
X143343596Y-102028620D01*
X143297287Y-101904458D01*
X143292303Y-101834767D01*
X143325785Y-101773448D01*
X143858506Y-101240728D01*
X143858511Y-101240724D01*
X143868714Y-101230520D01*
X143868716Y-101230520D01*
X143980520Y-101118716D01*
X144037722Y-101019639D01*
X144040191Y-101015361D01*
X144090755Y-100967143D01*
X144159361Y-100953916D01*
X144224227Y-100979879D01*
X144247898Y-101004467D01*
X144286172Y-101057146D01*
X144425354Y-101196328D01*
X144485096Y-101239733D01*
X144584596Y-101312025D01*
X144683490Y-101362413D01*
X144734286Y-101410387D01*
X144751082Y-101478208D01*
X144728545Y-101544343D01*
X144727515Y-101545782D01*
X144667057Y-101628996D01*
X144577408Y-101804941D01*
X144516389Y-101992736D01*
X144485500Y-102187763D01*
X144485500Y-103377236D01*
X144516389Y-103572263D01*
X144569997Y-103737249D01*
X144577409Y-103760061D01*
X144650518Y-103903543D01*
X144667058Y-103936004D01*
X144783115Y-104095746D01*
X144922753Y-104235384D01*
X145064515Y-104338378D01*
X145082499Y-104351444D01*
X145258439Y-104441091D01*
X145446237Y-104502110D01*
X145446239Y-104502110D01*
X145450968Y-104503246D01*
X145450693Y-104504388D01*
X145508847Y-104531956D01*
X145545778Y-104591268D01*
X145544780Y-104661130D01*
X145506170Y-104719363D01*
X145442206Y-104747477D01*
X145426314Y-104748500D01*
X130399097Y-104748500D01*
X130332058Y-104728815D01*
X130311416Y-104712181D01*
X129848703Y-104249468D01*
X129815218Y-104188145D01*
X129820202Y-104118453D01*
X129862074Y-104062520D01*
X129880081Y-104051306D01*
X130053501Y-103962944D01*
X130159288Y-103886086D01*
X130213246Y-103846884D01*
X130213248Y-103846881D01*
X130213252Y-103846879D01*
X130352879Y-103707252D01*
X130352881Y-103707248D01*
X130352884Y-103707246D01*
X130450953Y-103572263D01*
X130468944Y-103547501D01*
X130558591Y-103371561D01*
X130619610Y-103183763D01*
X130637749Y-103069240D01*
X130637749Y-103069239D01*
X130650500Y-102988735D01*
X130650500Y-102791263D01*
X130619610Y-102596236D01*
X130563671Y-102424075D01*
X130558591Y-102408439D01*
X130468944Y-102232499D01*
X130425708Y-102172989D01*
X130352884Y-102072753D01*
X130213246Y-101933115D01*
X130053505Y-101817058D01*
X130017874Y-101798903D01*
X129883593Y-101730482D01*
X129832800Y-101682510D01*
X129816005Y-101614689D01*
X129838542Y-101548554D01*
X129883593Y-101509517D01*
X130053501Y-101422944D01*
X130135694Y-101363228D01*
X130213246Y-101306884D01*
X130213248Y-101306881D01*
X130213252Y-101306879D01*
X130352879Y-101167252D01*
X130352881Y-101167248D01*
X130352884Y-101167246D01*
X130403779Y-101097192D01*
X130468944Y-101007501D01*
X130558591Y-100831561D01*
X130619610Y-100643763D01*
X130619610Y-100643761D01*
X130650500Y-100448736D01*
X130650500Y-100251263D01*
X130619610Y-100056236D01*
X130599270Y-99993637D01*
X130558591Y-99868439D01*
X130468944Y-99692499D01*
X130461486Y-99682234D01*
X130352884Y-99532753D01*
X130213246Y-99393115D01*
X130053505Y-99277058D01*
X130038630Y-99269479D01*
X129883593Y-99190482D01*
X129832800Y-99142510D01*
X129816005Y-99074689D01*
X129838542Y-99008554D01*
X129883593Y-98969517D01*
X130053501Y-98882944D01*
X130073912Y-98868114D01*
X130213246Y-98766884D01*
X130213248Y-98766881D01*
X130213252Y-98766879D01*
X130352879Y-98627252D01*
X130352881Y-98627248D01*
X130352884Y-98627246D01*
X130431179Y-98519480D01*
X130468944Y-98467501D01*
X130558591Y-98291561D01*
X130619610Y-98103763D01*
X130636785Y-97995326D01*
X130650500Y-97908736D01*
X130650500Y-97711263D01*
X130619610Y-97516236D01*
X130584985Y-97409673D01*
X130558591Y-97328439D01*
X130468944Y-97152499D01*
X130461486Y-97142234D01*
X130352884Y-96992753D01*
X130213246Y-96853115D01*
X130053505Y-96737058D01*
X130044883Y-96732665D01*
X129883593Y-96650482D01*
X129832800Y-96602510D01*
X129816005Y-96534689D01*
X129838542Y-96468554D01*
X129883593Y-96429517D01*
X130053501Y-96342944D01*
X130083176Y-96321384D01*
X130213246Y-96226884D01*
X130213248Y-96226881D01*
X130213252Y-96226879D01*
X130352879Y-96087252D01*
X130352881Y-96087248D01*
X130352884Y-96087246D01*
X130403779Y-96017192D01*
X130468944Y-95927501D01*
X130558591Y-95751561D01*
X130619610Y-95563763D01*
X130636785Y-95455326D01*
X130650500Y-95368736D01*
X130650500Y-95171263D01*
X130619610Y-94976236D01*
X130584985Y-94869673D01*
X130558591Y-94788439D01*
X130468944Y-94612499D01*
X130461486Y-94602234D01*
X130352884Y-94452753D01*
X130213246Y-94313115D01*
X130053505Y-94197058D01*
X130044883Y-94192665D01*
X129883593Y-94110482D01*
X129832800Y-94062510D01*
X129816005Y-93994689D01*
X129838542Y-93928554D01*
X129883593Y-93889517D01*
X130053501Y-93802944D01*
X130083176Y-93781384D01*
X130213246Y-93686884D01*
X130213248Y-93686881D01*
X130213252Y-93686879D01*
X130352879Y-93547252D01*
X130352881Y-93547248D01*
X130352884Y-93547246D01*
X130403779Y-93477192D01*
X130468944Y-93387501D01*
X130558591Y-93211561D01*
X130619610Y-93023763D01*
X130636785Y-92915326D01*
X130650500Y-92828736D01*
X130650500Y-92631263D01*
X130619610Y-92436236D01*
X130584985Y-92329673D01*
X130558591Y-92248439D01*
X130468944Y-92072499D01*
X130461486Y-92062234D01*
X130352884Y-91912753D01*
X130213246Y-91773115D01*
X130053504Y-91657058D01*
X130053503Y-91657057D01*
X130053501Y-91657056D01*
X129877561Y-91567409D01*
X129829489Y-91551789D01*
X129771815Y-91512352D01*
X129744617Y-91447993D01*
X129747235Y-91404912D01*
X129749969Y-91393520D01*
X129029410Y-90672962D01*
X129092993Y-90655925D01*
X129207007Y-90590099D01*
X129300099Y-90497007D01*
X129365925Y-90382993D01*
X129382962Y-90319410D01*
X130211259Y-91147707D01*
X130211261Y-91147707D01*
X130212923Y-91146500D01*
X130352504Y-91006918D01*
X130468514Y-90847242D01*
X130558126Y-90671373D01*
X130619123Y-90483646D01*
X130650000Y-90288697D01*
X130650000Y-90091302D01*
X130619123Y-89896353D01*
X130558126Y-89708626D01*
X130468514Y-89532757D01*
X130352503Y-89373080D01*
X130352499Y-89373075D01*
X130212931Y-89233507D01*
X130212922Y-89233499D01*
X130211260Y-89232291D01*
X130211259Y-89232291D01*
X129382962Y-90060588D01*
X129365925Y-89997007D01*
X129300099Y-89882993D01*
X129207007Y-89789901D01*
X129092993Y-89724075D01*
X129029410Y-89707037D01*
X129749969Y-88986477D01*
X129740959Y-88948948D01*
X129740959Y-88891052D01*
X129749969Y-88853520D01*
X129029410Y-88132962D01*
X129092993Y-88115925D01*
X129207007Y-88050099D01*
X129300099Y-87957007D01*
X129365925Y-87842993D01*
X129382962Y-87779410D01*
X130211259Y-88607707D01*
G37*
%TD.AperFunction*%
%TA.AperFunction,Conductor*%
G36*
X144437806Y-86775185D02*
G01*
X144483561Y-86827989D01*
X144493505Y-86897147D01*
X144493240Y-86898899D01*
X144485500Y-86947764D01*
X144485500Y-88137236D01*
X144516389Y-88332263D01*
X144562865Y-88475300D01*
X144577409Y-88520061D01*
X144622068Y-88607708D01*
X144667058Y-88696004D01*
X144727514Y-88779216D01*
X144750994Y-88845022D01*
X144735168Y-88913076D01*
X144685062Y-88961771D01*
X144683491Y-88962586D01*
X144584594Y-89012976D01*
X144493741Y-89078985D01*
X144425354Y-89128672D01*
X144425352Y-89128674D01*
X144425351Y-89128674D01*
X144286174Y-89267851D01*
X144286174Y-89267852D01*
X144286172Y-89267854D01*
X144252523Y-89314168D01*
X144170476Y-89427094D01*
X144081117Y-89602470D01*
X144020290Y-89789673D01*
X143989500Y-89984077D01*
X143989500Y-90180922D01*
X144020290Y-90375326D01*
X144072362Y-90535582D01*
X144074357Y-90605423D01*
X144038277Y-90665256D01*
X144023322Y-90677003D01*
X143988084Y-90700548D01*
X143988080Y-90700551D01*
X142989446Y-91699184D01*
X142928123Y-91732669D01*
X142858431Y-91727685D01*
X142828880Y-91711821D01*
X142753504Y-91657058D01*
X142753503Y-91657057D01*
X142753501Y-91657056D01*
X142583593Y-91570482D01*
X142532800Y-91522510D01*
X142516005Y-91454689D01*
X142538542Y-91388554D01*
X142583593Y-91349517D01*
X142753501Y-91262944D01*
X142773912Y-91248114D01*
X142913246Y-91146884D01*
X142913248Y-91146881D01*
X142913252Y-91146879D01*
X143052879Y-91007252D01*
X143052881Y-91007248D01*
X143052884Y-91007246D01*
X143103779Y-90937192D01*
X143168944Y-90847501D01*
X143258591Y-90671561D01*
X143319610Y-90483763D01*
X143319629Y-90483646D01*
X143350500Y-90288736D01*
X143350500Y-90091263D01*
X143319610Y-89896236D01*
X143263671Y-89724075D01*
X143258591Y-89708439D01*
X143168944Y-89532499D01*
X143141259Y-89494393D01*
X143052884Y-89372753D01*
X142913246Y-89233115D01*
X142753504Y-89117058D01*
X142753503Y-89117057D01*
X142753501Y-89117056D01*
X142577561Y-89027409D01*
X142529489Y-89011789D01*
X142471815Y-88972352D01*
X142444617Y-88907993D01*
X142447235Y-88864912D01*
X142449969Y-88853520D01*
X141729410Y-88132962D01*
X141792993Y-88115925D01*
X141907007Y-88050099D01*
X142000099Y-87957007D01*
X142065925Y-87842993D01*
X142082962Y-87779410D01*
X142911259Y-88607707D01*
X142911261Y-88607707D01*
X142912923Y-88606500D01*
X143052504Y-88466918D01*
X143168514Y-88307242D01*
X143258126Y-88131373D01*
X143319123Y-87943646D01*
X143350000Y-87748697D01*
X143350000Y-87551302D01*
X143319123Y-87356353D01*
X143258126Y-87168626D01*
X143168514Y-86992757D01*
X143139183Y-86952385D01*
X143115703Y-86886579D01*
X143131529Y-86818525D01*
X143181635Y-86769830D01*
X143239501Y-86755500D01*
X144370767Y-86755500D01*
X144437806Y-86775185D01*
G37*
%TD.AperFunction*%
%TD*%
M02*
