%TF.GenerationSoftware,KiCad,Pcbnew,9.0.1*%
%TF.CreationDate,2026-03-03T11:13:27-05:00*%
%TF.ProjectId,RPiLinearServo,5250694c-696e-4656-9172-536572766f2e,rev?*%
%TF.SameCoordinates,Original*%
%TF.FileFunction,Copper,L2,Bot*%
%TF.FilePolarity,Positive*%
%FSLAX46Y46*%
G04 Gerber Fmt 4.6, Leading zero omitted, Abs format (unit mm)*
G04 Created by KiCad (PCBNEW 9.0.1) date 2026-03-03 11:13:27*
%MOMM*%
%LPD*%
G01*
G04 APERTURE LIST*
G04 Aperture macros list*
%AMRoundRect*
0 Rectangle with rounded corners*
0 $1 Rounding radius*
0 $2 $3 $4 $5 $6 $7 $8 $9 X,Y pos of 4 corners*
0 Add a 4 corners polygon primitive as box body*
4,1,4,$2,$3,$4,$5,$6,$7,$8,$9,$2,$3,0*
0 Add four circle primitives for the rounded corners*
1,1,$1+$1,$2,$3*
1,1,$1+$1,$4,$5*
1,1,$1+$1,$6,$7*
1,1,$1+$1,$8,$9*
0 Add four rect primitives between the rounded corners*
20,1,$1+$1,$2,$3,$4,$5,0*
20,1,$1+$1,$4,$5,$6,$7,0*
20,1,$1+$1,$6,$7,$8,$9,0*
20,1,$1+$1,$8,$9,$2,$3,0*%
G04 Aperture macros list end*
%TA.AperFunction,ComponentPad*%
%ADD10R,1.700000X1.700000*%
%TD*%
%TA.AperFunction,ComponentPad*%
%ADD11C,1.700000*%
%TD*%
%TA.AperFunction,ComponentPad*%
%ADD12C,3.800000*%
%TD*%
%TA.AperFunction,ComponentPad*%
%ADD13R,1.508000X2.500000*%
%TD*%
%TA.AperFunction,ComponentPad*%
%ADD14O,1.508000X2.500000*%
%TD*%
%TA.AperFunction,ComponentPad*%
%ADD15O,2.500000X1.500000*%
%TD*%
%TA.AperFunction,ComponentPad*%
%ADD16R,2.500000X1.508000*%
%TD*%
%TA.AperFunction,ComponentPad*%
%ADD17O,2.500000X1.508000*%
%TD*%
%TA.AperFunction,ComponentPad*%
%ADD18C,1.508000*%
%TD*%
%TA.AperFunction,SMDPad,CuDef*%
%ADD19RoundRect,0.250000X0.337500X0.475000X-0.337500X0.475000X-0.337500X-0.475000X0.337500X-0.475000X0*%
%TD*%
%TA.AperFunction,SMDPad,CuDef*%
%ADD20RoundRect,0.237500X0.237500X-0.250000X0.237500X0.250000X-0.237500X0.250000X-0.237500X-0.250000X0*%
%TD*%
%TA.AperFunction,SMDPad,CuDef*%
%ADD21RoundRect,0.200000X0.750000X0.200000X-0.750000X0.200000X-0.750000X-0.200000X0.750000X-0.200000X0*%
%TD*%
%TA.AperFunction,ViaPad*%
%ADD22C,0.600000*%
%TD*%
%TA.AperFunction,Conductor*%
%ADD23C,0.500000*%
%TD*%
%TA.AperFunction,Conductor*%
%ADD24C,0.200000*%
%TD*%
G04 APERTURE END LIST*
D10*
%TO.P,J2,1,Pin_1*%
%TO.N,STEPPER_M2B*%
X161525000Y-78475000D03*
D11*
%TO.P,J2,2,Pin_2*%
%TO.N,STEPPER_M1B*%
X158985000Y-78475000D03*
%TO.P,J2,3,Pin_3*%
%TO.N,STEPPER_M2A*%
X161525000Y-81015000D03*
%TO.P,J2,4,Pin_4*%
%TO.N,STEPPER_M1A*%
X158985000Y-81015000D03*
%TD*%
D12*
%TO.P,H1,1*%
%TO.N,N/C*%
X154750000Y-79500000D03*
%TD*%
D10*
%TO.P,J1,1,Pin_1*%
%TO.N,PWM_INPUT*%
X165750000Y-83750000D03*
D11*
%TO.P,J1,2,Pin_2*%
%TO.N,+5V*%
X165750000Y-81210000D03*
%TO.P,J1,3,Pin_3*%
%TO.N,GND*%
X165750000Y-78670000D03*
%TD*%
D12*
%TO.P,H2,1*%
%TO.N,N/C*%
X130000000Y-79500000D03*
%TD*%
D13*
%TO.P,U2,1,GP0*%
%TO.N,PWM_INPUT*%
X166060000Y-102782500D03*
D14*
%TO.P,U2,2,GP1*%
%TO.N,STEPPER_nENABLE*%
X163520000Y-102782500D03*
%TO.P,U2,3,GP2*%
%TO.N,STEPPER_STEP*%
X160980000Y-102782500D03*
%TO.P,U2,4,GP3*%
%TO.N,STEPPER_DIR*%
X158440000Y-102782500D03*
%TO.P,U2,5,GP4*%
%TO.N,Net-(U2-GP4)*%
X155900000Y-102782500D03*
%TO.P,U2,6,GP5*%
%TO.N,STEPPER_UART*%
X153360000Y-102782500D03*
%TO.P,U2,7,GP6*%
%TO.N,unconnected-(U2-GP6-Pad7)*%
X150820000Y-102782500D03*
%TO.P,U2,8,GP7*%
%TO.N,STEPPER_DIAG*%
X148280000Y-102782500D03*
%TO.P,U2,9,GP8*%
%TO.N,unconnected-(U2-GP8-Pad9)*%
X145740000Y-102782500D03*
D15*
%TO.P,U2,10,GP9*%
%TO.N,STEPPER_INDEX*%
X145740000Y-100242500D03*
%TO.P,U2,11,GP10*%
%TO.N,unconnected-(U2-GP10-Pad11)*%
X145740000Y-97702500D03*
%TO.P,U2,12,GP11*%
%TO.N,unconnected-(U2-GP11-Pad12)*%
X145740000Y-95162500D03*
%TO.P,U2,13,GP12*%
%TO.N,unconnected-(U2-GP12-Pad13)*%
X145740000Y-92622500D03*
%TO.P,U2,14,GP13*%
%TO.N,unconnected-(U2-GP13-Pad14)*%
X145740000Y-90082500D03*
D14*
%TO.P,U2,15,GP14*%
%TO.N,unconnected-(U2-GP14-Pad15)*%
X145740000Y-87542500D03*
%TO.P,U2,16,GP15*%
%TO.N,unconnected-(U2-GP15-Pad16)*%
X148280000Y-87542500D03*
%TO.P,U2,17,GP26*%
%TO.N,HALL_OUTPUT*%
X150820000Y-87542500D03*
%TO.P,U2,18,GP27*%
%TO.N,unconnected-(U2-GP27-Pad18)*%
X153360000Y-87542500D03*
%TO.P,U2,19,GP28*%
%TO.N,unconnected-(U2-GP28-Pad19)*%
X155900000Y-87542500D03*
%TO.P,U2,20,GP29*%
%TO.N,unconnected-(U2-GP29-Pad20)*%
X158440000Y-87542500D03*
%TO.P,U2,21,3V3*%
%TO.N,+3V3*%
X160980000Y-87542500D03*
%TO.P,U2,22,GND*%
%TO.N,GND*%
X163520000Y-87542500D03*
%TO.P,U2,23,5V*%
%TO.N,+5V*%
X166060000Y-87542500D03*
%TD*%
D16*
%TO.P,U1,1,GND*%
%TO.N,GND*%
X141600000Y-102890000D03*
D17*
%TO.P,U1,2,VIO*%
%TO.N,+3V3*%
X141600000Y-100350000D03*
%TO.P,U1,3,M1B*%
%TO.N,STEPPER_M1B*%
X141600000Y-97810000D03*
%TO.P,U1,4,M1A*%
%TO.N,STEPPER_M1A*%
X141600000Y-95270000D03*
%TO.P,U1,5,M2A*%
%TO.N,STEPPER_M2A*%
X141600000Y-92730000D03*
%TO.P,U1,6,M2B*%
%TO.N,STEPPER_M2B*%
X141600000Y-90190000D03*
%TO.P,U1,7,GND*%
%TO.N,GND*%
X141600000Y-87650000D03*
%TO.P,U1,8,VM*%
%TO.N,+5V*%
X141600000Y-85110000D03*
%TO.P,U1,9,DIR*%
%TO.N,STEPPER_DIR*%
X128900000Y-102890000D03*
%TO.P,U1,10,STEP*%
%TO.N,STEPPER_STEP*%
X128900000Y-100350000D03*
%TO.P,U1,11,PDN*%
%TO.N,unconnected-(U1-PDN-Pad11)*%
X128900000Y-97810000D03*
%TO.P,U1,12,UART*%
%TO.N,unconnected-(U1-UART-Pad12)*%
X128900000Y-95270000D03*
%TO.P,U1,13,SPRD*%
%TO.N,STEPPER_UART*%
X128900000Y-92730000D03*
%TO.P,U1,14,MS2*%
%TO.N,GND*%
X128900000Y-90190000D03*
%TO.P,U1,15,MS1*%
X128900000Y-87650000D03*
%TO.P,U1,16,~{EN}*%
%TO.N,STEPPER_nENABLE*%
X128900000Y-85110000D03*
D18*
%TO.P,U1,17,INDEX*%
%TO.N,STEPPER_INDEX*%
X133980000Y-85110000D03*
%TO.P,U1,18,DIAG*%
%TO.N,STEPPER_DIAG*%
X131440000Y-85110000D03*
%TD*%
D19*
%TO.P,C5,1*%
%TO.N,HALL_OUTPUT*%
X137037500Y-103000000D03*
%TO.P,C5,2*%
%TO.N,GND*%
X134962500Y-103000000D03*
%TD*%
%TO.P,C4,1*%
%TO.N,+3V3*%
X137037500Y-97000000D03*
%TO.P,C4,2*%
%TO.N,GND*%
X134962500Y-97000000D03*
%TD*%
D20*
%TO.P,R2,1*%
%TO.N,HALL_OUTPUT*%
X138750000Y-104412500D03*
%TO.P,R2,2*%
%TO.N,Net-(U3-OUT)*%
X138750000Y-102587500D03*
%TD*%
D21*
%TO.P,U3,1,VCC*%
%TO.N,+3V3*%
X138250000Y-99050000D03*
%TO.P,U3,2,OUT*%
%TO.N,Net-(U3-OUT)*%
X138250000Y-100950000D03*
%TO.P,U3,3,GND*%
%TO.N,GND*%
X135250000Y-100000000D03*
%TD*%
D22*
%TO.N,GND*%
X135250000Y-86250000D03*
X135250000Y-90500000D03*
X156250000Y-77250000D03*
X167500000Y-79250000D03*
X167500000Y-81250000D03*
X167500000Y-83750000D03*
X143750000Y-87750000D03*
X139500000Y-87650000D03*
X163500000Y-77250000D03*
X159750000Y-90500000D03*
X132750000Y-82250000D03*
X130750000Y-104250000D03*
X133250000Y-98000000D03*
X136500000Y-82250000D03*
X127500000Y-82250000D03*
X165000000Y-100500000D03*
X155250000Y-90750000D03*
X131250000Y-100250000D03*
X144000000Y-102000000D03*
X133250000Y-103000000D03*
X133250000Y-93250000D03*
X144000000Y-103750000D03*
X162000000Y-93500000D03*
X136000000Y-95250000D03*
X150250000Y-77250000D03*
X167250000Y-105000000D03*
X144750000Y-77250000D03*
X127500000Y-77250000D03*
X149500000Y-96000000D03*
X162500000Y-105000000D03*
X155250000Y-96000000D03*
X137500000Y-77250000D03*
X162500000Y-98500000D03*
X131250000Y-95250000D03*
X157250000Y-104500000D03*
X159750000Y-96000000D03*
X132750000Y-77250000D03*
X152500000Y-93500000D03*
X165000000Y-96000000D03*
X165000000Y-90750000D03*
X157500000Y-98500000D03*
X131250000Y-90500000D03*
X133250000Y-88250000D03*
X136000000Y-98500000D03*
X152500000Y-98500000D03*
X149500000Y-91250000D03*
X157250000Y-93500000D03*
%TD*%
D23*
%TO.N,STEPPER_M2B*%
X163000000Y-80200000D02*
X161275000Y-78475000D01*
X163000000Y-81750000D02*
X163000000Y-80200000D01*
X160500000Y-84250000D02*
X163000000Y-81750000D01*
X152758636Y-84250000D02*
X160500000Y-84250000D01*
X151410636Y-82902000D02*
X152758636Y-84250000D01*
X138500000Y-85000000D02*
X140598000Y-82902000D01*
X140598000Y-82902000D02*
X151410636Y-82902000D01*
X138500000Y-89250000D02*
X138500000Y-85000000D01*
X139440000Y-90190000D02*
X138500000Y-89250000D01*
X141600000Y-90190000D02*
X139440000Y-90190000D01*
%TO.N,STEPPER_M2A*%
X161525000Y-81225000D02*
X161525000Y-81015000D01*
X159201000Y-83549000D02*
X161525000Y-81225000D01*
X153066272Y-83549000D02*
X159201000Y-83549000D01*
X153017272Y-83500000D02*
X153066272Y-83549000D01*
X151701000Y-82201000D02*
X153000000Y-83500000D01*
X140299000Y-82201000D02*
X151701000Y-82201000D01*
X137750000Y-84750000D02*
X140299000Y-82201000D01*
X137750000Y-90250000D02*
X137750000Y-84750000D01*
X140230000Y-92730000D02*
X137750000Y-90250000D01*
X153000000Y-83500000D02*
X153017272Y-83500000D01*
X141600000Y-92730000D02*
X140230000Y-92730000D01*
%TO.N,STEPPER_M1A*%
X157152000Y-82848000D02*
X158985000Y-81015000D01*
X153356636Y-82848000D02*
X157152000Y-82848000D01*
X153250000Y-82750000D02*
X153258636Y-82750000D01*
X137000000Y-84500000D02*
X140000000Y-81500000D01*
X137000000Y-91500000D02*
X137000000Y-84500000D01*
X140000000Y-81500000D02*
X152000000Y-81500000D01*
X152000000Y-81500000D02*
X153250000Y-82750000D01*
X153258636Y-82750000D02*
X153356636Y-82848000D01*
X140770000Y-95270000D02*
X137000000Y-91500000D01*
X141600000Y-95270000D02*
X140770000Y-95270000D01*
%TO.N,STEPPER_M1B*%
X155853000Y-82147000D02*
X158985000Y-79015000D01*
X152250000Y-80750000D02*
X153647000Y-82147000D01*
X158985000Y-79015000D02*
X158985000Y-78475000D01*
X139750000Y-80750000D02*
X152250000Y-80750000D01*
X136250000Y-84250000D02*
X139750000Y-80750000D01*
X153647000Y-82147000D02*
X155853000Y-82147000D01*
X141600000Y-97810000D02*
X136250000Y-92460000D01*
X136250000Y-92460000D02*
X136250000Y-84250000D01*
%TO.N,STEPPER_M2A*%
X141600000Y-92730000D02*
X140730000Y-92730000D01*
%TO.N,GND*%
X141600000Y-102890000D02*
X142390000Y-102890000D01*
X142390000Y-102890000D02*
X143250000Y-103750000D01*
X143250000Y-103750000D02*
X144000000Y-103750000D01*
X141600000Y-102890000D02*
X141860000Y-102890000D01*
X141860000Y-102890000D02*
X143500000Y-101250000D01*
D24*
%TO.N,STEPPER_INDEX*%
X134250000Y-85380000D02*
X133980000Y-85110000D01*
X145740000Y-100242500D02*
X144742500Y-100242500D01*
X138500000Y-96250000D02*
X134250000Y-92000000D01*
X134250000Y-92000000D02*
X134250000Y-85380000D01*
X140500000Y-99000000D02*
X138500000Y-97000000D01*
X143500000Y-99000000D02*
X140500000Y-99000000D01*
X138500000Y-97000000D02*
X138500000Y-96250000D01*
X144742500Y-100242500D02*
X143500000Y-99000000D01*
%TO.N,STEPPER_STEP*%
X131750000Y-103750000D02*
X133750000Y-105750000D01*
X131750000Y-102250000D02*
X131750000Y-103750000D01*
X158012500Y-105750000D02*
X160980000Y-102782500D01*
X129850000Y-100350000D02*
X131750000Y-102250000D01*
X133750000Y-105750000D02*
X158012500Y-105750000D01*
X128900000Y-100350000D02*
X129850000Y-100350000D01*
%TO.N,STEPPER_DIAG*%
X146750000Y-105250000D02*
X148280000Y-103720000D01*
X131440000Y-85110000D02*
X132250000Y-85920000D01*
X134000000Y-105250000D02*
X146750000Y-105250000D01*
X132250000Y-103500000D02*
X134000000Y-105250000D01*
X132250000Y-85920000D02*
X132250000Y-103500000D01*
X148280000Y-103720000D02*
X148280000Y-102782500D01*
%TO.N,+3V3*%
X139550000Y-100350000D02*
X141600000Y-100350000D01*
X138250000Y-99050000D02*
X139550000Y-100350000D01*
X137037500Y-97837500D02*
X138250000Y-99050000D01*
X137037500Y-97000000D02*
X137037500Y-97837500D01*
%TO.N,HALL_OUTPUT*%
X146250000Y-104750000D02*
X147000000Y-104000000D01*
X147750000Y-100750000D02*
X147750000Y-90612500D01*
X137037500Y-103000000D02*
X138612500Y-104575000D01*
X147750000Y-90612500D02*
X150820000Y-87542500D01*
X138750000Y-104575000D02*
X138925000Y-104750000D01*
X138925000Y-104750000D02*
X146250000Y-104750000D01*
X147000000Y-101500000D02*
X147750000Y-100750000D01*
X147000000Y-104000000D02*
X147000000Y-101500000D01*
X138612500Y-104575000D02*
X138750000Y-104575000D01*
%TO.N,unconnected-(U2-GP6-Pad7)*%
X150820000Y-102570000D02*
X150820000Y-102782500D01*
%TO.N,Net-(U3-OUT)*%
X138250000Y-100950000D02*
X138750000Y-101450000D01*
X138750000Y-101450000D02*
X138750000Y-102750000D01*
%TO.N,unconnected-(U2-GP8-Pad9)*%
X145032500Y-102782500D02*
X145740000Y-102782500D01*
%TD*%
%TA.AperFunction,Conductor*%
%TO.N,GND*%
G36*
X166504418Y-76400816D02*
G01*
X166718791Y-76416148D01*
X166736296Y-76418665D01*
X166941969Y-76463406D01*
X166958928Y-76468385D01*
X167156150Y-76541946D01*
X167172242Y-76549296D01*
X167356968Y-76650163D01*
X167371848Y-76659724D01*
X167540353Y-76785866D01*
X167553723Y-76797452D01*
X167702547Y-76946276D01*
X167714133Y-76959646D01*
X167837541Y-77124500D01*
X167840271Y-77128146D01*
X167849836Y-77143031D01*
X167950703Y-77327757D01*
X167958053Y-77343849D01*
X168031611Y-77541063D01*
X168036595Y-77558039D01*
X168081333Y-77763700D01*
X168083851Y-77781211D01*
X168099184Y-77995580D01*
X168099500Y-78004427D01*
X168099500Y-104245572D01*
X168099184Y-104254419D01*
X168083851Y-104468788D01*
X168081333Y-104486299D01*
X168036595Y-104691960D01*
X168031611Y-104708936D01*
X167958053Y-104906150D01*
X167950703Y-104922242D01*
X167849836Y-105106968D01*
X167840271Y-105121853D01*
X167714133Y-105290353D01*
X167702547Y-105303723D01*
X167553723Y-105452547D01*
X167540353Y-105464133D01*
X167371853Y-105590271D01*
X167356968Y-105599836D01*
X167172242Y-105700703D01*
X167156150Y-105708053D01*
X166958936Y-105781611D01*
X166941960Y-105786595D01*
X166736299Y-105831333D01*
X166718788Y-105833851D01*
X166523369Y-105847828D01*
X166504417Y-105849184D01*
X166495572Y-105849500D01*
X159061597Y-105849500D01*
X158994558Y-105829815D01*
X158948803Y-105777011D01*
X158938859Y-105707853D01*
X158967884Y-105644297D01*
X158973916Y-105637819D01*
X159159188Y-105452547D01*
X160217585Y-104394148D01*
X160278906Y-104360665D01*
X160348597Y-104365649D01*
X160361554Y-104371344D01*
X160498439Y-104441091D01*
X160610904Y-104477633D01*
X160686236Y-104502110D01*
X160881264Y-104533000D01*
X160881269Y-104533000D01*
X161078736Y-104533000D01*
X161273763Y-104502110D01*
X161461561Y-104441091D01*
X161637501Y-104351444D01*
X161760862Y-104261818D01*
X161797246Y-104235384D01*
X161797248Y-104235381D01*
X161797252Y-104235379D01*
X161936879Y-104095752D01*
X161936881Y-104095748D01*
X161936884Y-104095746D01*
X162052941Y-103936005D01*
X162052942Y-103936004D01*
X162052944Y-103936001D01*
X162139517Y-103766093D01*
X162187490Y-103715300D01*
X162255311Y-103698505D01*
X162321446Y-103721042D01*
X162360482Y-103766093D01*
X162419743Y-103882396D01*
X162447058Y-103936005D01*
X162563115Y-104095746D01*
X162702753Y-104235384D01*
X162852234Y-104343986D01*
X162862499Y-104351444D01*
X163038439Y-104441091D01*
X163150904Y-104477633D01*
X163226236Y-104502110D01*
X163421264Y-104533000D01*
X163421269Y-104533000D01*
X163618736Y-104533000D01*
X163813763Y-104502110D01*
X164001561Y-104441091D01*
X164177501Y-104351444D01*
X164300862Y-104261818D01*
X164337246Y-104235384D01*
X164337248Y-104235381D01*
X164337252Y-104235379D01*
X164476879Y-104095752D01*
X164581183Y-103952188D01*
X164636510Y-103909523D01*
X164706124Y-103903543D01*
X164767919Y-103936149D01*
X164802277Y-103996987D01*
X164805500Y-104025072D01*
X164805500Y-104080369D01*
X164805501Y-104080376D01*
X164811908Y-104139983D01*
X164862202Y-104274828D01*
X164862206Y-104274835D01*
X164948452Y-104390044D01*
X164948455Y-104390047D01*
X165063664Y-104476293D01*
X165063671Y-104476297D01*
X165198517Y-104526591D01*
X165198516Y-104526591D01*
X165205444Y-104527335D01*
X165258127Y-104533000D01*
X166861872Y-104532999D01*
X166921483Y-104526591D01*
X167056331Y-104476296D01*
X167171546Y-104390046D01*
X167257796Y-104274831D01*
X167308091Y-104139983D01*
X167314500Y-104080373D01*
X167314499Y-101484628D01*
X167308091Y-101425017D01*
X167303117Y-101411682D01*
X167257797Y-101290171D01*
X167257793Y-101290164D01*
X167171547Y-101174955D01*
X167171544Y-101174952D01*
X167056335Y-101088706D01*
X167056328Y-101088702D01*
X166921482Y-101038408D01*
X166921483Y-101038408D01*
X166861883Y-101032001D01*
X166861881Y-101032000D01*
X166861873Y-101032000D01*
X166861864Y-101032000D01*
X165258129Y-101032000D01*
X165258123Y-101032001D01*
X165198516Y-101038408D01*
X165063671Y-101088702D01*
X165063664Y-101088706D01*
X164948455Y-101174952D01*
X164948452Y-101174955D01*
X164862206Y-101290164D01*
X164862202Y-101290171D01*
X164811908Y-101425017D01*
X164807029Y-101470404D01*
X164805501Y-101484623D01*
X164805500Y-101484635D01*
X164805500Y-101539923D01*
X164785815Y-101606962D01*
X164733011Y-101652717D01*
X164663853Y-101662661D01*
X164600297Y-101633636D01*
X164581182Y-101612808D01*
X164476884Y-101469254D01*
X164476880Y-101469249D01*
X164337246Y-101329615D01*
X164177504Y-101213558D01*
X164177503Y-101213557D01*
X164177501Y-101213556D01*
X164001561Y-101123909D01*
X164000733Y-101123640D01*
X163813763Y-101062889D01*
X163618736Y-101032000D01*
X163618731Y-101032000D01*
X163421269Y-101032000D01*
X163421264Y-101032000D01*
X163226236Y-101062889D01*
X163038441Y-101123908D01*
X162862495Y-101213558D01*
X162702753Y-101329615D01*
X162563115Y-101469253D01*
X162447058Y-101628995D01*
X162447056Y-101628999D01*
X162367318Y-101785493D01*
X162360485Y-101798903D01*
X162312510Y-101849699D01*
X162244689Y-101866494D01*
X162178554Y-101843956D01*
X162139515Y-101798903D01*
X162132683Y-101785494D01*
X162052944Y-101628999D01*
X162005365Y-101563511D01*
X161936884Y-101469253D01*
X161797246Y-101329615D01*
X161637504Y-101213558D01*
X161637503Y-101213557D01*
X161637501Y-101213556D01*
X161461561Y-101123909D01*
X161460733Y-101123640D01*
X161273763Y-101062889D01*
X161078736Y-101032000D01*
X161078731Y-101032000D01*
X160881269Y-101032000D01*
X160881264Y-101032000D01*
X160686236Y-101062889D01*
X160498441Y-101123908D01*
X160322495Y-101213558D01*
X160162753Y-101329615D01*
X160023115Y-101469253D01*
X159907058Y-101628995D01*
X159907056Y-101628999D01*
X159827318Y-101785493D01*
X159820485Y-101798903D01*
X159772510Y-101849699D01*
X159704689Y-101866494D01*
X159638554Y-101843956D01*
X159599515Y-101798903D01*
X159592683Y-101785494D01*
X159512944Y-101628999D01*
X159465365Y-101563511D01*
X159396884Y-101469253D01*
X159257246Y-101329615D01*
X159097504Y-101213558D01*
X159097503Y-101213557D01*
X159097501Y-101213556D01*
X158921561Y-101123909D01*
X158920733Y-101123640D01*
X158733763Y-101062889D01*
X158538736Y-101032000D01*
X158538731Y-101032000D01*
X158341269Y-101032000D01*
X158341264Y-101032000D01*
X158146236Y-101062889D01*
X157958441Y-101123908D01*
X157782495Y-101213558D01*
X157622753Y-101329615D01*
X157483115Y-101469253D01*
X157367058Y-101628995D01*
X157367056Y-101628999D01*
X157287318Y-101785493D01*
X157280485Y-101798903D01*
X157232510Y-101849699D01*
X157164689Y-101866494D01*
X157098554Y-101843956D01*
X157059515Y-101798903D01*
X157052683Y-101785494D01*
X156972944Y-101628999D01*
X156925365Y-101563511D01*
X156856884Y-101469253D01*
X156717246Y-101329615D01*
X156557504Y-101213558D01*
X156557503Y-101213557D01*
X156557501Y-101213556D01*
X156381561Y-101123909D01*
X156380733Y-101123640D01*
X156193763Y-101062889D01*
X155998736Y-101032000D01*
X155998731Y-101032000D01*
X155801269Y-101032000D01*
X155801264Y-101032000D01*
X155606236Y-101062889D01*
X155418441Y-101123908D01*
X155242495Y-101213558D01*
X155082753Y-101329615D01*
X154943115Y-101469253D01*
X154827058Y-101628995D01*
X154827056Y-101628999D01*
X154747318Y-101785493D01*
X154740485Y-101798903D01*
X154692510Y-101849699D01*
X154624689Y-101866494D01*
X154558554Y-101843956D01*
X154519515Y-101798903D01*
X154512683Y-101785494D01*
X154432944Y-101628999D01*
X154385365Y-101563511D01*
X154316884Y-101469253D01*
X154177246Y-101329615D01*
X154017504Y-101213558D01*
X154017503Y-101213557D01*
X154017501Y-101213556D01*
X153841561Y-101123909D01*
X153840733Y-101123640D01*
X153653763Y-101062889D01*
X153458736Y-101032000D01*
X153458731Y-101032000D01*
X153261269Y-101032000D01*
X153261264Y-101032000D01*
X153066236Y-101062889D01*
X152878441Y-101123908D01*
X152702495Y-101213558D01*
X152542753Y-101329615D01*
X152403115Y-101469253D01*
X152287058Y-101628995D01*
X152287056Y-101628999D01*
X152207318Y-101785493D01*
X152200485Y-101798903D01*
X152152510Y-101849699D01*
X152084689Y-101866494D01*
X152018554Y-101843956D01*
X151979515Y-101798903D01*
X151972683Y-101785494D01*
X151892944Y-101628999D01*
X151845365Y-101563511D01*
X151776884Y-101469253D01*
X151637246Y-101329615D01*
X151477504Y-101213558D01*
X151477503Y-101213557D01*
X151477501Y-101213556D01*
X151301561Y-101123909D01*
X151300733Y-101123640D01*
X151113763Y-101062889D01*
X150918736Y-101032000D01*
X150918731Y-101032000D01*
X150721269Y-101032000D01*
X150721264Y-101032000D01*
X150526236Y-101062889D01*
X150338441Y-101123908D01*
X150162495Y-101213558D01*
X150002753Y-101329615D01*
X149863115Y-101469253D01*
X149747058Y-101628995D01*
X149747056Y-101628999D01*
X149667318Y-101785493D01*
X149660485Y-101798903D01*
X149612510Y-101849699D01*
X149544689Y-101866494D01*
X149478554Y-101843956D01*
X149439515Y-101798903D01*
X149432683Y-101785494D01*
X149352944Y-101628999D01*
X149305365Y-101563511D01*
X149236884Y-101469253D01*
X149097246Y-101329615D01*
X148937504Y-101213558D01*
X148937503Y-101213557D01*
X148937501Y-101213556D01*
X148761561Y-101123909D01*
X148760733Y-101123640D01*
X148573764Y-101062890D01*
X148435503Y-101040991D01*
X148372369Y-101011061D01*
X148335438Y-100951750D01*
X148335128Y-100886426D01*
X148350500Y-100829057D01*
X148350500Y-100670943D01*
X148350500Y-90912596D01*
X148370185Y-90845557D01*
X148386814Y-90824920D01*
X150057585Y-89154148D01*
X150118906Y-89120665D01*
X150188598Y-89125649D01*
X150201554Y-89131344D01*
X150338439Y-89201091D01*
X150438206Y-89233507D01*
X150526236Y-89262110D01*
X150721264Y-89293000D01*
X150721269Y-89293000D01*
X150918736Y-89293000D01*
X151113763Y-89262110D01*
X151115262Y-89261623D01*
X151301561Y-89201091D01*
X151477501Y-89111444D01*
X151613032Y-89012976D01*
X151637246Y-88995384D01*
X151637248Y-88995381D01*
X151637252Y-88995379D01*
X151776879Y-88855752D01*
X151776881Y-88855748D01*
X151776884Y-88855746D01*
X151892941Y-88696005D01*
X151892942Y-88696004D01*
X151892944Y-88696001D01*
X151979517Y-88526093D01*
X152027490Y-88475300D01*
X152095311Y-88458505D01*
X152161446Y-88481042D01*
X152200482Y-88526093D01*
X152242068Y-88607708D01*
X152287058Y-88696005D01*
X152403115Y-88855746D01*
X152542753Y-88995384D01*
X152692234Y-89103986D01*
X152702499Y-89111444D01*
X152878439Y-89201091D01*
X152978206Y-89233507D01*
X153066236Y-89262110D01*
X153261264Y-89293000D01*
X153261269Y-89293000D01*
X153458736Y-89293000D01*
X153653763Y-89262110D01*
X153655262Y-89261623D01*
X153841561Y-89201091D01*
X154017501Y-89111444D01*
X154153032Y-89012976D01*
X154177246Y-88995384D01*
X154177248Y-88995381D01*
X154177252Y-88995379D01*
X154316879Y-88855752D01*
X154316881Y-88855748D01*
X154316884Y-88855746D01*
X154432941Y-88696005D01*
X154432942Y-88696004D01*
X154432944Y-88696001D01*
X154519517Y-88526093D01*
X154567490Y-88475300D01*
X154635311Y-88458505D01*
X154701446Y-88481042D01*
X154740482Y-88526093D01*
X154782068Y-88607708D01*
X154827058Y-88696005D01*
X154943115Y-88855746D01*
X155082753Y-88995384D01*
X155232234Y-89103986D01*
X155242499Y-89111444D01*
X155418439Y-89201091D01*
X155518206Y-89233507D01*
X155606236Y-89262110D01*
X155801264Y-89293000D01*
X155801269Y-89293000D01*
X155998736Y-89293000D01*
X156193763Y-89262110D01*
X156195262Y-89261623D01*
X156381561Y-89201091D01*
X156557501Y-89111444D01*
X156693032Y-89012976D01*
X156717246Y-88995384D01*
X156717248Y-88995381D01*
X156717252Y-88995379D01*
X156856879Y-88855752D01*
X156856881Y-88855748D01*
X156856884Y-88855746D01*
X156972941Y-88696005D01*
X156972942Y-88696004D01*
X156972944Y-88696001D01*
X157059517Y-88526093D01*
X157107490Y-88475300D01*
X157175311Y-88458505D01*
X157241446Y-88481042D01*
X157280482Y-88526093D01*
X157322068Y-88607708D01*
X157367058Y-88696005D01*
X157483115Y-88855746D01*
X157622753Y-88995384D01*
X157772234Y-89103986D01*
X157782499Y-89111444D01*
X157958439Y-89201091D01*
X158058206Y-89233507D01*
X158146236Y-89262110D01*
X158341264Y-89293000D01*
X158341269Y-89293000D01*
X158538736Y-89293000D01*
X158733763Y-89262110D01*
X158735262Y-89261623D01*
X158921561Y-89201091D01*
X159097501Y-89111444D01*
X159233032Y-89012976D01*
X159257246Y-88995384D01*
X159257248Y-88995381D01*
X159257252Y-88995379D01*
X159396879Y-88855752D01*
X159396881Y-88855748D01*
X159396884Y-88855746D01*
X159512941Y-88696005D01*
X159512942Y-88696004D01*
X159512944Y-88696001D01*
X159599517Y-88526093D01*
X159647490Y-88475300D01*
X159715311Y-88458505D01*
X159781446Y-88481042D01*
X159820482Y-88526093D01*
X159862068Y-88607708D01*
X159907058Y-88696005D01*
X160023115Y-88855746D01*
X160162753Y-88995384D01*
X160312234Y-89103986D01*
X160322499Y-89111444D01*
X160498439Y-89201091D01*
X160598206Y-89233507D01*
X160686236Y-89262110D01*
X160881264Y-89293000D01*
X160881269Y-89293000D01*
X161078736Y-89293000D01*
X161273763Y-89262110D01*
X161275262Y-89261623D01*
X161461561Y-89201091D01*
X161637501Y-89111444D01*
X161773032Y-89012976D01*
X161797246Y-88995384D01*
X161797248Y-88995381D01*
X161797252Y-88995379D01*
X161936879Y-88855752D01*
X161939033Y-88852786D01*
X161965199Y-88816774D01*
X162052941Y-88696005D01*
X162052942Y-88696004D01*
X162052944Y-88696001D01*
X162142591Y-88520061D01*
X162158209Y-88471990D01*
X162197646Y-88414316D01*
X162262004Y-88387117D01*
X162305088Y-88389735D01*
X162316477Y-88392469D01*
X163037037Y-87671910D01*
X163054075Y-87735493D01*
X163119901Y-87849507D01*
X163212993Y-87942599D01*
X163327007Y-88008425D01*
X163390589Y-88025462D01*
X162562291Y-88853759D01*
X162562291Y-88853760D01*
X162563499Y-88855422D01*
X162563507Y-88855431D01*
X162703075Y-88994999D01*
X162703080Y-88995003D01*
X162862757Y-89111014D01*
X163038626Y-89200626D01*
X163226353Y-89261623D01*
X163421303Y-89292500D01*
X163618697Y-89292500D01*
X163813646Y-89261623D01*
X164001373Y-89200626D01*
X164177242Y-89111014D01*
X164336918Y-88995004D01*
X164476500Y-88855423D01*
X164477707Y-88853761D01*
X164477707Y-88853759D01*
X163649410Y-88025462D01*
X163712993Y-88008425D01*
X163827007Y-87942599D01*
X163920099Y-87849507D01*
X163985925Y-87735493D01*
X164002962Y-87671911D01*
X164723520Y-88392469D01*
X164734912Y-88389735D01*
X164804694Y-88393226D01*
X164861512Y-88433889D01*
X164881789Y-88471989D01*
X164897409Y-88520061D01*
X164987056Y-88696001D01*
X164987058Y-88696004D01*
X165103115Y-88855746D01*
X165242753Y-88995384D01*
X165392234Y-89103986D01*
X165402499Y-89111444D01*
X165578439Y-89201091D01*
X165678206Y-89233507D01*
X165766236Y-89262110D01*
X165961264Y-89293000D01*
X165961269Y-89293000D01*
X166158736Y-89293000D01*
X166353763Y-89262110D01*
X166355262Y-89261623D01*
X166541561Y-89201091D01*
X166717501Y-89111444D01*
X166853032Y-89012976D01*
X166877246Y-88995384D01*
X166877248Y-88995381D01*
X166877252Y-88995379D01*
X167016879Y-88855752D01*
X167016881Y-88855748D01*
X167016884Y-88855746D01*
X167072486Y-88779215D01*
X167132944Y-88696001D01*
X167222591Y-88520061D01*
X167283610Y-88332263D01*
X167312478Y-88150000D01*
X167314500Y-88137236D01*
X167314500Y-86947763D01*
X167283610Y-86752736D01*
X167242591Y-86626494D01*
X167222591Y-86564939D01*
X167132944Y-86388999D01*
X167125486Y-86378734D01*
X167016884Y-86229253D01*
X166877246Y-86089615D01*
X166717504Y-85973558D01*
X166717503Y-85973557D01*
X166717501Y-85973556D01*
X166541561Y-85883909D01*
X166541558Y-85883908D01*
X166353763Y-85822889D01*
X166158736Y-85792000D01*
X166158731Y-85792000D01*
X165961269Y-85792000D01*
X165961264Y-85792000D01*
X165766236Y-85822889D01*
X165578441Y-85883908D01*
X165402495Y-85973558D01*
X165242753Y-86089615D01*
X165103115Y-86229253D01*
X164987058Y-86388995D01*
X164987056Y-86388999D01*
X164897409Y-86564939D01*
X164897408Y-86564941D01*
X164897407Y-86564944D01*
X164881789Y-86613009D01*
X164842351Y-86670684D01*
X164777992Y-86697881D01*
X164734913Y-86695263D01*
X164723521Y-86692528D01*
X164002962Y-87413088D01*
X163985925Y-87349507D01*
X163920099Y-87235493D01*
X163827007Y-87142401D01*
X163712993Y-87076575D01*
X163649410Y-87059537D01*
X164477708Y-86231239D01*
X164477708Y-86231238D01*
X164476500Y-86229576D01*
X164336918Y-86089995D01*
X164177242Y-85973985D01*
X164001373Y-85884373D01*
X163813646Y-85823376D01*
X163618697Y-85792500D01*
X163421303Y-85792500D01*
X163226353Y-85823376D01*
X163038626Y-85884373D01*
X162862757Y-85973985D01*
X162703081Y-86089995D01*
X162563504Y-86229571D01*
X162563498Y-86229578D01*
X162562290Y-86231238D01*
X163390589Y-87059537D01*
X163327007Y-87076575D01*
X163212993Y-87142401D01*
X163119901Y-87235493D01*
X163054075Y-87349507D01*
X163037037Y-87413089D01*
X162316476Y-86692528D01*
X162305086Y-86695263D01*
X162235304Y-86691772D01*
X162178487Y-86651108D01*
X162158209Y-86613007D01*
X162155268Y-86603956D01*
X162142591Y-86564939D01*
X162052944Y-86388999D01*
X162035145Y-86364500D01*
X161965177Y-86268197D01*
X161965176Y-86268194D01*
X161936884Y-86229254D01*
X161936880Y-86229249D01*
X161797246Y-86089615D01*
X161637504Y-85973558D01*
X161637503Y-85973557D01*
X161637501Y-85973556D01*
X161461561Y-85883909D01*
X161461558Y-85883908D01*
X161273763Y-85822889D01*
X161078736Y-85792000D01*
X161078731Y-85792000D01*
X160881269Y-85792000D01*
X160881264Y-85792000D01*
X160686236Y-85822889D01*
X160498441Y-85883908D01*
X160322495Y-85973558D01*
X160162753Y-86089615D01*
X160023115Y-86229253D01*
X159907058Y-86388995D01*
X159820485Y-86558903D01*
X159772510Y-86609699D01*
X159704689Y-86626494D01*
X159638554Y-86603956D01*
X159599515Y-86558903D01*
X159512944Y-86388999D01*
X159505486Y-86378734D01*
X159396884Y-86229253D01*
X159257246Y-86089615D01*
X159097504Y-85973558D01*
X159097503Y-85973557D01*
X159097501Y-85973556D01*
X158921561Y-85883909D01*
X158921558Y-85883908D01*
X158733763Y-85822889D01*
X158538736Y-85792000D01*
X158538731Y-85792000D01*
X158341269Y-85792000D01*
X158341264Y-85792000D01*
X158146236Y-85822889D01*
X157958441Y-85883908D01*
X157782495Y-85973558D01*
X157622753Y-86089615D01*
X157483115Y-86229253D01*
X157367058Y-86388995D01*
X157280485Y-86558903D01*
X157232510Y-86609699D01*
X157164689Y-86626494D01*
X157098554Y-86603956D01*
X157059515Y-86558903D01*
X156972944Y-86388999D01*
X156965486Y-86378734D01*
X156856884Y-86229253D01*
X156717246Y-86089615D01*
X156557504Y-85973558D01*
X156557503Y-85973557D01*
X156557501Y-85973556D01*
X156381561Y-85883909D01*
X156381558Y-85883908D01*
X156193763Y-85822889D01*
X155998736Y-85792000D01*
X155998731Y-85792000D01*
X155801269Y-85792000D01*
X155801264Y-85792000D01*
X155606236Y-85822889D01*
X155418441Y-85883908D01*
X155242495Y-85973558D01*
X155082753Y-86089615D01*
X154943115Y-86229253D01*
X154827058Y-86388995D01*
X154740485Y-86558903D01*
X154692510Y-86609699D01*
X154624689Y-86626494D01*
X154558554Y-86603956D01*
X154519515Y-86558903D01*
X154432944Y-86388999D01*
X154425486Y-86378734D01*
X154316884Y-86229253D01*
X154177246Y-86089615D01*
X154017504Y-85973558D01*
X154017503Y-85973557D01*
X154017501Y-85973556D01*
X153841561Y-85883909D01*
X153841558Y-85883908D01*
X153653763Y-85822889D01*
X153458736Y-85792000D01*
X153458731Y-85792000D01*
X153261269Y-85792000D01*
X153261264Y-85792000D01*
X153066236Y-85822889D01*
X152878441Y-85883908D01*
X152702495Y-85973558D01*
X152542753Y-86089615D01*
X152403115Y-86229253D01*
X152287058Y-86388995D01*
X152200485Y-86558903D01*
X152152510Y-86609699D01*
X152084689Y-86626494D01*
X152018554Y-86603956D01*
X151979515Y-86558903D01*
X151892944Y-86388999D01*
X151885486Y-86378734D01*
X151776884Y-86229253D01*
X151637246Y-86089615D01*
X151477504Y-85973558D01*
X151477503Y-85973557D01*
X151477501Y-85973556D01*
X151301561Y-85883909D01*
X151301558Y-85883908D01*
X151113763Y-85822889D01*
X150918736Y-85792000D01*
X150918731Y-85792000D01*
X150721269Y-85792000D01*
X150721264Y-85792000D01*
X150526236Y-85822889D01*
X150338441Y-85883908D01*
X150162495Y-85973558D01*
X150002753Y-86089615D01*
X149863115Y-86229253D01*
X149747058Y-86388995D01*
X149660485Y-86558903D01*
X149612510Y-86609699D01*
X149544689Y-86626494D01*
X149478554Y-86603956D01*
X149439515Y-86558903D01*
X149352944Y-86388999D01*
X149345486Y-86378734D01*
X149236884Y-86229253D01*
X149097246Y-86089615D01*
X148937504Y-85973558D01*
X148937503Y-85973557D01*
X148937501Y-85973556D01*
X148761561Y-85883909D01*
X148761558Y-85883908D01*
X148573763Y-85822889D01*
X148378736Y-85792000D01*
X148378731Y-85792000D01*
X148181269Y-85792000D01*
X148181264Y-85792000D01*
X147986236Y-85822889D01*
X147798441Y-85883908D01*
X147622495Y-85973558D01*
X147462753Y-86089615D01*
X147323115Y-86229253D01*
X147207058Y-86388995D01*
X147120485Y-86558903D01*
X147072510Y-86609699D01*
X147004689Y-86626494D01*
X146938554Y-86603956D01*
X146899515Y-86558903D01*
X146812944Y-86388999D01*
X146805486Y-86378734D01*
X146696884Y-86229253D01*
X146557246Y-86089615D01*
X146397504Y-85973558D01*
X146397503Y-85973557D01*
X146397501Y-85973556D01*
X146221561Y-85883909D01*
X146221558Y-85883908D01*
X146033763Y-85822889D01*
X145838736Y-85792000D01*
X145838731Y-85792000D01*
X145641269Y-85792000D01*
X145641264Y-85792000D01*
X145446236Y-85822889D01*
X145258441Y-85883908D01*
X145082495Y-85973558D01*
X144922753Y-86089615D01*
X144783115Y-86229253D01*
X144667058Y-86388995D01*
X144577408Y-86564941D01*
X144516389Y-86752736D01*
X144485500Y-86947763D01*
X144485500Y-88137236D01*
X144516389Y-88332263D01*
X144568298Y-88492021D01*
X144577409Y-88520061D01*
X144622068Y-88607708D01*
X144667058Y-88696004D01*
X144727514Y-88779216D01*
X144750994Y-88845022D01*
X144735168Y-88913076D01*
X144685062Y-88961771D01*
X144683491Y-88962586D01*
X144584594Y-89012976D01*
X144493741Y-89078985D01*
X144425354Y-89128672D01*
X144425352Y-89128674D01*
X144425351Y-89128674D01*
X144286174Y-89267851D01*
X144286174Y-89267852D01*
X144286172Y-89267854D01*
X144265361Y-89296498D01*
X144170476Y-89427094D01*
X144081117Y-89602470D01*
X144020290Y-89789673D01*
X143989500Y-89984077D01*
X143989500Y-90180922D01*
X144020290Y-90375326D01*
X144081117Y-90562529D01*
X144136672Y-90671561D01*
X144170476Y-90737905D01*
X144286172Y-90897146D01*
X144425354Y-91036328D01*
X144584595Y-91152024D01*
X144699903Y-91210776D01*
X144761213Y-91242015D01*
X144812009Y-91289989D01*
X144828804Y-91357810D01*
X144806267Y-91423945D01*
X144761213Y-91462985D01*
X144584594Y-91552976D01*
X144527386Y-91594541D01*
X144425354Y-91668672D01*
X144425352Y-91668674D01*
X144425351Y-91668674D01*
X144286174Y-91807851D01*
X144286174Y-91807852D01*
X144286172Y-91807854D01*
X144236485Y-91876241D01*
X144170476Y-91967094D01*
X144081117Y-92142470D01*
X144020290Y-92329673D01*
X143989500Y-92524077D01*
X143989500Y-92720922D01*
X144020290Y-92915326D01*
X144081117Y-93102529D01*
X144136672Y-93211561D01*
X144170476Y-93277905D01*
X144286172Y-93437146D01*
X144425354Y-93576328D01*
X144584595Y-93692024D01*
X144699903Y-93750776D01*
X144761213Y-93782015D01*
X144812009Y-93829989D01*
X144828804Y-93897810D01*
X144806267Y-93963945D01*
X144761213Y-94002985D01*
X144584594Y-94092976D01*
X144527386Y-94134541D01*
X144425354Y-94208672D01*
X144425352Y-94208674D01*
X144425351Y-94208674D01*
X144286174Y-94347851D01*
X144286174Y-94347852D01*
X144286172Y-94347854D01*
X144236485Y-94416241D01*
X144170476Y-94507094D01*
X144081117Y-94682470D01*
X144020290Y-94869673D01*
X143989500Y-95064077D01*
X143989500Y-95260922D01*
X144020290Y-95455326D01*
X144081117Y-95642529D01*
X144153961Y-95785493D01*
X144170476Y-95817905D01*
X144286172Y-95977146D01*
X144425354Y-96116328D01*
X144584595Y-96232024D01*
X144699903Y-96290776D01*
X144761213Y-96322015D01*
X144812009Y-96369989D01*
X144828804Y-96437810D01*
X144806267Y-96503945D01*
X144761213Y-96542985D01*
X144584594Y-96632976D01*
X144527386Y-96674541D01*
X144425354Y-96748672D01*
X144425352Y-96748674D01*
X144425351Y-96748674D01*
X144286174Y-96887851D01*
X144286174Y-96887852D01*
X144286172Y-96887854D01*
X144236485Y-96956241D01*
X144170476Y-97047094D01*
X144081117Y-97222470D01*
X144020290Y-97409673D01*
X143989500Y-97604077D01*
X143989500Y-97800922D01*
X144020290Y-97995326D01*
X144081117Y-98182529D01*
X144154735Y-98327011D01*
X144170476Y-98357905D01*
X144286172Y-98517146D01*
X144425354Y-98656328D01*
X144584595Y-98772024D01*
X144626517Y-98793384D01*
X144761213Y-98862015D01*
X144812009Y-98909989D01*
X144828804Y-98977810D01*
X144806267Y-99043945D01*
X144761213Y-99082985D01*
X144759975Y-99083616D01*
X144623538Y-99153133D01*
X144554871Y-99166029D01*
X144490130Y-99139753D01*
X144479564Y-99130329D01*
X143987590Y-98638355D01*
X143987588Y-98638352D01*
X143868717Y-98519481D01*
X143868716Y-98519480D01*
X143778685Y-98467501D01*
X143778684Y-98467500D01*
X143731790Y-98440425D01*
X143731789Y-98440424D01*
X143719263Y-98437067D01*
X143579057Y-98399499D01*
X143420943Y-98399499D01*
X143413347Y-98399499D01*
X143413331Y-98399500D01*
X143394191Y-98399500D01*
X143327152Y-98379815D01*
X143281397Y-98327011D01*
X143271453Y-98257853D01*
X143276260Y-98237182D01*
X143319610Y-98103763D01*
X143350500Y-97908736D01*
X143350500Y-97711263D01*
X143319610Y-97516236D01*
X143283711Y-97405750D01*
X143258591Y-97328439D01*
X143168944Y-97152499D01*
X143161486Y-97142234D01*
X143052884Y-96992753D01*
X142913246Y-96853115D01*
X142753505Y-96737058D01*
X142732315Y-96726261D01*
X142583593Y-96650482D01*
X142532800Y-96602510D01*
X142516005Y-96534689D01*
X142538542Y-96468554D01*
X142583593Y-96429517D01*
X142753501Y-96342944D01*
X142825305Y-96290776D01*
X142913246Y-96226884D01*
X142913248Y-96226881D01*
X142913252Y-96226879D01*
X143052879Y-96087252D01*
X143052881Y-96087248D01*
X143052884Y-96087246D01*
X143103779Y-96017192D01*
X143168944Y-95927501D01*
X143258591Y-95751561D01*
X143319610Y-95563763D01*
X143336785Y-95455326D01*
X143350500Y-95368736D01*
X143350500Y-95171263D01*
X143319610Y-94976236D01*
X143284985Y-94869673D01*
X143258591Y-94788439D01*
X143168944Y-94612499D01*
X143161486Y-94602234D01*
X143052884Y-94452753D01*
X142913246Y-94313115D01*
X142753505Y-94197058D01*
X142747119Y-94193804D01*
X142583593Y-94110482D01*
X142532800Y-94062510D01*
X142516005Y-93994689D01*
X142538542Y-93928554D01*
X142583593Y-93889517D01*
X142753501Y-93802944D01*
X142825305Y-93750776D01*
X142913246Y-93686884D01*
X142913248Y-93686881D01*
X142913252Y-93686879D01*
X143052879Y-93547252D01*
X143052881Y-93547248D01*
X143052884Y-93547246D01*
X143121981Y-93452140D01*
X143168944Y-93387501D01*
X143258591Y-93211561D01*
X143319610Y-93023763D01*
X143336785Y-92915326D01*
X143350500Y-92828736D01*
X143350500Y-92631263D01*
X143319610Y-92436236D01*
X143299270Y-92373637D01*
X143258591Y-92248439D01*
X143168944Y-92072499D01*
X143161486Y-92062234D01*
X143052884Y-91912753D01*
X142913246Y-91773115D01*
X142753505Y-91657058D01*
X142747119Y-91653804D01*
X142583593Y-91570482D01*
X142532800Y-91522510D01*
X142516005Y-91454689D01*
X142538542Y-91388554D01*
X142583593Y-91349517D01*
X142753501Y-91262944D01*
X142825305Y-91210776D01*
X142913246Y-91146884D01*
X142913248Y-91146881D01*
X142913252Y-91146879D01*
X143052879Y-91007252D01*
X143052881Y-91007248D01*
X143052884Y-91007246D01*
X143121650Y-90912596D01*
X143168944Y-90847501D01*
X143258591Y-90671561D01*
X143319610Y-90483763D01*
X143319629Y-90483646D01*
X143350500Y-90288736D01*
X143350500Y-90091263D01*
X143319610Y-89896236D01*
X143263671Y-89724075D01*
X143258591Y-89708439D01*
X143168944Y-89532499D01*
X143123510Y-89469964D01*
X143052884Y-89372753D01*
X142913246Y-89233115D01*
X142753504Y-89117058D01*
X142753503Y-89117057D01*
X142753501Y-89117056D01*
X142577561Y-89027409D01*
X142529489Y-89011789D01*
X142471815Y-88972352D01*
X142444617Y-88907993D01*
X142447235Y-88864912D01*
X142449969Y-88853520D01*
X141729410Y-88132962D01*
X141792993Y-88115925D01*
X141907007Y-88050099D01*
X142000099Y-87957007D01*
X142065925Y-87842993D01*
X142082962Y-87779410D01*
X142911259Y-88607707D01*
X142911261Y-88607707D01*
X142912923Y-88606500D01*
X143052504Y-88466918D01*
X143168514Y-88307242D01*
X143258126Y-88131373D01*
X143319123Y-87943646D01*
X143350000Y-87748697D01*
X143350000Y-87551302D01*
X143319123Y-87356353D01*
X143258126Y-87168626D01*
X143168514Y-86992757D01*
X143052503Y-86833080D01*
X143052499Y-86833075D01*
X142912931Y-86693507D01*
X142912922Y-86693499D01*
X142911260Y-86692291D01*
X142911259Y-86692291D01*
X142082962Y-87520588D01*
X142065925Y-87457007D01*
X142000099Y-87342993D01*
X141907007Y-87249901D01*
X141792993Y-87184075D01*
X141729410Y-87167037D01*
X142449969Y-86446477D01*
X142447235Y-86435088D01*
X142450726Y-86365305D01*
X142491389Y-86308488D01*
X142529489Y-86288210D01*
X142577561Y-86272591D01*
X142753501Y-86182944D01*
X142843192Y-86117779D01*
X142913246Y-86066884D01*
X142913248Y-86066881D01*
X142913252Y-86066879D01*
X143052879Y-85927252D01*
X143052881Y-85927248D01*
X143052884Y-85927246D01*
X143118001Y-85837619D01*
X143168944Y-85767501D01*
X143258591Y-85591561D01*
X143319610Y-85403763D01*
X143350500Y-85208736D01*
X143350500Y-85011263D01*
X143319610Y-84816236D01*
X143284274Y-84707483D01*
X143258591Y-84628439D01*
X143168944Y-84452499D01*
X143161486Y-84442234D01*
X143052884Y-84292753D01*
X142913246Y-84153115D01*
X142753504Y-84037058D01*
X142753503Y-84037057D01*
X142753501Y-84037056D01*
X142577561Y-83947409D01*
X142414739Y-83894505D01*
X142414511Y-83894431D01*
X142356835Y-83854993D01*
X142329637Y-83790635D01*
X142341552Y-83721788D01*
X142388796Y-83670313D01*
X142452829Y-83652500D01*
X151048406Y-83652500D01*
X151115445Y-83672185D01*
X151136087Y-83688819D01*
X152280222Y-84832954D01*
X152294257Y-84842331D01*
X152353906Y-84882186D01*
X152403141Y-84915084D01*
X152403142Y-84915084D01*
X152403143Y-84915085D01*
X152403145Y-84915086D01*
X152505656Y-84957547D01*
X152539723Y-84971658D01*
X152539727Y-84971658D01*
X152539728Y-84971659D01*
X152684715Y-85000500D01*
X152684718Y-85000500D01*
X160573920Y-85000500D01*
X160671462Y-84981096D01*
X160718913Y-84971658D01*
X160855495Y-84915084D01*
X160904729Y-84882186D01*
X160904734Y-84882183D01*
X160929071Y-84865921D01*
X160978416Y-84832952D01*
X163582952Y-82228416D01*
X163632186Y-82154729D01*
X163665084Y-82105495D01*
X163721658Y-81968913D01*
X163741271Y-81870313D01*
X163750500Y-81823920D01*
X163750500Y-81103713D01*
X164399500Y-81103713D01*
X164399500Y-81316287D01*
X164432754Y-81526243D01*
X164496121Y-81721267D01*
X164498444Y-81728414D01*
X164594951Y-81917820D01*
X164719890Y-82089786D01*
X164833430Y-82203326D01*
X164866915Y-82264649D01*
X164861931Y-82334341D01*
X164820059Y-82390274D01*
X164789083Y-82407189D01*
X164657669Y-82456203D01*
X164657664Y-82456206D01*
X164542455Y-82542452D01*
X164542452Y-82542455D01*
X164456206Y-82657664D01*
X164456202Y-82657671D01*
X164405908Y-82792517D01*
X164399501Y-82852116D01*
X164399501Y-82852123D01*
X164399500Y-82852135D01*
X164399500Y-84647870D01*
X164399501Y-84647876D01*
X164405908Y-84707483D01*
X164456202Y-84842328D01*
X164456206Y-84842335D01*
X164542452Y-84957544D01*
X164542455Y-84957547D01*
X164657664Y-85043793D01*
X164657671Y-85043797D01*
X164792517Y-85094091D01*
X164792516Y-85094091D01*
X164799444Y-85094835D01*
X164852127Y-85100500D01*
X166647872Y-85100499D01*
X166707483Y-85094091D01*
X166842331Y-85043796D01*
X166957546Y-84957546D01*
X167043796Y-84842331D01*
X167094091Y-84707483D01*
X167100500Y-84647873D01*
X167100499Y-82852128D01*
X167094091Y-82792517D01*
X167088980Y-82778815D01*
X167043797Y-82657671D01*
X167043793Y-82657664D01*
X166957547Y-82542455D01*
X166957544Y-82542452D01*
X166842335Y-82456206D01*
X166842328Y-82456202D01*
X166710917Y-82407189D01*
X166654983Y-82365318D01*
X166630566Y-82299853D01*
X166645418Y-82231580D01*
X166666563Y-82203332D01*
X166780104Y-82089792D01*
X166905051Y-81917816D01*
X167001557Y-81728412D01*
X167067246Y-81526243D01*
X167100500Y-81316287D01*
X167100500Y-81103713D01*
X167067246Y-80893757D01*
X167001557Y-80691588D01*
X166905051Y-80502184D01*
X166905049Y-80502181D01*
X166905048Y-80502179D01*
X166780109Y-80330213D01*
X166629786Y-80179890D01*
X166457817Y-80054949D01*
X166448504Y-80050204D01*
X166397707Y-80002230D01*
X166380912Y-79934409D01*
X166403449Y-79868274D01*
X166448507Y-79829232D01*
X166457555Y-79824622D01*
X166511716Y-79785270D01*
X166511717Y-79785270D01*
X165879408Y-79152962D01*
X165942993Y-79135925D01*
X166057007Y-79070099D01*
X166150099Y-78977007D01*
X166215925Y-78862993D01*
X166232962Y-78799409D01*
X166865270Y-79431717D01*
X166865270Y-79431716D01*
X166904622Y-79377554D01*
X167001095Y-79188217D01*
X167066757Y-78986130D01*
X167066757Y-78986127D01*
X167100000Y-78776246D01*
X167100000Y-78563753D01*
X167066757Y-78353872D01*
X167066757Y-78353869D01*
X167001095Y-78151782D01*
X166904624Y-77962449D01*
X166865270Y-77908282D01*
X166865269Y-77908282D01*
X166232962Y-78540590D01*
X166215925Y-78477007D01*
X166150099Y-78362993D01*
X166057007Y-78269901D01*
X165942993Y-78204075D01*
X165879409Y-78187037D01*
X166511716Y-77554728D01*
X166457550Y-77515375D01*
X166268217Y-77418904D01*
X166066129Y-77353242D01*
X165856246Y-77320000D01*
X165643754Y-77320000D01*
X165433872Y-77353242D01*
X165433869Y-77353242D01*
X165231782Y-77418904D01*
X165042439Y-77515380D01*
X164988282Y-77554727D01*
X164988282Y-77554728D01*
X165620591Y-78187037D01*
X165557007Y-78204075D01*
X165442993Y-78269901D01*
X165349901Y-78362993D01*
X165284075Y-78477007D01*
X165267037Y-78540591D01*
X164634728Y-77908282D01*
X164634727Y-77908282D01*
X164595380Y-77962439D01*
X164498904Y-78151782D01*
X164433242Y-78353869D01*
X164433242Y-78353872D01*
X164400000Y-78563753D01*
X164400000Y-78776246D01*
X164433242Y-78986127D01*
X164433242Y-78986130D01*
X164498904Y-79188217D01*
X164595375Y-79377550D01*
X164634728Y-79431716D01*
X165267037Y-78799408D01*
X165284075Y-78862993D01*
X165349901Y-78977007D01*
X165442993Y-79070099D01*
X165557007Y-79135925D01*
X165620590Y-79152962D01*
X164988282Y-79785269D01*
X164988282Y-79785270D01*
X165042452Y-79824626D01*
X165042451Y-79824626D01*
X165051495Y-79829234D01*
X165102292Y-79877208D01*
X165119087Y-79945029D01*
X165096550Y-80011164D01*
X165051499Y-80050202D01*
X165042182Y-80054949D01*
X164870213Y-80179890D01*
X164719890Y-80330213D01*
X164594951Y-80502179D01*
X164498444Y-80691585D01*
X164432753Y-80893760D01*
X164399758Y-81102084D01*
X164399500Y-81103713D01*
X163750500Y-81103713D01*
X163750500Y-80126079D01*
X163721659Y-79981092D01*
X163721658Y-79981091D01*
X163721658Y-79981087D01*
X163712279Y-79958443D01*
X163665087Y-79844511D01*
X163665080Y-79844498D01*
X163582952Y-79721585D01*
X163534923Y-79673556D01*
X163478416Y-79617049D01*
X162911818Y-79050451D01*
X162878333Y-78989128D01*
X162875499Y-78962770D01*
X162875499Y-77577129D01*
X162875498Y-77577123D01*
X162869091Y-77517516D01*
X162818797Y-77382671D01*
X162818793Y-77382664D01*
X162732547Y-77267455D01*
X162732544Y-77267452D01*
X162617335Y-77181206D01*
X162617328Y-77181202D01*
X162482482Y-77130908D01*
X162482483Y-77130908D01*
X162422883Y-77124501D01*
X162422881Y-77124500D01*
X162422873Y-77124500D01*
X162422864Y-77124500D01*
X160627129Y-77124500D01*
X160627123Y-77124501D01*
X160567516Y-77130908D01*
X160432671Y-77181202D01*
X160432664Y-77181206D01*
X160317455Y-77267452D01*
X160317452Y-77267455D01*
X160231206Y-77382664D01*
X160231203Y-77382669D01*
X160182189Y-77514083D01*
X160140317Y-77570016D01*
X160074853Y-77594433D01*
X160006580Y-77579581D01*
X159978326Y-77558430D01*
X159864786Y-77444890D01*
X159692820Y-77319951D01*
X159503414Y-77223444D01*
X159503413Y-77223443D01*
X159503412Y-77223443D01*
X159301243Y-77157754D01*
X159301241Y-77157753D01*
X159301240Y-77157753D01*
X159139957Y-77132208D01*
X159091287Y-77124500D01*
X158878713Y-77124500D01*
X158830042Y-77132208D01*
X158668760Y-77157753D01*
X158466585Y-77223444D01*
X158277179Y-77319951D01*
X158105213Y-77444890D01*
X157954890Y-77595213D01*
X157829951Y-77767179D01*
X157733444Y-77956585D01*
X157667753Y-78158760D01*
X157634500Y-78368713D01*
X157634500Y-78581286D01*
X157665378Y-78776246D01*
X157667754Y-78791243D01*
X157681778Y-78834405D01*
X157733444Y-78993414D01*
X157764025Y-79053433D01*
X157776921Y-79122102D01*
X157750645Y-79186843D01*
X157741221Y-79197409D01*
X157362181Y-79576450D01*
X157300858Y-79609935D01*
X157231167Y-79604951D01*
X157175233Y-79563080D01*
X157150816Y-79497615D01*
X157150500Y-79488769D01*
X157150500Y-79365188D01*
X157150499Y-79365186D01*
X157150260Y-79363068D01*
X157120312Y-79097268D01*
X157060316Y-78834409D01*
X156971267Y-78579921D01*
X156854284Y-78337003D01*
X156710838Y-78108711D01*
X156542734Y-77897915D01*
X156352085Y-77707266D01*
X156141289Y-77539162D01*
X155912997Y-77395716D01*
X155912994Y-77395714D01*
X155670082Y-77278734D01*
X155415602Y-77189687D01*
X155415594Y-77189684D01*
X155211191Y-77143031D01*
X155152732Y-77129688D01*
X155152728Y-77129687D01*
X155152719Y-77129686D01*
X154884813Y-77099500D01*
X154884809Y-77099500D01*
X154615191Y-77099500D01*
X154615186Y-77099500D01*
X154347280Y-77129686D01*
X154347268Y-77129688D01*
X154084405Y-77189684D01*
X154084397Y-77189687D01*
X153829917Y-77278734D01*
X153587005Y-77395714D01*
X153358712Y-77539161D01*
X153147915Y-77707265D01*
X152957265Y-77897915D01*
X152789161Y-78108712D01*
X152645714Y-78337005D01*
X152528734Y-78579917D01*
X152439687Y-78834397D01*
X152439684Y-78834405D01*
X152379688Y-79097268D01*
X152379686Y-79097280D01*
X152349500Y-79365186D01*
X152349500Y-79634813D01*
X152375055Y-79861616D01*
X152363001Y-79930438D01*
X152315652Y-79981818D01*
X152251835Y-79999500D01*
X139676080Y-79999500D01*
X139531092Y-80028340D01*
X139531082Y-80028343D01*
X139394511Y-80084912D01*
X139394498Y-80084919D01*
X139271584Y-80167048D01*
X139271580Y-80167051D01*
X135667048Y-83771582D01*
X135662534Y-83778340D01*
X135662529Y-83778347D01*
X135584916Y-83894502D01*
X135584914Y-83894506D01*
X135528343Y-84031082D01*
X135528340Y-84031092D01*
X135499500Y-84176079D01*
X135499500Y-92100902D01*
X135479815Y-92167941D01*
X135427011Y-92213696D01*
X135357853Y-92223640D01*
X135294297Y-92194615D01*
X135287819Y-92188583D01*
X134886819Y-91787583D01*
X134853334Y-91726260D01*
X134850500Y-91699902D01*
X134850500Y-86064993D01*
X134870185Y-85997954D01*
X134886819Y-85977312D01*
X134903851Y-85960280D01*
X134936879Y-85927252D01*
X134936881Y-85927248D01*
X134936884Y-85927246D01*
X135002001Y-85837619D01*
X135052944Y-85767501D01*
X135142591Y-85591561D01*
X135203610Y-85403763D01*
X135234500Y-85208736D01*
X135234500Y-85011263D01*
X135203610Y-84816236D01*
X135168274Y-84707483D01*
X135142591Y-84628439D01*
X135052944Y-84452499D01*
X135045486Y-84442234D01*
X134936884Y-84292753D01*
X134797246Y-84153115D01*
X134637504Y-84037058D01*
X134637503Y-84037057D01*
X134637501Y-84037056D01*
X134461561Y-83947409D01*
X134461558Y-83947408D01*
X134273763Y-83886389D01*
X134078736Y-83855500D01*
X134078731Y-83855500D01*
X133881269Y-83855500D01*
X133881264Y-83855500D01*
X133686236Y-83886389D01*
X133498441Y-83947408D01*
X133322495Y-84037058D01*
X133162753Y-84153115D01*
X133023115Y-84292753D01*
X132907058Y-84452495D01*
X132820485Y-84622403D01*
X132772510Y-84673199D01*
X132704689Y-84689994D01*
X132638554Y-84667456D01*
X132599515Y-84622403D01*
X132593781Y-84611149D01*
X132512944Y-84452499D01*
X132505486Y-84442234D01*
X132396884Y-84292753D01*
X132257246Y-84153115D01*
X132097504Y-84037058D01*
X132097503Y-84037057D01*
X132097501Y-84037056D01*
X131921561Y-83947409D01*
X131921558Y-83947408D01*
X131733763Y-83886389D01*
X131538736Y-83855500D01*
X131538731Y-83855500D01*
X131341269Y-83855500D01*
X131341264Y-83855500D01*
X131146236Y-83886389D01*
X130958441Y-83947408D01*
X130782495Y-84037058D01*
X130622753Y-84153115D01*
X130622749Y-84153119D01*
X130505681Y-84270188D01*
X130444358Y-84303673D01*
X130374666Y-84298689D01*
X130330319Y-84270188D01*
X130213246Y-84153115D01*
X130053504Y-84037058D01*
X130053503Y-84037057D01*
X130053501Y-84037056D01*
X129877561Y-83947409D01*
X129877558Y-83947408D01*
X129689763Y-83886389D01*
X129494736Y-83855500D01*
X129494731Y-83855500D01*
X128305269Y-83855500D01*
X128305264Y-83855500D01*
X128110236Y-83886389D01*
X127922441Y-83947408D01*
X127746495Y-84037058D01*
X127586753Y-84153115D01*
X127447115Y-84292753D01*
X127331058Y-84452495D01*
X127241408Y-84628441D01*
X127180389Y-84816236D01*
X127149500Y-85011263D01*
X127149500Y-85208736D01*
X127180389Y-85403763D01*
X127228322Y-85551284D01*
X127241409Y-85591561D01*
X127331056Y-85767501D01*
X127331058Y-85767504D01*
X127447115Y-85927246D01*
X127586753Y-86066884D01*
X127736234Y-86175486D01*
X127746499Y-86182944D01*
X127922439Y-86272591D01*
X127970507Y-86288209D01*
X128028183Y-86327647D01*
X128055381Y-86392005D01*
X128052763Y-86435086D01*
X128050028Y-86446476D01*
X128770589Y-87167037D01*
X128707007Y-87184075D01*
X128592993Y-87249901D01*
X128499901Y-87342993D01*
X128434075Y-87457007D01*
X128417037Y-87520589D01*
X127588738Y-86692290D01*
X127587078Y-86693498D01*
X127587071Y-86693504D01*
X127447495Y-86833081D01*
X127331485Y-86992757D01*
X127241873Y-87168626D01*
X127180876Y-87356353D01*
X127150000Y-87551302D01*
X127150000Y-87748697D01*
X127180876Y-87943646D01*
X127241873Y-88131373D01*
X127331485Y-88307242D01*
X127447495Y-88466918D01*
X127587076Y-88606500D01*
X127588739Y-88607708D01*
X128417037Y-87779410D01*
X128434075Y-87842993D01*
X128499901Y-87957007D01*
X128592993Y-88050099D01*
X128707007Y-88115925D01*
X128770589Y-88132962D01*
X128050028Y-88853521D01*
X128059039Y-88891054D01*
X128059039Y-88948947D01*
X128050028Y-88986476D01*
X128770589Y-89707037D01*
X128707007Y-89724075D01*
X128592993Y-89789901D01*
X128499901Y-89882993D01*
X128434075Y-89997007D01*
X128417037Y-90060589D01*
X127588738Y-89232290D01*
X127587078Y-89233498D01*
X127587071Y-89233504D01*
X127447495Y-89373081D01*
X127331485Y-89532757D01*
X127241873Y-89708626D01*
X127180876Y-89896353D01*
X127150000Y-90091302D01*
X127150000Y-90288697D01*
X127180876Y-90483646D01*
X127241873Y-90671373D01*
X127331485Y-90847242D01*
X127447495Y-91006918D01*
X127587076Y-91146500D01*
X127588738Y-91147708D01*
X127588739Y-91147708D01*
X128417037Y-90319410D01*
X128434075Y-90382993D01*
X128499901Y-90497007D01*
X128592993Y-90590099D01*
X128707007Y-90655925D01*
X128770589Y-90672962D01*
X128050028Y-91393521D01*
X128052763Y-91404913D01*
X128049272Y-91474695D01*
X128008608Y-91531512D01*
X127970509Y-91551789D01*
X127922444Y-91567407D01*
X127922441Y-91567408D01*
X127922439Y-91567409D01*
X127844705Y-91607017D01*
X127746495Y-91657058D01*
X127586753Y-91773115D01*
X127447115Y-91912753D01*
X127331058Y-92072495D01*
X127241408Y-92248441D01*
X127180389Y-92436236D01*
X127149500Y-92631263D01*
X127149500Y-92828736D01*
X127180389Y-93023763D01*
X127241408Y-93211558D01*
X127241409Y-93211561D01*
X127331056Y-93387501D01*
X127331058Y-93387504D01*
X127447115Y-93547246D01*
X127586753Y-93686884D01*
X127674695Y-93750776D01*
X127746499Y-93802944D01*
X127916404Y-93889516D01*
X127967199Y-93937490D01*
X127983994Y-94005311D01*
X127961456Y-94071446D01*
X127916404Y-94110483D01*
X127844705Y-94147017D01*
X127746495Y-94197058D01*
X127586753Y-94313115D01*
X127447115Y-94452753D01*
X127331058Y-94612495D01*
X127241408Y-94788441D01*
X127180389Y-94976236D01*
X127149500Y-95171263D01*
X127149500Y-95368736D01*
X127180389Y-95563763D01*
X127222652Y-95693834D01*
X127241409Y-95751561D01*
X127331056Y-95927501D01*
X127331058Y-95927504D01*
X127447115Y-96087246D01*
X127586753Y-96226884D01*
X127674695Y-96290776D01*
X127746499Y-96342944D01*
X127916404Y-96429516D01*
X127967199Y-96477490D01*
X127983994Y-96545311D01*
X127961456Y-96611446D01*
X127916404Y-96650483D01*
X127844705Y-96687017D01*
X127746495Y-96737058D01*
X127586753Y-96853115D01*
X127447115Y-96992753D01*
X127331058Y-97152495D01*
X127241408Y-97328441D01*
X127180389Y-97516236D01*
X127149500Y-97711263D01*
X127149500Y-97908736D01*
X127180389Y-98103763D01*
X127241408Y-98291558D01*
X127241409Y-98291561D01*
X127331056Y-98467501D01*
X127331058Y-98467504D01*
X127447115Y-98627246D01*
X127586753Y-98766884D01*
X127674695Y-98830776D01*
X127746499Y-98882944D01*
X127916404Y-98969516D01*
X127967199Y-99017490D01*
X127983994Y-99085311D01*
X127961456Y-99151446D01*
X127916404Y-99190483D01*
X127825189Y-99236961D01*
X127746495Y-99277058D01*
X127586753Y-99393115D01*
X127447115Y-99532753D01*
X127331058Y-99692495D01*
X127241408Y-99868441D01*
X127180389Y-100056236D01*
X127149500Y-100251263D01*
X127149500Y-100448736D01*
X127180389Y-100643763D01*
X127216556Y-100755072D01*
X127241409Y-100831561D01*
X127331036Y-101007461D01*
X127331058Y-101007504D01*
X127447115Y-101167246D01*
X127586753Y-101306884D01*
X127716824Y-101401384D01*
X127746499Y-101422944D01*
X127916404Y-101509516D01*
X127967199Y-101557490D01*
X127983994Y-101625311D01*
X127961456Y-101691446D01*
X127916404Y-101730483D01*
X127809412Y-101785000D01*
X127746495Y-101817058D01*
X127586753Y-101933115D01*
X127447115Y-102072753D01*
X127331058Y-102232495D01*
X127241408Y-102408441D01*
X127180389Y-102596236D01*
X127149500Y-102791263D01*
X127149500Y-102988736D01*
X127180389Y-103183763D01*
X127241408Y-103371558D01*
X127241409Y-103371561D01*
X127320283Y-103526358D01*
X127331058Y-103547504D01*
X127447115Y-103707246D01*
X127586753Y-103846884D01*
X127731697Y-103952190D01*
X127746499Y-103962944D01*
X127922439Y-104052591D01*
X128026724Y-104086475D01*
X128110236Y-104113610D01*
X128305264Y-104144500D01*
X128305269Y-104144500D01*
X129494736Y-104144500D01*
X129689763Y-104113610D01*
X129690643Y-104113324D01*
X129877561Y-104052591D01*
X130053501Y-103962944D01*
X130164367Y-103882396D01*
X130213246Y-103846884D01*
X130213248Y-103846881D01*
X130213252Y-103846879D01*
X130352879Y-103707252D01*
X130352881Y-103707248D01*
X130352884Y-103707246D01*
X130410679Y-103627697D01*
X130468944Y-103547501D01*
X130558591Y-103371561D01*
X130619610Y-103183763D01*
X130621732Y-103170366D01*
X130650500Y-102988736D01*
X130650500Y-102791263D01*
X130619610Y-102596236D01*
X130563671Y-102424075D01*
X130558591Y-102408439D01*
X130468944Y-102232499D01*
X130436067Y-102187247D01*
X130352884Y-102072753D01*
X130213246Y-101933115D01*
X130053500Y-101817055D01*
X130053499Y-101817054D01*
X129883596Y-101730483D01*
X129832800Y-101682509D01*
X129816005Y-101614688D01*
X129838543Y-101548553D01*
X129883590Y-101509518D01*
X129986619Y-101457022D01*
X130055286Y-101444127D01*
X130120026Y-101470404D01*
X130130592Y-101479827D01*
X131113181Y-102462416D01*
X131146666Y-102523739D01*
X131149500Y-102550097D01*
X131149500Y-103663330D01*
X131149499Y-103663348D01*
X131149499Y-103829054D01*
X131149498Y-103829054D01*
X131190424Y-103981789D01*
X131190425Y-103981790D01*
X131209843Y-104015422D01*
X131209844Y-104015423D01*
X131269477Y-104118712D01*
X131269481Y-104118717D01*
X131388349Y-104237585D01*
X131388355Y-104237590D01*
X132788584Y-105637819D01*
X132822069Y-105699142D01*
X132817085Y-105768834D01*
X132775213Y-105824767D01*
X132709749Y-105849184D01*
X132700903Y-105849500D01*
X128254428Y-105849500D01*
X128245582Y-105849184D01*
X128224407Y-105847669D01*
X128031211Y-105833851D01*
X128013700Y-105831333D01*
X127808039Y-105786595D01*
X127791063Y-105781611D01*
X127593849Y-105708053D01*
X127577757Y-105700703D01*
X127393031Y-105599836D01*
X127378146Y-105590271D01*
X127209646Y-105464133D01*
X127196276Y-105452547D01*
X127047452Y-105303723D01*
X127035866Y-105290353D01*
X126995924Y-105236997D01*
X126909724Y-105121848D01*
X126900163Y-105106968D01*
X126799296Y-104922242D01*
X126791946Y-104906150D01*
X126718385Y-104708928D01*
X126713406Y-104691969D01*
X126668665Y-104486296D01*
X126666148Y-104468787D01*
X126660516Y-104390047D01*
X126650816Y-104254418D01*
X126650500Y-104245572D01*
X126650500Y-79365186D01*
X127599500Y-79365186D01*
X127599500Y-79634813D01*
X127629686Y-79902719D01*
X127629688Y-79902731D01*
X127689684Y-80165594D01*
X127689687Y-80165602D01*
X127778734Y-80420082D01*
X127895714Y-80662994D01*
X127895716Y-80662997D01*
X128039162Y-80891289D01*
X128207266Y-81102085D01*
X128397915Y-81292734D01*
X128608711Y-81460838D01*
X128837003Y-81604284D01*
X129079921Y-81721267D01*
X129271049Y-81788145D01*
X129334397Y-81810312D01*
X129334405Y-81810315D01*
X129334408Y-81810315D01*
X129334409Y-81810316D01*
X129597268Y-81870312D01*
X129865187Y-81900499D01*
X129865188Y-81900500D01*
X129865191Y-81900500D01*
X130134812Y-81900500D01*
X130134812Y-81900499D01*
X130402732Y-81870312D01*
X130665591Y-81810316D01*
X130920079Y-81721267D01*
X131162997Y-81604284D01*
X131391289Y-81460838D01*
X131602085Y-81292734D01*
X131792734Y-81102085D01*
X131960838Y-80891289D01*
X132104284Y-80662997D01*
X132221267Y-80420079D01*
X132310316Y-80165591D01*
X132370312Y-79902732D01*
X132400500Y-79634809D01*
X132400500Y-79365191D01*
X132370312Y-79097268D01*
X132310316Y-78834409D01*
X132221267Y-78579921D01*
X132104284Y-78337003D01*
X131960838Y-78108711D01*
X131792734Y-77897915D01*
X131602085Y-77707266D01*
X131391289Y-77539162D01*
X131162997Y-77395716D01*
X131162994Y-77395714D01*
X130920082Y-77278734D01*
X130665602Y-77189687D01*
X130665594Y-77189684D01*
X130461191Y-77143031D01*
X130402732Y-77129688D01*
X130402728Y-77129687D01*
X130402719Y-77129686D01*
X130134813Y-77099500D01*
X130134809Y-77099500D01*
X129865191Y-77099500D01*
X129865186Y-77099500D01*
X129597280Y-77129686D01*
X129597268Y-77129688D01*
X129334405Y-77189684D01*
X129334397Y-77189687D01*
X129079917Y-77278734D01*
X128837005Y-77395714D01*
X128608712Y-77539161D01*
X128397915Y-77707265D01*
X128207265Y-77897915D01*
X128039161Y-78108712D01*
X127895714Y-78337005D01*
X127778734Y-78579917D01*
X127689687Y-78834397D01*
X127689684Y-78834405D01*
X127629688Y-79097268D01*
X127629686Y-79097280D01*
X127599500Y-79365186D01*
X126650500Y-79365186D01*
X126650500Y-78004427D01*
X126650816Y-77995581D01*
X126666148Y-77781212D01*
X126666148Y-77781211D01*
X126668666Y-77763700D01*
X126713407Y-77558026D01*
X126718384Y-77541075D01*
X126791948Y-77343844D01*
X126799296Y-77327757D01*
X126856255Y-77223443D01*
X126900166Y-77143025D01*
X126909720Y-77128157D01*
X127035873Y-76959637D01*
X127047445Y-76946283D01*
X127196283Y-76797445D01*
X127209637Y-76785873D01*
X127378157Y-76659720D01*
X127393025Y-76650166D01*
X127577757Y-76549295D01*
X127593844Y-76541948D01*
X127791075Y-76468384D01*
X127808026Y-76463407D01*
X128013705Y-76418665D01*
X128031206Y-76416148D01*
X128245582Y-76400816D01*
X128254428Y-76400500D01*
X128307583Y-76400500D01*
X166442417Y-76400500D01*
X166495572Y-76400500D01*
X166504418Y-76400816D01*
G37*
%TD.AperFunction*%
%TA.AperFunction,Conductor*%
G36*
X157241446Y-103721042D02*
G01*
X157280482Y-103766093D01*
X157339743Y-103882396D01*
X157367058Y-103936005D01*
X157483115Y-104095746D01*
X157622753Y-104235384D01*
X157772234Y-104343986D01*
X157782499Y-104351444D01*
X157958439Y-104441091D01*
X158070904Y-104477633D01*
X158150871Y-104503616D01*
X158150401Y-104505060D01*
X158205156Y-104536498D01*
X158237321Y-104598523D01*
X158230847Y-104668092D01*
X158203300Y-104709964D01*
X157800084Y-105113181D01*
X157738761Y-105146666D01*
X157712403Y-105149500D01*
X147999097Y-105149500D01*
X147932058Y-105129815D01*
X147886303Y-105077011D01*
X147876359Y-105007853D01*
X147905384Y-104944297D01*
X147911416Y-104937819D01*
X148279917Y-104569319D01*
X148341240Y-104535834D01*
X148367598Y-104533000D01*
X148378736Y-104533000D01*
X148573763Y-104502110D01*
X148761561Y-104441091D01*
X148937501Y-104351444D01*
X149060862Y-104261818D01*
X149097246Y-104235384D01*
X149097248Y-104235381D01*
X149097252Y-104235379D01*
X149236879Y-104095752D01*
X149236881Y-104095748D01*
X149236884Y-104095746D01*
X149352941Y-103936005D01*
X149352942Y-103936004D01*
X149352944Y-103936001D01*
X149439517Y-103766093D01*
X149487490Y-103715300D01*
X149555311Y-103698505D01*
X149621446Y-103721042D01*
X149660482Y-103766093D01*
X149719743Y-103882396D01*
X149747058Y-103936005D01*
X149863115Y-104095746D01*
X150002753Y-104235384D01*
X150152234Y-104343986D01*
X150162499Y-104351444D01*
X150338439Y-104441091D01*
X150450904Y-104477633D01*
X150526236Y-104502110D01*
X150721264Y-104533000D01*
X150721269Y-104533000D01*
X150918736Y-104533000D01*
X151113763Y-104502110D01*
X151301561Y-104441091D01*
X151477501Y-104351444D01*
X151600862Y-104261818D01*
X151637246Y-104235384D01*
X151637248Y-104235381D01*
X151637252Y-104235379D01*
X151776879Y-104095752D01*
X151776881Y-104095748D01*
X151776884Y-104095746D01*
X151892941Y-103936005D01*
X151892942Y-103936004D01*
X151892944Y-103936001D01*
X151979517Y-103766093D01*
X152027490Y-103715300D01*
X152095311Y-103698505D01*
X152161446Y-103721042D01*
X152200482Y-103766093D01*
X152259743Y-103882396D01*
X152287058Y-103936005D01*
X152403115Y-104095746D01*
X152542753Y-104235384D01*
X152692234Y-104343986D01*
X152702499Y-104351444D01*
X152878439Y-104441091D01*
X152990904Y-104477633D01*
X153066236Y-104502110D01*
X153261264Y-104533000D01*
X153261269Y-104533000D01*
X153458736Y-104533000D01*
X153653763Y-104502110D01*
X153841561Y-104441091D01*
X154017501Y-104351444D01*
X154140862Y-104261818D01*
X154177246Y-104235384D01*
X154177248Y-104235381D01*
X154177252Y-104235379D01*
X154316879Y-104095752D01*
X154316881Y-104095748D01*
X154316884Y-104095746D01*
X154432941Y-103936005D01*
X154432942Y-103936004D01*
X154432944Y-103936001D01*
X154519517Y-103766093D01*
X154567490Y-103715300D01*
X154635311Y-103698505D01*
X154701446Y-103721042D01*
X154740482Y-103766093D01*
X154799743Y-103882396D01*
X154827058Y-103936005D01*
X154943115Y-104095746D01*
X155082753Y-104235384D01*
X155232234Y-104343986D01*
X155242499Y-104351444D01*
X155418439Y-104441091D01*
X155530904Y-104477633D01*
X155606236Y-104502110D01*
X155801264Y-104533000D01*
X155801269Y-104533000D01*
X155998736Y-104533000D01*
X156193763Y-104502110D01*
X156381561Y-104441091D01*
X156557501Y-104351444D01*
X156680862Y-104261818D01*
X156717246Y-104235384D01*
X156717248Y-104235381D01*
X156717252Y-104235379D01*
X156856879Y-104095752D01*
X156856881Y-104095748D01*
X156856884Y-104095746D01*
X156972941Y-103936005D01*
X156972942Y-103936004D01*
X156972944Y-103936001D01*
X157059517Y-103766093D01*
X157107490Y-103715300D01*
X157175311Y-103698505D01*
X157241446Y-103721042D01*
G37*
%TD.AperFunction*%
%TA.AperFunction,Conductor*%
G36*
X133055703Y-85960280D02*
G01*
X133062181Y-85966312D01*
X133162753Y-86066884D01*
X133322499Y-86182944D01*
X133322500Y-86182945D01*
X133498428Y-86272586D01*
X133498436Y-86272590D01*
X133498438Y-86272590D01*
X133498439Y-86272591D01*
X133563818Y-86293833D01*
X133621492Y-86333269D01*
X133648692Y-86397627D01*
X133649500Y-86411764D01*
X133649500Y-91913330D01*
X133649499Y-91913348D01*
X133649499Y-92079054D01*
X133649498Y-92079054D01*
X133649499Y-92079057D01*
X133690423Y-92231785D01*
X133700038Y-92248439D01*
X133719358Y-92281900D01*
X133719359Y-92281904D01*
X133719360Y-92281904D01*
X133769479Y-92368714D01*
X133769481Y-92368717D01*
X133888349Y-92487585D01*
X133888355Y-92487590D01*
X136963583Y-95562819D01*
X136997068Y-95624142D01*
X136992084Y-95693834D01*
X136950212Y-95749767D01*
X136884748Y-95774184D01*
X136875903Y-95774500D01*
X136649999Y-95774500D01*
X136649980Y-95774501D01*
X136547203Y-95785000D01*
X136547200Y-95785001D01*
X136380668Y-95840185D01*
X136380663Y-95840187D01*
X136231342Y-95932289D01*
X136107288Y-96056343D01*
X136107283Y-96056349D01*
X136105241Y-96059661D01*
X136103247Y-96061453D01*
X136102807Y-96062011D01*
X136102711Y-96061935D01*
X136053291Y-96106383D01*
X135984328Y-96117602D01*
X135920247Y-96089755D01*
X135894168Y-96059656D01*
X135892319Y-96056659D01*
X135892316Y-96056655D01*
X135768345Y-95932684D01*
X135619124Y-95840643D01*
X135619119Y-95840641D01*
X135452697Y-95785494D01*
X135452690Y-95785493D01*
X135349986Y-95775000D01*
X135212500Y-95775000D01*
X135212500Y-98224999D01*
X135349972Y-98224999D01*
X135349986Y-98224998D01*
X135452697Y-98214505D01*
X135619119Y-98159358D01*
X135619124Y-98159356D01*
X135768345Y-98067315D01*
X135892318Y-97943342D01*
X135894165Y-97940348D01*
X135895969Y-97938724D01*
X135896798Y-97937677D01*
X135896976Y-97937818D01*
X135946110Y-97893621D01*
X136015073Y-97882396D01*
X136079156Y-97910236D01*
X136105243Y-97940341D01*
X136107288Y-97943656D01*
X136231344Y-98067712D01*
X136380666Y-98159814D01*
X136547065Y-98214953D01*
X136558161Y-98221797D01*
X136567487Y-98223826D01*
X136595734Y-98244972D01*
X136595739Y-98244975D01*
X136668784Y-98318020D01*
X136668786Y-98318021D01*
X136675856Y-98325091D01*
X136816497Y-98465732D01*
X136849982Y-98527055D01*
X136847202Y-98590302D01*
X136832230Y-98638352D01*
X136805915Y-98722803D01*
X136805914Y-98722805D01*
X136799500Y-98793386D01*
X136799500Y-99306616D01*
X136800318Y-99315621D01*
X136786780Y-99384167D01*
X136738332Y-99434511D01*
X136670357Y-99450671D01*
X136604436Y-99427515D01*
X136570710Y-99390990D01*
X136555072Y-99365122D01*
X136434877Y-99244927D01*
X136289395Y-99156980D01*
X136289396Y-99156980D01*
X136127105Y-99106409D01*
X136127106Y-99106409D01*
X136056572Y-99100000D01*
X135500000Y-99100000D01*
X135500000Y-99750000D01*
X136699999Y-99750000D01*
X136699999Y-99743419D01*
X136699192Y-99734539D01*
X136712729Y-99665993D01*
X136761175Y-99615647D01*
X136829150Y-99599486D01*
X136895072Y-99622640D01*
X136928798Y-99659165D01*
X136944528Y-99685185D01*
X136944530Y-99685188D01*
X137064811Y-99805469D01*
X137064813Y-99805470D01*
X137064815Y-99805472D01*
X137134518Y-99847609D01*
X137211064Y-99893883D01*
X137258252Y-99945411D01*
X137270090Y-100014271D01*
X137242821Y-100078599D01*
X137211064Y-100106117D01*
X137064811Y-100194530D01*
X136944530Y-100314811D01*
X136928799Y-100340834D01*
X136877270Y-100388020D01*
X136808411Y-100399858D01*
X136744082Y-100372588D01*
X136704709Y-100314869D01*
X136699192Y-100265457D01*
X136700000Y-100256567D01*
X136700000Y-100250000D01*
X135500000Y-100250000D01*
X135500000Y-100899999D01*
X136056581Y-100899999D01*
X136127102Y-100893591D01*
X136127107Y-100893590D01*
X136289396Y-100843018D01*
X136434877Y-100755072D01*
X136555071Y-100634878D01*
X136555074Y-100634874D01*
X136570710Y-100609010D01*
X136622237Y-100561822D01*
X136691096Y-100549983D01*
X136755425Y-100577251D01*
X136794800Y-100634969D01*
X136800318Y-100684374D01*
X136799500Y-100693384D01*
X136799500Y-100693392D01*
X136799500Y-101206613D01*
X136805913Y-101277192D01*
X136805913Y-101277194D01*
X136805914Y-101277196D01*
X136856522Y-101439606D01*
X136944528Y-101585185D01*
X136944529Y-101585186D01*
X136945233Y-101586350D01*
X136963069Y-101653904D01*
X136941552Y-101720378D01*
X136887511Y-101764666D01*
X136839117Y-101774500D01*
X136649999Y-101774500D01*
X136649980Y-101774501D01*
X136547203Y-101785000D01*
X136547200Y-101785001D01*
X136380668Y-101840185D01*
X136380663Y-101840187D01*
X136231342Y-101932289D01*
X136107288Y-102056343D01*
X136107283Y-102056349D01*
X136105241Y-102059661D01*
X136103247Y-102061453D01*
X136102807Y-102062011D01*
X136102711Y-102061935D01*
X136053291Y-102106383D01*
X135984328Y-102117602D01*
X135920247Y-102089755D01*
X135894168Y-102059656D01*
X135892319Y-102056659D01*
X135892316Y-102056655D01*
X135768345Y-101932684D01*
X135619124Y-101840643D01*
X135619119Y-101840641D01*
X135452697Y-101785494D01*
X135452690Y-101785493D01*
X135349986Y-101775000D01*
X135212500Y-101775000D01*
X135212500Y-104224999D01*
X135349972Y-104224999D01*
X135349986Y-104224998D01*
X135452697Y-104214505D01*
X135619119Y-104159358D01*
X135619124Y-104159356D01*
X135768345Y-104067315D01*
X135892318Y-103943342D01*
X135894165Y-103940348D01*
X135895969Y-103938724D01*
X135896798Y-103937677D01*
X135896976Y-103937818D01*
X135946110Y-103893621D01*
X136015073Y-103882396D01*
X136079156Y-103910236D01*
X136105243Y-103940341D01*
X136107288Y-103943656D01*
X136231344Y-104067712D01*
X136380666Y-104159814D01*
X136547203Y-104214999D01*
X136649991Y-104225500D01*
X137362402Y-104225499D01*
X137391848Y-104234145D01*
X137421829Y-104240667D01*
X137426842Y-104244419D01*
X137429441Y-104245183D01*
X137450083Y-104261818D01*
X137626084Y-104437819D01*
X137659569Y-104499142D01*
X137654585Y-104568834D01*
X137612713Y-104624767D01*
X137547249Y-104649184D01*
X137538403Y-104649500D01*
X134300098Y-104649500D01*
X134233059Y-104629815D01*
X134212417Y-104613181D01*
X133124222Y-103524986D01*
X133875001Y-103524986D01*
X133885494Y-103627697D01*
X133940641Y-103794119D01*
X133940643Y-103794124D01*
X134032684Y-103943345D01*
X134156654Y-104067315D01*
X134305875Y-104159356D01*
X134305880Y-104159358D01*
X134472302Y-104214505D01*
X134472309Y-104214506D01*
X134575019Y-104224999D01*
X134712499Y-104224999D01*
X134712500Y-104224998D01*
X134712500Y-103250000D01*
X133875001Y-103250000D01*
X133875001Y-103524986D01*
X133124222Y-103524986D01*
X132886819Y-103287583D01*
X132874339Y-103264729D01*
X132861706Y-103250149D01*
X132858611Y-103235925D01*
X132853334Y-103226260D01*
X132850500Y-103199902D01*
X132850500Y-102475013D01*
X133875000Y-102475013D01*
X133875000Y-102750000D01*
X134712500Y-102750000D01*
X134712500Y-101775000D01*
X134575027Y-101775000D01*
X134575012Y-101775001D01*
X134472302Y-101785494D01*
X134305880Y-101840641D01*
X134305875Y-101840643D01*
X134156654Y-101932684D01*
X134032684Y-102056654D01*
X133940643Y-102205875D01*
X133940641Y-102205880D01*
X133885494Y-102372302D01*
X133885493Y-102372309D01*
X133875000Y-102475013D01*
X132850500Y-102475013D01*
X132850500Y-100256582D01*
X133800001Y-100256582D01*
X133806408Y-100327102D01*
X133806409Y-100327107D01*
X133856981Y-100489396D01*
X133944927Y-100634877D01*
X134065122Y-100755072D01*
X134210604Y-100843019D01*
X134210603Y-100843019D01*
X134372894Y-100893590D01*
X134372893Y-100893590D01*
X134443427Y-100899999D01*
X134999999Y-100899999D01*
X135000000Y-100899998D01*
X135000000Y-100250000D01*
X133800001Y-100250000D01*
X133800001Y-100256582D01*
X132850500Y-100256582D01*
X132850500Y-99743427D01*
X133800000Y-99743427D01*
X133800000Y-99750000D01*
X135000000Y-99750000D01*
X135000000Y-99100000D01*
X134443417Y-99100000D01*
X134372897Y-99106408D01*
X134372892Y-99106409D01*
X134210603Y-99156981D01*
X134065122Y-99244927D01*
X133944927Y-99365122D01*
X133856980Y-99510604D01*
X133806409Y-99672893D01*
X133800000Y-99743427D01*
X132850500Y-99743427D01*
X132850500Y-97524986D01*
X133875001Y-97524986D01*
X133885494Y-97627697D01*
X133940641Y-97794119D01*
X133940643Y-97794124D01*
X134032684Y-97943345D01*
X134156654Y-98067315D01*
X134305875Y-98159356D01*
X134305880Y-98159358D01*
X134472302Y-98214505D01*
X134472309Y-98214506D01*
X134575019Y-98224999D01*
X134712499Y-98224999D01*
X134712500Y-98224998D01*
X134712500Y-97250000D01*
X133875001Y-97250000D01*
X133875001Y-97524986D01*
X132850500Y-97524986D01*
X132850500Y-96475013D01*
X133875000Y-96475013D01*
X133875000Y-96750000D01*
X134712500Y-96750000D01*
X134712500Y-95775000D01*
X134575027Y-95775000D01*
X134575012Y-95775001D01*
X134472302Y-95785494D01*
X134305880Y-95840641D01*
X134305875Y-95840643D01*
X134156654Y-95932684D01*
X134032684Y-96056654D01*
X133940643Y-96205875D01*
X133940641Y-96205880D01*
X133885494Y-96372302D01*
X133885493Y-96372309D01*
X133875000Y-96475013D01*
X132850500Y-96475013D01*
X132850500Y-86053993D01*
X132870185Y-85986954D01*
X132922989Y-85941199D01*
X132992147Y-85931255D01*
X133055703Y-85960280D01*
G37*
%TD.AperFunction*%
%TA.AperFunction,Conductor*%
G36*
X143458962Y-99821070D02*
G01*
X143498374Y-99847609D01*
X143960599Y-100309834D01*
X143994084Y-100371157D01*
X143995391Y-100378117D01*
X144020290Y-100535326D01*
X144081117Y-100722529D01*
X144136672Y-100831561D01*
X144170476Y-100897905D01*
X144286172Y-101057146D01*
X144425354Y-101196328D01*
X144536653Y-101277192D01*
X144584596Y-101312025D01*
X144683490Y-101362413D01*
X144734286Y-101410387D01*
X144751082Y-101478208D01*
X144728545Y-101544343D01*
X144727515Y-101545782D01*
X144667057Y-101628996D01*
X144577408Y-101804941D01*
X144516389Y-101992736D01*
X144485500Y-102187763D01*
X144485500Y-102495705D01*
X144473245Y-102542045D01*
X144476035Y-102543201D01*
X144472925Y-102550708D01*
X144472923Y-102550716D01*
X144432000Y-102703443D01*
X144432000Y-102861557D01*
X144466078Y-102988736D01*
X144472923Y-103014283D01*
X144476034Y-103021794D01*
X144472998Y-103023051D01*
X144485500Y-103069293D01*
X144485500Y-103377236D01*
X144516389Y-103572263D01*
X144562865Y-103715300D01*
X144577409Y-103760061D01*
X144650518Y-103903543D01*
X144667058Y-103936004D01*
X144679126Y-103952615D01*
X144702606Y-104018421D01*
X144686780Y-104086475D01*
X144636674Y-104135170D01*
X144578808Y-104149500D01*
X143343886Y-104149500D01*
X143276847Y-104129815D01*
X143231092Y-104077011D01*
X143221148Y-104007853D01*
X143244619Y-103951189D01*
X143293353Y-103886088D01*
X143293354Y-103886086D01*
X143343596Y-103751379D01*
X143343598Y-103751372D01*
X143349999Y-103691844D01*
X143350000Y-103691827D01*
X143350000Y-103140000D01*
X142033012Y-103140000D01*
X142065925Y-103082993D01*
X142100000Y-102955826D01*
X142100000Y-102824174D01*
X142065925Y-102697007D01*
X142033012Y-102640000D01*
X143350000Y-102640000D01*
X143350000Y-102088172D01*
X143349999Y-102088155D01*
X143343598Y-102028627D01*
X143343596Y-102028620D01*
X143293354Y-101893913D01*
X143293350Y-101893906D01*
X143207190Y-101778812D01*
X143207187Y-101778809D01*
X143092093Y-101692649D01*
X143092086Y-101692645D01*
X142957379Y-101642403D01*
X142957372Y-101642401D01*
X142897844Y-101636000D01*
X142841888Y-101636000D01*
X142774849Y-101616315D01*
X142729094Y-101563511D01*
X142719150Y-101494353D01*
X142748175Y-101430797D01*
X142769003Y-101411682D01*
X142913246Y-101306884D01*
X142913248Y-101306881D01*
X142913252Y-101306879D01*
X143052879Y-101167252D01*
X143052881Y-101167248D01*
X143052884Y-101167246D01*
X143105652Y-101094615D01*
X143168944Y-101007501D01*
X143258591Y-100831561D01*
X143319610Y-100643763D01*
X143325114Y-100609010D01*
X143350500Y-100448736D01*
X143350500Y-100251263D01*
X143319610Y-100056238D01*
X143319610Y-100056237D01*
X143292761Y-99973606D01*
X143290767Y-99903768D01*
X143326847Y-99843935D01*
X143389548Y-99813106D01*
X143458962Y-99821070D01*
G37*
%TD.AperFunction*%
%TA.AperFunction,Conductor*%
G36*
X130461334Y-85921311D02*
G01*
X130505681Y-85949812D01*
X130622753Y-86066884D01*
X130772234Y-86175486D01*
X130782499Y-86182944D01*
X130958439Y-86272591D01*
X131068919Y-86308488D01*
X131146236Y-86333610D01*
X131341264Y-86364500D01*
X131525500Y-86364500D01*
X131592539Y-86384185D01*
X131638294Y-86436989D01*
X131649500Y-86488500D01*
X131649500Y-101000902D01*
X131629815Y-101067941D01*
X131577011Y-101113696D01*
X131507853Y-101123640D01*
X131444297Y-101094615D01*
X131437819Y-101088583D01*
X130686819Y-100337583D01*
X130653334Y-100276260D01*
X130651166Y-100256096D01*
X130650882Y-100256119D01*
X130650500Y-100251265D01*
X130619610Y-100056236D01*
X130585254Y-99950500D01*
X130558591Y-99868439D01*
X130468944Y-99692499D01*
X130454700Y-99672893D01*
X130352884Y-99532753D01*
X130213246Y-99393115D01*
X130053505Y-99277058D01*
X130016779Y-99258345D01*
X129883593Y-99190482D01*
X129832800Y-99142510D01*
X129816005Y-99074689D01*
X129838542Y-99008554D01*
X129883593Y-98969517D01*
X130053501Y-98882944D01*
X130125305Y-98830776D01*
X130213246Y-98766884D01*
X130213248Y-98766881D01*
X130213252Y-98766879D01*
X130352879Y-98627252D01*
X130352881Y-98627248D01*
X130352884Y-98627246D01*
X130426194Y-98526342D01*
X130468944Y-98467501D01*
X130558591Y-98291561D01*
X130619610Y-98103763D01*
X130625383Y-98067315D01*
X130650500Y-97908736D01*
X130650500Y-97711263D01*
X130619610Y-97516236D01*
X130583711Y-97405750D01*
X130558591Y-97328439D01*
X130468944Y-97152499D01*
X130461486Y-97142234D01*
X130352884Y-96992753D01*
X130213246Y-96853115D01*
X130053505Y-96737058D01*
X130032315Y-96726261D01*
X129883593Y-96650482D01*
X129832800Y-96602510D01*
X129816005Y-96534689D01*
X129838542Y-96468554D01*
X129883593Y-96429517D01*
X130053501Y-96342944D01*
X130125305Y-96290776D01*
X130213246Y-96226884D01*
X130213248Y-96226881D01*
X130213252Y-96226879D01*
X130352879Y-96087252D01*
X130352881Y-96087248D01*
X130352884Y-96087246D01*
X130403779Y-96017192D01*
X130468944Y-95927501D01*
X130558591Y-95751561D01*
X130619610Y-95563763D01*
X130636785Y-95455326D01*
X130650500Y-95368736D01*
X130650500Y-95171263D01*
X130619610Y-94976236D01*
X130584985Y-94869673D01*
X130558591Y-94788439D01*
X130468944Y-94612499D01*
X130461486Y-94602234D01*
X130352884Y-94452753D01*
X130213246Y-94313115D01*
X130053505Y-94197058D01*
X130047119Y-94193804D01*
X129883593Y-94110482D01*
X129832800Y-94062510D01*
X129816005Y-93994689D01*
X129838542Y-93928554D01*
X129883593Y-93889517D01*
X130053501Y-93802944D01*
X130125305Y-93750776D01*
X130213246Y-93686884D01*
X130213248Y-93686881D01*
X130213252Y-93686879D01*
X130352879Y-93547252D01*
X130352881Y-93547248D01*
X130352884Y-93547246D01*
X130421981Y-93452140D01*
X130468944Y-93387501D01*
X130558591Y-93211561D01*
X130619610Y-93023763D01*
X130636785Y-92915326D01*
X130650500Y-92828736D01*
X130650500Y-92631263D01*
X130619610Y-92436236D01*
X130599270Y-92373637D01*
X130558591Y-92248439D01*
X130468944Y-92072499D01*
X130461486Y-92062234D01*
X130352884Y-91912753D01*
X130213246Y-91773115D01*
X130053504Y-91657058D01*
X130053503Y-91657057D01*
X130053501Y-91657056D01*
X129877561Y-91567409D01*
X129829489Y-91551789D01*
X129771815Y-91512352D01*
X129744617Y-91447993D01*
X129747235Y-91404912D01*
X129749969Y-91393520D01*
X129029410Y-90672962D01*
X129092993Y-90655925D01*
X129207007Y-90590099D01*
X129300099Y-90497007D01*
X129365925Y-90382993D01*
X129382962Y-90319410D01*
X130211259Y-91147707D01*
X130211261Y-91147707D01*
X130212923Y-91146500D01*
X130352504Y-91006918D01*
X130468514Y-90847242D01*
X130558126Y-90671373D01*
X130619123Y-90483646D01*
X130650000Y-90288697D01*
X130650000Y-90091302D01*
X130619123Y-89896353D01*
X130558126Y-89708626D01*
X130468514Y-89532757D01*
X130352503Y-89373080D01*
X130352499Y-89373075D01*
X130212931Y-89233507D01*
X130212922Y-89233499D01*
X130211260Y-89232291D01*
X130211259Y-89232291D01*
X129382962Y-90060588D01*
X129365925Y-89997007D01*
X129300099Y-89882993D01*
X129207007Y-89789901D01*
X129092993Y-89724075D01*
X129029410Y-89707037D01*
X129749969Y-88986477D01*
X129740959Y-88948948D01*
X129740959Y-88891052D01*
X129749969Y-88853520D01*
X129029410Y-88132962D01*
X129092993Y-88115925D01*
X129207007Y-88050099D01*
X129300099Y-87957007D01*
X129365925Y-87842993D01*
X129382962Y-87779410D01*
X130211259Y-88607707D01*
X130211261Y-88607707D01*
X130212923Y-88606500D01*
X130352504Y-88466918D01*
X130468514Y-88307242D01*
X130558126Y-88131373D01*
X130619123Y-87943646D01*
X130650000Y-87748697D01*
X130650000Y-87551302D01*
X130619123Y-87356353D01*
X130558126Y-87168626D01*
X130468514Y-86992757D01*
X130352503Y-86833080D01*
X130352499Y-86833075D01*
X130212931Y-86693507D01*
X130212922Y-86693499D01*
X130211260Y-86692291D01*
X130211259Y-86692291D01*
X129382962Y-87520588D01*
X129365925Y-87457007D01*
X129300099Y-87342993D01*
X129207007Y-87249901D01*
X129092993Y-87184075D01*
X129029410Y-87167037D01*
X129749969Y-86446477D01*
X129747235Y-86435088D01*
X129750726Y-86365305D01*
X129791389Y-86308488D01*
X129829489Y-86288210D01*
X129877561Y-86272591D01*
X130053501Y-86182944D01*
X130143192Y-86117779D01*
X130213246Y-86066884D01*
X130213248Y-86066881D01*
X130213252Y-86066879D01*
X130330319Y-85949812D01*
X130391642Y-85916327D01*
X130461334Y-85921311D01*
G37*
%TD.AperFunction*%
%TA.AperFunction,Conductor*%
G36*
X139768834Y-84895047D02*
G01*
X139824767Y-84936919D01*
X139849184Y-85002383D01*
X139849500Y-85011229D01*
X139849500Y-85208736D01*
X139880389Y-85403763D01*
X139928322Y-85551284D01*
X139941409Y-85591561D01*
X140031056Y-85767501D01*
X140031058Y-85767504D01*
X140147115Y-85927246D01*
X140286753Y-86066884D01*
X140436234Y-86175486D01*
X140446499Y-86182944D01*
X140622439Y-86272591D01*
X140670507Y-86288209D01*
X140728183Y-86327647D01*
X140755381Y-86392005D01*
X140752763Y-86435086D01*
X140750028Y-86446476D01*
X141470589Y-87167037D01*
X141407007Y-87184075D01*
X141292993Y-87249901D01*
X141199901Y-87342993D01*
X141134075Y-87457007D01*
X141117037Y-87520589D01*
X140288738Y-86692290D01*
X140287078Y-86693498D01*
X140287071Y-86693504D01*
X140147495Y-86833081D01*
X140031485Y-86992757D01*
X139941873Y-87168626D01*
X139880876Y-87356353D01*
X139850000Y-87551302D01*
X139850000Y-87748697D01*
X139880876Y-87943646D01*
X139941873Y-88131373D01*
X140031485Y-88307242D01*
X140147495Y-88466918D01*
X140287076Y-88606500D01*
X140288739Y-88607708D01*
X141117037Y-87779410D01*
X141134075Y-87842993D01*
X141199901Y-87957007D01*
X141292993Y-88050099D01*
X141407007Y-88115925D01*
X141470589Y-88132962D01*
X140750028Y-88853521D01*
X140752763Y-88864913D01*
X140749272Y-88934695D01*
X140708608Y-88991512D01*
X140670509Y-89011789D01*
X140622444Y-89027407D01*
X140622441Y-89027408D01*
X140622439Y-89027409D01*
X140508890Y-89085266D01*
X140446495Y-89117058D01*
X140286753Y-89233115D01*
X140147119Y-89372749D01*
X140147115Y-89372754D01*
X140135759Y-89388385D01*
X140131427Y-89391725D01*
X140129154Y-89396703D01*
X140104051Y-89412835D01*
X140080429Y-89431051D01*
X140073757Y-89432303D01*
X140070376Y-89434477D01*
X140035441Y-89439500D01*
X139802230Y-89439500D01*
X139735191Y-89419815D01*
X139714549Y-89403181D01*
X139286819Y-88975451D01*
X139253334Y-88914128D01*
X139250500Y-88887770D01*
X139250500Y-85362229D01*
X139270185Y-85295190D01*
X139286815Y-85274552D01*
X139637819Y-84923547D01*
X139699142Y-84890063D01*
X139768834Y-84895047D01*
G37*
%TD.AperFunction*%
%TD*%
M02*
